<?xml version="1.0" standalone="yes"?>

<svg version="1.1" viewBox="0.0 0.0 626.2467191601049 204.31233595800524" fill="none" stroke="none" stroke-linecap="square" stroke-miterlimit="10" xmlns="http://www.w3.org/2000/svg" xmlns:xlink="http://www.w3.org/1999/xlink"><clipPath id="p.0"><path d="m0 0l626.2467 0l0 204.31233l-626.2467 0l0 -204.31233z" clip-rule="nonzero"></path></clipPath><g clip-path="url(#p.0)"><path fill="#000000" fill-opacity="0.0" d="m0 0l626.2467 0l0 204.31233l-626.2467 0z" fill-rule="evenodd"></path><path fill="#000000" fill-opacity="0.0" d="m18.790024 20.65225l591.748 0l0 168.91339l-591.748 0z" fill-rule="evenodd"></path><path stroke="#000000" stroke-width="1.0" stroke-linejoin="round" stroke-linecap="butt" d="m18.790024 20.65225l591.748 0l0 168.91339l-591.748 0z" fill-rule="evenodd"></path><path fill="#000000" fill-opacity="0.0" d="m67.79795 97.987595l490.26773 0l0 10.992126l-490.26773 0z" fill-rule="evenodd"></path><path stroke="#000000" stroke-width="1.0" stroke-linejoin="round" stroke-linecap="butt" d="m67.79795 97.987595l490.26773 0l0 10.992126l-490.26773 0z" fill-rule="evenodd"></path><path fill="#000000" fill-opacity="0.0" d="m104.76442 34.286552l13.039368 0l0 138.3937l-13.039368 0z" fill-rule="evenodd"></path><path stroke="#000000" stroke-width="1.0" stroke-linejoin="round" stroke-linecap="butt" d="m104.76442 34.286552l13.039368 0l0 138.3937l-13.039368 0z" fill-rule="evenodd"></path><path fill="#ffffff" d="m81.94813 30.263597l59.649727 0l0 0c7.81427 0 14.149002 5.3048954 14.149002 11.848818c0 6.5439224 -6.334732 11.84882 -14.149002 11.84882l-59.649727 0l0 0c-7.81427 0 -14.148994 -5.3048973 -14.148994 -11.84882c0 -6.5439224 6.3347244 -11.848818 14.148994 -11.848818z" fill-rule="evenodd"></path><path stroke="#000000" stroke-width="1.0" stroke-linejoin="round" stroke-linecap="butt" d="m81.94813 30.263597l59.649727 0l0 0c7.81427 0 14.149002 5.3048954 14.149002 11.848818c0 6.5439224 -6.334732 11.84882 -14.149002 11.84882l-59.649727 0l0 0c-7.81427 0 -14.148994 -5.3048973 -14.148994 -11.84882c0 -6.5439224 6.3347244 -11.848818 14.148994 -11.848818z" fill-rule="evenodd"></path><path fill="#0000ff" d="m112.91051 46.912415l-1.140625 0l0 -7.28125q-0.421875 0.390625 -1.09375 0.796875q-0.65625 0.390625 -1.1875 0.578125l0 -1.109375q0.953125 -0.4375 1.671875 -1.078125q0.71875 -0.640625 1.015625 -1.25l0.734375 0l0 9.34375z" fill-rule="nonzero"></path><path fill="#ffffff" d="m80.505424 153.02106l59.649727 0l0 0c7.81427 0 14.148987 5.304901 14.148987 11.848831c0 6.543915 -6.334717 11.848816 -14.148987 11.848816l-59.649727 0l0 0c-7.8142776 0 -14.148994 -5.304901 -14.148994 -11.848816c0 -6.54393 6.334717 -11.848831 14.148994 -11.848831z" fill-rule="evenodd"></path><path stroke="#000000" stroke-width="1.0" stroke-linejoin="round" stroke-linecap="butt" d="m80.505424 153.02106l59.649727 0l0 0c7.81427 0 14.148987 5.304901 14.148987 11.848831c0 6.543915 -6.334717 11.848816 -14.148987 11.848816l-59.649727 0l0 0c-7.8142776 0 -14.148994 -5.304901 -14.148994 -11.848816c0 -6.54393 6.334717 -11.848831 14.148994 -11.848831z" fill-rule="evenodd"></path><path fill="#0000ff" d="m113.17092 168.57613l0 1.09375l-6.15625 0q-0.015625 -0.40625 0.140625 -0.796875q0.234375 -0.625 0.75 -1.234375q0.515625 -0.609375 1.5 -1.40625q1.515625 -1.25 2.046875 -1.96875q0.53125 -0.734375 0.53125 -1.375q0 -0.6875 -0.484375 -1.140625q-0.484375 -0.46875 -1.265625 -0.46875q-0.828125 0 -1.328125 0.5q-0.484375 0.484375 -0.5 1.359375l-1.171875 -0.125q0.125 -1.3125 0.90625 -2.0q0.78125 -0.6875 2.109375 -0.6875q1.34375 0 2.125 0.75q0.78125 0.734375 0.78125 1.828125q0 0.5625 -0.234375 1.109375q-0.21875 0.53125 -0.75 1.140625q-0.53125 0.59375 -1.765625 1.625q-1.03125 0.859375 -1.328125 1.171875q-0.28125 0.3125 -0.46875 0.625l4.5625 0z" fill-rule="nonzero"></path><path fill="#000000" fill-opacity="0.0" d="m412.3201 35.478916l13.039368 0l0 138.3937l-13.039368 0z" fill-rule="evenodd"></path><path stroke="#000000" stroke-width="1.0" stroke-linejoin="round" stroke-linecap="butt" d="m412.3201 35.478916l13.039368 0l0 138.3937l-13.039368 0z" fill-rule="evenodd"></path><path fill="#ffffff" d="m389.02206 33.09419l59.64972 0l0 0c7.81427 0 14.148987 5.3048973 14.148987 11.84882c0 6.5439224 -6.334717 11.848816 -14.148987 11.848816l-59.64972 0l0 0c-7.8143005 0 -14.149017 -5.3048935 -14.149017 -11.848816c0 -6.5439224 6.334717 -11.84882 14.149017 -11.84882z" fill-rule="evenodd"></path><path stroke="#000000" stroke-width="1.0" stroke-linejoin="round" stroke-linecap="butt" d="m389.02206 33.09419l59.64972 0l0 0c7.81427 0 14.148987 5.3048973 14.148987 11.84882c0 6.5439224 -6.334717 11.848816 -14.148987 11.848816l-59.64972 0l0 0c-7.8143005 0 -14.149017 -5.3048935 -14.149017 -11.848816c0 -6.5439224 6.334717 -11.84882 14.149017 -11.84882z" fill-rule="evenodd"></path><path fill="#0000ff" d="m415.68756 47.305508l1.1875 -0.109375q0.140625 0.890625 0.625 1.328125q0.484375 0.4375 1.171875 0.4375q0.828125 0 1.390625 -0.625q0.578125 -0.625 0.578125 -1.640625q0 -0.984375 -0.546875 -1.546875q-0.546875 -0.5625 -1.4375 -0.5625q-0.5625 0 -1.015625 0.25q-0.4375 0.25 -0.6875 0.640625l-1.0625 -0.140625l0.890625 -4.765625l4.625 0l0 1.078125l-3.703125 0l-0.5 2.5q0.828125 -0.578125 1.75 -0.578125q1.21875 0 2.046875 0.84375q0.84375 0.84375 0.84375 2.171875q0 1.265625 -0.734375 2.1875q-0.890625 1.125 -2.4375 1.125q-1.265625 0 -2.078125 -0.703125q-0.796875 -0.71875 -0.90625 -1.890625z" fill-rule="nonzero"></path><path fill="#ffffff" d="m389.02206 150.18793l59.64972 0l0 0c7.81427 0 14.148987 5.304901 14.148987 11.848816c0 6.54393 -6.334717 11.848816 -14.148987 11.848816l-59.64972 0l0 0c-7.8143005 0 -14.149017 -5.304886 -14.149017 -11.848816c0 -6.543915 6.334717 -11.848816 14.149017 -11.848816z" fill-rule="evenodd"></path><path stroke="#000000" stroke-width="1.0" stroke-linejoin="round" stroke-linecap="butt" d="m389.02206 150.18793l59.64972 0l0 0c7.81427 0 14.148987 5.304901 14.148987 11.848816c0 6.54393 -6.334717 11.848816 -14.148987 11.848816l-59.64972 0l0 0c-7.8143005 0 -14.149017 -5.304886 -14.149017 -11.848816c0 -6.543915 6.334717 -11.848816 14.149017 -11.848816z" fill-rule="evenodd"></path><path fill="#0000ff" d="m417.43756 161.78987q-0.703125 -0.265625 -1.046875 -0.734375q-0.34375 -0.484375 -0.34375 -1.15625q0 -1.015625 0.71875 -1.703125q0.734375 -0.703125 1.953125 -0.703125q1.21875 0 1.953125 0.71875q0.75 0.703125 0.75 1.71875q0 0.640625 -0.34375 1.125q-0.34375 0.46875 -1.03125 0.734375q0.859375 0.28125 1.296875 0.90625q0.453125 0.625 0.453125 1.484375q0 1.1875 -0.84375 2.0q-0.84375 0.8125 -2.21875 0.8125q-1.375 0 -2.21875 -0.8125q-0.84375 -0.8125 -0.84375 -2.03125q0 -0.90625 0.453125 -1.515625q0.46875 -0.625 1.3125 -0.84375zm-0.234375 -1.9375q0 0.65625 0.421875 1.078125q0.4375 0.421875 1.109375 0.421875q0.671875 0 1.09375 -0.40625q0.421875 -0.421875 0.421875 -1.03125q0 -0.625 -0.4375 -1.046875q-0.4375 -0.4375 -1.078125 -0.4375q-0.65625 0 -1.09375 0.421875q-0.4375 0.421875 -0.4375 1.0zm-0.359375 4.296875q0 0.484375 0.234375 0.953125q0.234375 0.453125 0.6875 0.703125q0.453125 0.25 0.984375 0.25q0.8125 0 1.34375 -0.515625q0.53125 -0.53125 0.53125 -1.34375q0 -0.828125 -0.546875 -1.359375q-0.546875 -0.546875 -1.375 -0.546875q-0.796875 0 -1.328125 0.53125q-0.53125 0.53125 -0.53125 1.328125z" fill-rule="nonzero"></path><path fill="#ffffff" d="m389.02206 123.00304l59.64972 0l0 0c7.81427 0 14.148987 5.304901 14.148987 11.848816c0 6.54393 -6.334717 11.848831 -14.148987 11.848831l-59.64972 0l0 0c-7.8143005 0 -14.149017 -5.304901 -14.149017 -11.848831c0 -6.543915 6.334717 -11.848816 14.149017 -11.848816z" fill-rule="evenodd"></path><path stroke="#000000" stroke-width="1.0" stroke-linejoin="round" stroke-linecap="butt" d="m389.02206 123.00304l59.64972 0l0 0c7.81427 0 14.148987 5.304901 14.148987 11.848816c0 6.54393 -6.334717 11.848831 -14.148987 11.848831l-59.64972 0l0 0c-7.8143005 0 -14.149017 -5.304901 -14.149017 -11.848831c0 -6.543915 6.334717 -11.848816 14.149017 -11.848816z" fill-rule="evenodd"></path><path fill="#0000ff" d="m415.75006 131.5581l0 -1.09375l6.03125 0l0 0.890625q-0.890625 0.953125 -1.765625 2.515625q-0.875 1.5625 -1.34375 3.21875q-0.34375 1.171875 -0.4375 2.5625l-1.171875 0q0.015625 -1.09375 0.421875 -2.640625q0.421875 -1.5625 1.1875 -3.0q0.765625 -1.453125 1.640625 -2.453125l-4.5625 0z" fill-rule="nonzero"></path><path fill="#ffffff" d="m389.02206 59.175884l59.64972 0l0 0c7.81427 0 14.148987 5.3048973 14.148987 11.84882c0 6.5439224 -6.334717 11.848816 -14.148987 11.848816l-59.64972 0l0 0c-7.8143005 0 -14.149017 -5.3048935 -14.149017 -11.848816c0 -6.5439224 6.334717 -11.84882 14.149017 -11.84882z" fill-rule="evenodd"></path><path stroke="#000000" stroke-width="1.0" stroke-linejoin="round" stroke-linecap="butt" d="m389.02206 59.175884l59.64972 0l0 0c7.81427 0 14.148987 5.3048973 14.148987 11.84882c0 6.5439224 -6.334717 11.848816 -14.148987 11.848816l-59.64972 0l0 0c-7.8143005 0 -14.149017 -5.3048935 -14.149017 -11.848816c0 -6.5439224 6.334717 -11.84882 14.149017 -11.84882z" fill-rule="evenodd"></path><path fill="#0000ff" d="m421.60944 68.79345l-1.140625 0.09375q-0.140625 -0.671875 -0.421875 -0.984375q-0.46875 -0.484375 -1.140625 -0.484375q-0.546875 0 -0.96875 0.3125q-0.53125 0.390625 -0.84375 1.140625q-0.3125 0.75 -0.328125 2.15625q0.40625 -0.625 1.0 -0.921875q0.609375 -0.3125 1.265625 -0.3125q1.140625 0 1.9375 0.84375q0.8125 0.828125 0.8125 2.171875q0 0.875 -0.390625 1.625q-0.375 0.75 -1.03125 1.15625q-0.65625 0.390625 -1.5 0.390625q-1.421875 0 -2.328125 -1.046875q-0.90625 -1.046875 -0.90625 -3.46875q0 -2.6875 1.0 -3.921875q0.875 -1.0625 2.34375 -1.0625q1.09375 0 1.796875 0.625q0.703125 0.609375 0.84375 1.6875zm-4.671875 4.015625q0 0.59375 0.25 1.140625q0.25 0.53125 0.703125 0.8125q0.453125 0.28125 0.953125 0.28125q0.71875 0 1.234375 -0.578125q0.53125 -0.59375 0.53125 -1.59375q0 -0.96875 -0.515625 -1.515625q-0.515625 -0.5625 -1.296875 -0.5625q-0.78125 0 -1.328125 0.5625q-0.53125 0.546875 -0.53125 1.453125z" fill-rule="nonzero"></path><path fill="#000000" fill-opacity="0.0" d="m507.5673 35.478916l13.039337 0l0 138.3937l-13.039337 0z" fill-rule="evenodd"></path><path stroke="#000000" stroke-width="1.0" stroke-linejoin="round" stroke-linecap="butt" d="m507.5673 35.478916l13.039337 0l0 138.3937l-13.039337 0z" fill-rule="evenodd"></path><path fill="#ffffff" d="m484.26923 33.09419l59.64972 0l0 0c7.81427 0 14.148987 5.3048973 14.148987 11.84882c0 6.5439224 -6.334717 11.848816 -14.148987 11.848816l-59.64972 0l0 0c-7.81427 0 -14.148987 -5.3048935 -14.148987 -11.848816c0 -6.5439224 6.334717 -11.84882 14.148987 -11.84882z" fill-rule="evenodd"></path><path stroke="#000000" stroke-width="1.0" stroke-linejoin="round" stroke-linecap="butt" d="m484.26923 33.09419l59.64972 0l0 0c7.81427 0 14.148987 5.3048973 14.148987 11.84882c0 6.5439224 -6.334717 11.848816 -14.148987 11.848816l-59.64972 0l0 0c-7.81427 0 -14.148987 -5.3048935 -14.148987 -11.848816c0 -6.5439224 6.334717 -11.84882 14.148987 -11.84882z" fill-rule="evenodd"></path><path fill="#0000ff" d="m511.1066 47.586758l1.0937805 -0.09375q0.140625 0.765625 0.53125 1.125q0.390625 0.34375 1.015625 0.34375q0.515625 0 0.90625 -0.234375q0.40625 -0.25 0.65625 -0.640625q0.265625 -0.40625 0.421875 -1.09375q0.171875 -0.6875 0.171875 -1.40625q0 -0.078125 0 -0.21875q-0.34375 0.546875 -0.9375 0.890625q-0.59375 0.328125 -1.28125 0.328125q-1.15625 0 -1.9531555 -0.828125q-0.796875 -0.84375 -0.796875 -2.21875q0 -1.421875 0.828125 -2.28125q0.8281555 -0.859375 2.0937805 -0.859375q0.90625 0 1.65625 0.5q0.75 0.484375 1.140625 1.390625q0.390625 0.890625 0.390625 2.609375q0 1.78125 -0.390625 2.84375q-0.375 1.046875 -1.140625 1.609375q-0.765625 0.546875 -1.796875 0.546875q-1.09375 0 -1.7969055 -0.59375q-0.6875 -0.609375 -0.8125 -1.71875zm4.6719055 -4.109375q0 -0.984375 -0.53125 -1.546875q-0.515625 -0.578125 -1.25 -0.578125q-0.765625 0 -1.328125 0.625q-0.5625 0.609375 -0.5625 1.609375q0 0.875 0.53125 1.4375q0.53125 0.546875 1.328125 0.546875q0.796875 0 1.296875 -0.546875q0.515625 -0.5625 0.515625 -1.546875z" fill-rule="nonzero"></path><path fill="#ffffff" d="m484.26923 59.175884l59.64972 0l0 0c7.81427 0 14.148987 5.3048973 14.148987 11.84882c0 6.5439224 -6.334717 11.848816 -14.148987 11.848816l-59.64972 0l0 0c-7.81427 0 -14.148987 -5.3048935 -14.148987 -11.848816c0 -6.5439224 6.334717 -11.84882 14.148987 -11.84882z" fill-rule="evenodd"></path><path stroke="#000000" stroke-width="1.0" stroke-linejoin="round" stroke-linecap="butt" d="m484.26923 59.175884l59.64972 0l0 0c7.81427 0 14.148987 5.3048973 14.148987 11.84882c0 6.5439224 -6.334717 11.848816 -14.148987 11.848816l-59.64972 0l0 0c-7.81427 0 -14.148987 -5.3048935 -14.148987 -11.848816c0 -6.5439224 6.334717 -11.84882 14.148987 -11.84882z" fill-rule="evenodd"></path><path fill="#0000ff" d="m511.52536 75.8247l-1.140625 0l0 -7.28125q-0.421875 0.390625 -1.09375 0.796875q-0.65625 0.390625 -1.1875 0.578125l0 -1.109375q0.953125 -0.4375 1.671875 -1.078125q0.71875 -0.640625 1.015625 -1.25l0.734375 0l0 9.34375zm3.115631 -4.59375q0 -1.640625 0.328125 -2.640625q0.34375 -1.015625 1.015625 -1.5625q0.671875 -0.546875 1.6875 -0.546875q0.75 0 1.3125 0.3125q0.5625 0.296875 0.921875 0.859375q0.375 0.5625 0.578125 1.390625q0.21875 0.8125 0.21875 2.1875q0 1.640625 -0.34375 2.65625q-0.328125 1.0 -1.0 1.546875q-0.671875 0.546875 -1.6875 0.546875q-1.34375 0 -2.125 -0.96875q-0.90625 -1.15625 -0.90625 -3.78125zm1.171875 0q0 2.296875 0.53125 3.0625q0.53125 0.75 1.328125 0.75q0.78125 0 1.3125 -0.75q0.546875 -0.765625 0.546875 -3.0625q0 -2.296875 -0.546875 -3.046875q-0.53125 -0.75 -1.328125 -0.75q-0.78125 0 -1.265625 0.65625q-0.578125 0.859375 -0.578125 3.140625z" fill-rule="nonzero"></path><path fill="#ffffff" d="m484.26923 150.18793l59.64972 0l0 0c7.81427 0 14.148987 5.304901 14.148987 11.848816c0 6.54393 -6.334717 11.848816 -14.148987 11.848816l-59.64972 0l0 0c-7.81427 0 -14.148987 -5.304886 -14.148987 -11.848816c0 -6.543915 6.334717 -11.848816 14.148987 -11.848816z" fill-rule="evenodd"></path><path stroke="#000000" stroke-width="1.0" stroke-linejoin="round" stroke-linecap="butt" d="m484.26923 150.18793l59.64972 0l0 0c7.81427 0 14.148987 5.304901 14.148987 11.848816c0 6.54393 -6.334717 11.848816 -14.148987 11.848816l-59.64972 0l0 0c-7.81427 0 -14.148987 -5.304886 -14.148987 -11.848816c0 -6.543915 6.334717 -11.848816 14.148987 -11.848816z" fill-rule="evenodd"></path><path fill="#0000ff" d="m511.52536 166.83675l-1.140625 0l0 -7.28125q-0.421875 0.390625 -1.09375 0.796875q-0.65625 0.390625 -1.1875 0.578125l0 -1.109375q0.953125 -0.4375 1.671875 -1.078125q0.71875 -0.640625 1.015625 -1.25l0.734375 0l0 9.34375zm9.115631 -1.09375l0 1.09375l-6.15625 0q-0.015625 -0.40625 0.140625 -0.796875q0.234375 -0.625 0.75 -1.234375q0.515625 -0.609375 1.5 -1.40625q1.515625 -1.25 2.046875 -1.96875q0.53125 -0.734375 0.53125 -1.375q0 -0.6875 -0.484375 -1.140625q-0.484375 -0.46875 -1.265625 -0.46875q-0.828125 0 -1.328125 0.5q-0.484375 0.484375 -0.5 1.359375l-1.171875 -0.125q0.125 -1.3125 0.90625 -2.0q0.78125 -0.6875 2.109375 -0.6875q1.34375 0 2.125 0.75q0.78125 0.734375 0.78125 1.828125q0 0.5625 -0.234375 1.109375q-0.21875 0.53125 -0.75 1.140625q-0.53125 0.59375 -1.765625 1.625q-1.03125 0.859375 -1.328125 1.171875q-0.28125 0.3125 -0.46875 0.625l4.5625 0z" fill-rule="nonzero"></path><path fill="#ffffff" d="m484.26923 123.00304l59.64972 0l0 0c7.81427 0 14.148987 5.304901 14.148987 11.848816c0 6.54393 -6.334717 11.848831 -14.148987 11.848831l-59.64972 0l0 0c-7.81427 0 -14.148987 -5.304901 -14.148987 -11.848831c0 -6.543915 6.334717 -11.848816 14.148987 -11.848816z" fill-rule="evenodd"></path><path stroke="#000000" stroke-width="1.0" stroke-linejoin="round" stroke-linecap="butt" d="m484.26923 123.00304l59.64972 0l0 0c7.81427 0 14.148987 5.304901 14.148987 11.848816c0 6.54393 -6.334717 11.848831 -14.148987 11.848831l-59.64972 0l0 0c-7.81427 0 -14.148987 -5.304901 -14.148987 -11.848831c0 -6.543915 6.334717 -11.848816 14.148987 -11.848816z" fill-rule="evenodd"></path><path fill="#0000ff" d="m511.52536 139.65186l-1.140625 0l0 -7.28125q-0.421875 0.390625 -1.09375 0.796875q-0.65625 0.390625 -1.1875 0.578125l0 -1.109375q0.953125 -0.4375 1.671875 -1.078125q0.71875 -0.640625 1.015625 -1.25l0.734375 0l0 9.34375zm7.412506 0l-1.140625 0l0 -7.28125q-0.421875 0.390625 -1.09375 0.796875q-0.65625 0.390625 -1.1875 0.578125l0 -1.109375q0.953125 -0.4375 1.671875 -1.078125q0.71875 -0.640625 1.015625 -1.25l0.734375 0l0 9.34375z" fill-rule="nonzero"></path><path fill="#000000" fill-opacity="0.0" d="m425.3744 91.02449l82.17325 0l0 6.929138l-82.17325 0z" fill-rule="evenodd"></path><path stroke="#000000" stroke-width="1.0" stroke-linejoin="round" stroke-linecap="butt" d="m425.3744 91.02449l82.17325 0l0 6.929138l-82.17325 0z" fill-rule="evenodd"></path><path fill="#000000" fill-opacity="0.0" d="m425.3744 108.46155l82.17325 0l0 6.9291306l-82.17325 0z" fill-rule="evenodd"></path><path stroke="#000000" stroke-width="1.0" stroke-linejoin="round" stroke-linecap="butt" d="m425.3744 108.46155l82.17325 0l0 6.9291306l-82.17325 0z" fill-rule="evenodd"></path><path fill="#000000" fill-opacity="0.0" d="m198.4873 34.286552l13.039368 0l0 138.3937l-13.039368 0z" fill-rule="evenodd"></path><path stroke="#000000" stroke-width="1.0" stroke-linejoin="round" stroke-linecap="butt" d="m198.4873 34.286552l13.039368 0l0 138.3937l-13.039368 0z" fill-rule="evenodd"></path><path fill="#000000" fill-opacity="0.0" d="m78.052315 91.047424l159.43307 0l0 6.9291306l-159.43307 0z" fill-rule="evenodd"></path><path stroke="#000000" stroke-width="1.0" stroke-linejoin="round" stroke-linecap="butt" d="m78.052315 91.047424l159.43307 0l0 6.9291306l-159.43307 0z" fill-rule="evenodd"></path><path fill="#000000" fill-opacity="0.0" d="m78.08596 108.99403l159.43307 0l0 6.9291306l-159.43307 0z" fill-rule="evenodd"></path><path stroke="#000000" stroke-width="1.0" stroke-linejoin="round" stroke-linecap="butt" d="m78.08596 108.99403l159.43307 0l0 6.9291306l-159.43307 0z" fill-rule="evenodd"></path><path fill="#ffffff" d="m175.671 30.263597l59.649734 0l0 0c7.81427 0 14.148987 5.3048954 14.148987 11.848818c0 6.5439224 -6.334717 11.84882 -14.148987 11.84882l-59.649734 0l0 0c-7.81427 0 -14.148987 -5.3048973 -14.148987 -11.84882c0 -6.5439224 6.334717 -11.848818 14.148987 -11.848818z" fill-rule="evenodd"></path><path stroke="#000000" stroke-width="1.0" stroke-linejoin="round" stroke-linecap="butt" d="m175.671 30.263597l59.649734 0l0 0c7.81427 0 14.148987 5.3048954 14.148987 11.848818c0 6.5439224 -6.334717 11.84882 -14.148987 11.84882l-59.649734 0l0 0c-7.81427 0 -14.148987 -5.3048973 -14.148987 -11.84882c0 -6.5439224 6.334717 -11.848818 14.148987 -11.848818z" fill-rule="evenodd"></path><path fill="#0000ff" d="m202.33652 44.45929l1.140625 -0.15625q0.203125 0.96875 0.671875 1.40625q0.46875 0.421875 1.15625 0.421875q0.796875 0 1.34375 -0.546875q0.5625 -0.5625 0.5625 -1.390625q0 -0.796875 -0.515625 -1.296875q-0.5 -0.515625 -1.296875 -0.515625q-0.328125 0 -0.8125 0.125l0.125 -1.0q0.125 0.015625 0.1875 0.015625q0.734375 0 1.3125 -0.375q0.59375 -0.390625 0.59375 -1.1875q0 -0.625 -0.4375 -1.03125q-0.421875 -0.421875 -1.09375 -0.421875q-0.671875 0 -1.109375 0.421875q-0.4375 0.421875 -0.578125 1.25l-1.140625 -0.203125q0.21875 -1.140625 0.953125 -1.765625q0.75 -0.640625 1.84375 -0.640625q0.765625 0 1.40625 0.328125q0.640625 0.328125 0.984375 0.890625q0.34375 0.5625 0.34375 1.203125q0 0.59375 -0.328125 1.09375q-0.328125 0.5 -0.953125 0.78125q0.8125 0.203125 1.265625 0.796875q0.46875 0.59375 0.46875 1.5q0 1.21875 -0.890625 2.078125q-0.890625 0.84375 -2.25 0.84375q-1.21875 0 -2.03125 -0.734375q-0.8125 -0.734375 -0.921875 -1.890625z" fill-rule="nonzero"></path><path fill="#ffffff" d="m174.2283 153.02106l59.649734 0l0 0c7.81427 0 14.148987 5.304901 14.148987 11.848831c0 6.543915 -6.334717 11.848816 -14.148987 11.848816l-59.649734 0l0 0c-7.81427 0 -14.148987 -5.304901 -14.148987 -11.848816c0 -6.54393 6.334717 -11.848831 14.148987 -11.848831z" fill-rule="evenodd"></path><path stroke="#000000" stroke-width="1.0" stroke-linejoin="round" stroke-linecap="butt" d="m174.2283 153.02106l59.649734 0l0 0c7.81427 0 14.148987 5.304901 14.148987 11.848831c0 6.543915 -6.334717 11.848816 -14.148987 11.848816l-59.649734 0l0 0c-7.81427 0 -14.148987 -5.304901 -14.148987 -11.848816c0 -6.54393 6.334717 -11.848831 14.148987 -11.848831z" fill-rule="evenodd"></path><path fill="#0000ff" d="m204.55005 169.66988l0 -2.234375l-4.03125 0l0 -1.046875l4.234375 -6.03125l0.9375 0l0 6.03125l1.265625 0l0 1.046875l-1.265625 0l0 2.234375l-1.140625 0zm0 -3.28125l0 -4.1875l-2.921875 4.1875l2.921875 0z" fill-rule="nonzero"></path><path fill="#000000" fill-opacity="0.0" d="m4.608924 82.28813l73.480316 0l0 42.3937l-73.480316 0z" fill-rule="evenodd"></path><path fill="#000000" d="m24.596586 108.28498l-1.046875 0l0 -4.84375q0 -0.609375 -0.59375 -1.015625q-0.578125 -0.421875 -1.421875 -0.421875q-0.875 0 -1.5 0.46875q-0.609375 0.46875 -0.609375 1.203125q0 0.59375 0.375 1.921875q0.28125 0.953125 0.28125 1.265625q0.0625 -0.109375 0.375 -0.46875q0.5 -0.578125 0.625 -0.828125q-0.359375 -0.125 -0.578125 -0.421875q-0.21875 -0.296875 -0.21875 -0.65625q0 -0.453125 0.328125 -0.78125q0.328125 -0.328125 0.78125 -0.328125q0.453125 0 0.78125 0.328125q0.34375 0.328125 0.34375 0.78125l0 0.046875q0 0.453125 -0.265625 0.953125q-0.265625 0.5 -1.1875 1.40625q-0.671875 0.640625 -0.828125 0.921875q-0.15625 0.265625 -0.15625 0.46875l-1.0625 0l0 -1.046875q0 -0.5625 -0.3125 -1.796875q-0.328125 -1.25 -0.328125 -1.828125q0 -1.015625 0.828125 -1.796875q0.84375 -0.78125 2.3125 -0.78125q1.40625 0 2.234375 0.6875q0.84375 0.671875 0.84375 1.703125l0 4.859375zm-3.203125 -3.40625q0.15625 0 0.265625 -0.109375q0.125 -0.125 0.125 -0.28125q0 -0.15625 -0.125 -0.265625q-0.109375 -0.125 -0.265625 -0.125q-0.15625 0 -0.28125 0.125q-0.109375 0.109375 -0.109375 0.265625q0 0.15625 0.109375 0.28125q0.125 0.109375 0.28125 0.109375zm4.3002777 -6.703125q-0.328125 0.859375 -1.203125 1.40625q-0.875 0.546875 -1.9375 0.546875l-0.46875 0l0 -0.515625q0.34375 -0.265625 0.546875 -0.671875q-0.3125 0 -0.53125 -0.21875q-0.234375 -0.21875 -0.234375 -0.53125q0 -0.3125 0.234375 -0.53125q0.21875 -0.21875 0.53125 -0.21875q0.375 0 0.625 0.234375q0.25 0.234375 0.25 0.671875q0 0.5 -0.53125 1.09375q1.625 -0.234375 2.1875 -1.890625l0.53125 0.625zm-3.0625 0.296875q0.109375 0 0.203125 -0.078125q0.078125 -0.078125 0.078125 -0.203125q0 -0.109375 -0.078125 -0.1875q-0.09375 -0.09375 -0.203125 -0.09375q-0.125 0 -0.203125 0.09375q-0.09375 0.078125 -0.09375 0.1875q0 0.125 0.09375 0.203125q0.078125 0.078125 0.203125 0.078125zm8.515625 9.8125l-1.046875 0l0 -4.640625q0 -0.734375 -0.390625 -1.1875q-0.375 -0.453125 -1.078125 -0.453125q-1.234375 0 -1.59375 1.25l-1.015625 -0.140625q0.484375 -2.078125 2.78125 -2.078125q2.34375 0 2.34375 2.578125l0 4.671875zm4.1432514 0l-1.109375 0l0 -5.078125q-0.1875 0.0625 -0.375 0.0625q-0.46875 0 -0.796875 -0.328125q-0.328125 -0.34375 -0.328125 -0.796875q0 -0.453125 0.328125 -0.78125q0.328125 -0.328125 0.796875 -0.328125q0.6875 0 1.0625 0.46875q0.375 0.453125 0.375 1.3125l0 4.546875q1.390625 -1.078125 2.5625 -1.53125l0 -4.734375l1.0625 0l0 4.640625q0.6875 0.109375 1.09375 0.515625q0.421875 0.40625 0.421875 0.921875q0 0.546875 -0.3125 0.859375q-0.296875 0.3125 -0.796875 0.3125q-1.46875 0 -1.46875 -1.796875q-1.15625 0.53125 -2.515625 1.734375zm-1.484375 -6.53125q-0.15625 0 -0.28125 0.125q-0.109375 0.109375 -0.109375 0.265625q0 0.15625 0.109375 0.28125q0.125 0.109375 0.28125 0.109375q0.140625 0 0.25 -0.109375q0.125 -0.125 0.125 -0.28125q0 -0.15625 -0.125 -0.265625q-0.109375 -0.125 -0.25 -0.125zm5.0625 4.703125l0 0.609375q0 0.25 0.109375 0.40625q0.125 0.15625 0.296875 0.15625q0.140625 0 0.25 -0.125q0.125 -0.140625 0.125 -0.328125q0 -0.25 -0.21875 -0.453125q-0.21875 -0.21875 -0.5625 -0.265625zm7.906769 -3.03125q-0.609375 -0.640625 -0.609375 -1.203125q0 -0.546875 0.34375 -0.859375q0.34375 -0.328125 0.859375 -0.328125q0.515625 0 0.859375 0.3125q0.34375 0.3125 0.34375 0.875q0 0.625 -0.671875 1.21875q0.328125 0.484375 0.328125 1.0625l0 3.78125l-1.046875 0l0 -3.765625q0 -0.21875 -0.078125 -0.46875q-2.171875 1.703125 -3.25 4.234375l-0.984375 0l0 -5.078125q-0.1875 0.0625 -0.375 0.0625q-0.46875 0 -0.796875 -0.328125q-0.328125 -0.34375 -0.328125 -0.796875q0 -0.453125 0.328125 -0.78125q0.328125 -0.328125 0.796875 -0.328125q0.6875 0 1.0625 0.46875q0.375 0.453125 0.375 1.3125l0 3.703125q0.890625 -1.6875 2.84375 -3.09375zm0.640625 -0.46875q0.421875 -0.3125 0.421875 -0.734375q0 -0.484375 -0.46875 -0.484375q-0.46875 0 -0.46875 0.484375q0 0.28125 0.515625 0.734375zm-4.921875 -0.421875q0.140625 0 0.25 -0.109375q0.125 -0.125 0.125 -0.28125q0 -0.15625 -0.125 -0.265625q-0.109375 -0.125 -0.25 -0.125q-0.15625 0 -0.28125 0.125q-0.109375 0.109375 -0.109375 0.265625q0 0.15625 0.109375 0.28125q0.125 0.109375 0.28125 0.109375zm10.198425 5.75l-1.109375 0l0 -5.078125q-0.1875 0.0625 -0.375 0.0625q-0.46875 0 -0.796875 -0.328125q-0.328125 -0.34375 -0.328125 -0.796875q0 -0.453125 0.328125 -0.78125q0.328125 -0.328125 0.796875 -0.328125q0.6875 0 1.0625 0.46875q0.375 0.453125 0.375 1.3125l0 4.546875q1.390625 -1.078125 2.5625 -1.53125l0 -4.734375l1.0625 0l0 4.640625q0.6875 0.109375 1.09375 0.515625q0.421875 0.40625 0.421875 0.921875q0 0.546875 -0.3125 0.859375q-0.296875 0.3125 -0.796875 0.3125q-1.46875 0 -1.46875 -1.796875q-1.15625 0.53125 -2.515625 1.734375zm-1.484375 -6.53125q-0.15625 0 -0.28125 0.125q-0.109375 0.109375 -0.109375 0.265625q0 0.15625 0.109375 0.28125q0.125 0.109375 0.28125 0.109375q0.140625 0 0.25 -0.109375q0.125 -0.125 0.125 -0.28125q0 -0.15625 -0.125 -0.265625q-0.109375 -0.125 -0.25 -0.125zm5.0625 4.703125l0 0.609375q0 0.25 0.109375 0.40625q0.125 0.15625 0.296875 0.15625q0.140625 0 0.25 -0.125q0.125 -0.140625 0.125 -0.328125q0 -0.25 -0.21875 -0.453125q-0.21875 -0.21875 -0.5625 -0.265625zm2.1255188 -8.28125q-0.328125 0.859375 -1.203125 1.40625q-0.875 0.546875 -1.9375 0.546875l-0.46875 0l0 -0.515625q0.34375 -0.265625 0.546875 -0.671875q-0.3125 0 -0.53125 -0.21875q-0.234375 -0.21875 -0.234375 -0.53125q0 -0.3125 0.234375 -0.53125q0.21875 -0.21875 0.53125 -0.21875q0.375 0 0.625 0.234375q0.25 0.234375 0.25 0.671875q0 0.5 -0.53125 1.09375q1.625 -0.234375 2.1875 -1.890625l0.53125 0.625zm-3.0625 0.296875q0.109375 0 0.203125 -0.078125q0.078125 -0.078125 0.078125 -0.203125q0 -0.109375 -0.078125 -0.1875q-0.09375 -0.09375 -0.203125 -0.09375q-0.125 0 -0.203125 0.09375q-0.09375 0.078125 -0.09375 0.1875q0 0.125 0.09375 0.203125q0.078125 0.078125 0.203125 0.078125zm8.515625 9.8125l-1.046875 0l0 -4.640625q0 -0.734375 -0.390625 -1.1875q-0.375 -0.453125 -1.078125 -0.453125q-1.234375 0 -1.59375 1.25l-1.015625 -0.140625q0.484375 -2.078125 2.78125 -2.078125q2.34375 0 2.34375 2.578125l0 4.671875z" fill-rule="nonzero"></path><path fill="#000000" fill-opacity="0.0" d="m551.66437 77.83715l69.700806 0l0 51.30709l-69.700806 0z" fill-rule="evenodd"></path><path fill="#000000" d="m570.4814 108.29069l-1.046875 0l0 -4.84375q0 -0.609375 -0.59375 -1.015625q-0.578125 -0.421875 -1.421875 -0.421875q-0.875 0 -1.5 0.46875q-0.609375 0.46875 -0.609375 1.203125q0 0.59375 0.375 1.921875q0.28125 0.953125 0.28125 1.265625q0.0625 -0.109375 0.375 -0.46875q0.5 -0.578125 0.625 -0.828125q-0.359375 -0.125 -0.578125 -0.421875q-0.21875 -0.296875 -0.21875 -0.65625q0 -0.453125 0.328125 -0.78125q0.328125 -0.328125 0.78125 -0.328125q0.453125 0 0.78125 0.328125q0.34375 0.328125 0.34375 0.78125l0 0.046875q0 0.453125 -0.265625 0.953125q-0.265625 0.5 -1.1875 1.40625q-0.671875 0.640625 -0.828125 0.921875q-0.15625 0.265625 -0.15625 0.46875l-1.0625 0l0 -1.046875q0 -0.5625 -0.3125 -1.796875q-0.328125 -1.25 -0.328125 -1.828125q0 -1.015625 0.828125 -1.796875q0.84375 -0.78125 2.3125 -0.78125q1.40625 0 2.234375 0.6875q0.84375 0.671875 0.84375 1.703125l0 4.859375zm-3.203125 -3.40625q0.15625 0 0.265625 -0.109375q0.125 -0.125 0.125 -0.28125q0 -0.15625 -0.125 -0.265625q-0.109375 -0.125 -0.265625 -0.125q-0.15625 0 -0.28125 0.125q-0.109375 0.109375 -0.109375 0.265625q0 0.15625 0.109375 0.28125q0.125 0.109375 0.28125 0.109375zm4.300293 -6.703125q-0.328125 0.859375 -1.203125 1.40625q-0.875 0.546875 -1.9375 0.546875l-0.46875 0l0 -0.515625q0.34375 -0.265625 0.546875 -0.671875q-0.3125 0 -0.53125 -0.21875q-0.234375 -0.21875 -0.234375 -0.53125q0 -0.3125 0.234375 -0.53125q0.21875 -0.21875 0.53125 -0.21875q0.375 0 0.625 0.234375q0.25 0.234375 0.25 0.671875q0 0.5 -0.53125 1.09375q1.625 -0.234375 2.1875 -1.890625l0.53125 0.625zm-3.0625 0.296875q0.109375 0 0.203125 -0.078125q0.078125 -0.078125 0.078125 -0.203125q0 -0.109375 -0.078125 -0.1875q-0.09375 -0.09375 -0.203125 -0.09375q-0.125 0 -0.203125 0.09375q-0.09375 0.078125 -0.09375 0.1875q0 0.125 0.09375 0.203125q0.078125 0.078125 0.203125 0.078125zm8.515625 9.8125l-1.046875 0l0 -4.640625q0 -0.734375 -0.390625 -1.1875q-0.375 -0.453125 -1.078125 -0.453125q-1.234375 0 -1.59375 1.25l-1.015625 -0.140625q0.484375 -2.078125 2.78125 -2.078125q2.34375 0 2.34375 2.578125l0 4.671875zm4.1432495 0l-1.109375 0l0 -5.078125q-0.1875 0.0625 -0.375 0.0625q-0.46875 0 -0.796875 -0.328125q-0.328125 -0.34375 -0.328125 -0.796875q0 -0.453125 0.328125 -0.78125q0.328125 -0.328125 0.796875 -0.328125q0.6875 0 1.0625 0.46875q0.375 0.453125 0.375 1.3125l0 4.546875q1.390625 -1.078125 2.5625 -1.53125l0 -4.734375l1.0625 0l0 4.640625q0.6875 0.109375 1.09375 0.515625q0.421875 0.40625 0.421875 0.921875q0 0.546875 -0.3125 0.859375q-0.296875 0.3125 -0.796875 0.3125q-1.46875 0 -1.46875 -1.796875q-1.15625 0.53125 -2.515625 1.734375zm-1.484375 -6.53125q-0.15625 0 -0.28125 0.125q-0.109375 0.109375 -0.109375 0.265625q0 0.15625 0.109375 0.28125q0.125 0.109375 0.28125 0.109375q0.140625 0 0.25 -0.109375q0.125 -0.125 0.125 -0.28125q0 -0.15625 -0.125 -0.265625q-0.109375 -0.125 -0.25 -0.125zm5.0625 4.703125l0 0.609375q0 0.25 0.109375 0.40625q0.125 0.15625 0.296875 0.15625q0.140625 0 0.25 -0.125q0.125 -0.140625 0.125 -0.328125q0 -0.25 -0.21875 -0.453125q-0.21875 -0.21875 -0.5625 -0.265625zm7.9067993 -3.03125q-0.609375 -0.640625 -0.609375 -1.203125q0 -0.546875 0.34375 -0.859375q0.34375 -0.328125 0.859375 -0.328125q0.515625 0 0.859375 0.3125q0.34375 0.3125 0.34375 0.875q0 0.625 -0.671875 1.21875q0.328125 0.484375 0.328125 1.0625l0 3.78125l-1.046875 0l0 -3.765625q0 -0.21875 -0.078125 -0.46875q-2.171875 1.703125 -3.25 4.234375l-0.984375 0l0 -5.078125q-0.1875 0.0625 -0.375 0.0625q-0.46875 0 -0.796875 -0.328125q-0.328125 -0.34375 -0.328125 -0.796875q0 -0.453125 0.328125 -0.78125q0.328125 -0.328125 0.796875 -0.328125q0.6875 0 1.0625 0.46875q0.375 0.453125 0.375 1.3125l0 3.703125q0.890625 -1.6875 2.84375 -3.09375zm0.640625 -0.46875q0.421875 -0.3125 0.421875 -0.734375q0 -0.484375 -0.46875 -0.484375q-0.46875 0 -0.46875 0.484375q0 0.28125 0.515625 0.734375zm-4.921875 -0.421875q0.140625 0 0.25 -0.109375q0.125 -0.125 0.125 -0.28125q0 -0.15625 -0.125 -0.265625q-0.109375 -0.125 -0.25 -0.125q-0.15625 0 -0.28125 0.125q-0.109375 0.109375 -0.109375 0.265625q0 0.15625 0.109375 0.28125q0.125 0.109375 0.28125 0.109375zm13.6828 5.75l-1.046875 0l0 -1.34375q-0.328125 -0.96875 -0.9375 -1.625q-0.609375 -0.671875 -1.3125 -0.671875q-0.609375 0 -0.921875 0.34375q-0.296875 0.328125 -0.296875 1.0l0 0.1875q0.1875 -0.0625 0.390625 -0.0625q0.453125 0 0.78125 0.328125q0.328125 0.328125 0.328125 0.796875q0 0.453125 -0.328125 0.78125q-0.328125 0.328125 -0.78125 0.328125q-0.703125 0 -1.078125 -0.453125q-0.375 -0.46875 -0.375 -1.328125l0 -0.59375q0 -1.0 0.609375 -1.609375q0.609375 -0.609375 1.6875 -0.609375q0.71875 0 1.3125 0.421875q0.609375 0.421875 0.921875 1.125l0 -1.65625q0 -0.765625 -0.40625 -1.203125q-0.40625 -0.4375 -1.453125 -0.4375q-0.828125 0 -1.328125 0.3125q-0.484375 0.3125 -0.65625 0.9375l-1.015625 -0.140625q0.21875 -1.046875 1.0 -1.5625q0.796875 -0.515625 2.171875 -0.515625q1.390625 0 2.0625 0.609375q0.671875 0.59375 0.671875 1.921875l0 4.71875zm-4.125 -0.65625q0.140625 0 0.265625 -0.109375q0.125 -0.125 0.125 -0.28125q0 -0.15625 -0.125 -0.265625q-0.125 -0.125 -0.265625 -0.125q-0.15625 0 -0.28125 0.125q-0.109375 0.109375 -0.109375 0.265625q0 0.15625 0.109375 0.28125q0.125 0.109375 0.28125 0.109375zm5.34729 -9.765625q-0.234375 1.0625 -0.96875 1.640625q-0.75 0.578125 -1.84375 0.578125q-0.90625 0 -1.46875 -0.421875q-0.578125 -0.421875 -0.578125 -1.046875q0 -0.4375 0.3125 -0.734375q0.296875 -0.3125 0.71875 -0.3125q0.421875 0 0.734375 0.3125q0.296875 0.296875 0.296875 0.71875q0 0.46875 -0.34375 0.75q0.09375 0.046875 0.328125 0.046875q1.734375 0 2.109375 -1.53125l0.703125 0zm-3.828125 1.078125q0.125 0 0.234375 -0.09375q0.09375 -0.109375 0.09375 -0.25q0 -0.140625 -0.09375 -0.234375q-0.109375 -0.109375 -0.234375 -0.109375q-0.140625 0 -0.234375 0.109375q-0.109375 0.09375 -0.109375 0.234375q0 0.140625 0.109375 0.25q0.09375 0.09375 0.234375 0.09375zm8.84375 7.671875q0 0.84375 -0.359375 1.296875q-0.359375 0.4375 -1.046875 0.4375q-0.484375 0 -0.828125 -0.296875q-0.34375 -0.3125 -0.640625 -1.078125q-0.65625 -1.65625 -0.875 -2.03125q-0.203125 -0.390625 -0.515625 -0.390625q-0.15625 0 -0.3125 0.046875l-0.234375 -0.9375q0.359375 -0.078125 0.53125 -0.078125q0.640625 0 1.03125 0.390625q0.40625 0.375 0.734375 1.25l0.5 1.328125q0.328125 0.90625 0.609375 0.90625q0.359375 0 0.359375 -0.828125l0 -3.421875q-0.203125 0.0625 -0.390625 0.0625q-0.453125 0 -0.78125 -0.328125q-0.328125 -0.34375 -0.328125 -0.796875q0 -0.453125 0.328125 -0.78125q0.328125 -0.328125 0.78125 -0.328125q0.6875 0 1.0625 0.46875q0.375 0.46875 0.375 1.3125l0 3.796875zm-1.4375 -4.078125q0.15625 0 0.265625 -0.109375q0.125 -0.125 0.125 -0.28125q0 -0.15625 -0.125 -0.265625q-0.109375 -0.125 -0.265625 -0.125q-0.15625 0 -0.28125 0.125q-0.109375 0.109375 -0.109375 0.265625q0 0.15625 0.109375 0.28125q0.125 0.109375 0.28125 0.109375z" fill-rule="nonzero"></path><path fill="#000000" fill-opacity="0.0" d="m261.157 24.687664l87.968506 0l0 51.307087l-87.968506 0z" fill-rule="evenodd"></path><path fill="#000000" d="m301.51147 53.82871q0 0.859375 -0.296875 1.09375q-0.28125 0.21875 -1.1875 0.21875l-3.359375 0l0 -0.890625l0.90625 0l0 -3.28125q0 -0.765625 0.59375 -1.1875q0 -0.40625 -0.359375 -0.75q-0.34375 -0.359375 -0.96875 -0.359375q-0.515625 0 -0.875 0.203125q-0.359375 0.203125 -0.453125 0.5q0.15625 -0.046875 0.46875 -0.046875q0.453125 0 0.78125 0.34375q0.34375 0.328125 0.34375 0.78125q0 0.453125 -0.34375 0.78125q-0.328125 0.328125 -0.78125 0.328125q-0.65625 0 -1.09375 -0.484375q-0.4375 -0.5 -0.4375 -1.234375q0 -0.890625 0.703125 -1.421875q0.71875 -0.53125 1.6875 -0.53125q1.015625 0 1.6875 0.53125q0.6875 0.515625 0.6875 1.359375q-0.578125 0.421875 -0.578125 1.1875l0 3.28125l1.484375 0q0.34375 0 0.34375 -0.421875l0 -5.875l1.046875 0l0 5.875zm-5.53125 -2.984375q0.15625 0 0.265625 -0.109375q0.125 -0.125 0.125 -0.28125q0 -0.15625 -0.125 -0.265625q-0.109375 -0.125 -0.265625 -0.125q-0.15625 0 -0.28125 0.125q-0.109375 0.109375 -0.109375 0.265625q0 0.15625 0.109375 0.28125q0.125 0.109375 0.28125 0.109375zm12.479706 2.578125q0 0.859375 -0.375 1.328125q-0.375 0.453125 -1.0625 0.453125q-0.453125 0 -0.78125 -0.328125q-0.328125 -0.328125 -0.328125 -0.78125q0 -0.46875 0.328125 -0.796875q0.328125 -0.328125 0.78125 -0.328125q0.1875 0 0.390625 0.0625l0 -2.53125q0 -0.765625 -0.359375 -1.203125q-0.359375 -0.4375 -1.3125 -0.4375q-1.4375 0 -1.765625 1.25l-1.03125 -0.140625q0.421875 -2.078125 2.96875 -2.078125q2.546875 0 2.546875 2.53125l0 3.0zm-1.4375 1.0625q0.15625 0 0.265625 -0.109375q0.125 -0.125 0.125 -0.28125q0 -0.15625 -0.125 -0.265625q-0.109375 -0.125 -0.265625 -0.125q-0.15625 0 -0.28125 0.125q-0.109375 0.109375 -0.109375 0.265625q0 0.15625 0.109375 0.28125q0.125 0.109375 0.28125 0.109375zm8.058502 0.65625l-1.046875 0l0 -4.640625q0 -0.734375 -0.390625 -1.1875q-0.375 -0.453125 -1.078125 -0.453125q-1.234375 0 -1.59375 1.25l-1.015625 -0.140625q0.484375 -2.078125 2.78125 -2.078125q2.34375 0 2.34375 2.578125l0 4.671875z" fill-rule="nonzero"></path><path fill="#000000" fill-opacity="0.0" d="m261.157 130.99173l87.968506 0l0 51.307083l-87.968506 0z" fill-rule="evenodd"></path><path fill="#000000" d="m301.84702 153.91402q0 0.734375 -0.46875 1.25q-0.453125 0.5 -1.203125 0.703125q0.875 0.515625 0.875 1.328125l0 2.9375q0 0.859375 -0.296875 1.09375q-0.28125 0.21875 -1.1875 0.21875l-3.359375 0l0 -0.890625l0.921875 0l0 -3.296875q0 -0.75 0.921875 -1.296875q0 -0.25 -0.265625 -0.515625q-0.25 -0.28125 -0.578125 -0.390625l-0.828125 0.6875l-0.8125 -0.671875q-0.296875 0.09375 -0.515625 0.359375q-0.21875 0.265625 -0.21875 0.546875l0.46875 -0.03125q0.453125 0 0.78125 0.328125q0.34375 0.328125 0.34375 0.796875q0 0.453125 -0.34375 0.78125q-0.328125 0.328125 -0.78125 0.328125q-0.640625 0 -1.09375 -0.5q-0.4375 -0.5 -0.4375 -1.21875q0 -0.84375 0.46875 -1.46875q0.484375 -0.625 1.328125 -0.8125l0.8125 0.65625l0.828125 -0.671875q1.3125 0.25 1.796875 1.4375q0.828125 -0.203125 1.296875 -0.65625q0.484375 -0.453125 0.484375 -1.046875l0 -0.140625l1.0625 0l0 0.15625zm-1.859375 6.25l0 -2.875q0 -0.71875 -0.953125 -1.171875q-0.859375 0.421875 -0.859375 1.140625l0 3.296875l1.484375 0q0.328125 0 0.328125 -0.390625zm-4.6875 -2.71875q0.15625 0 0.265625 -0.109375q0.125 -0.125 0.125 -0.265625q0 -0.15625 -0.125 -0.28125q-0.109375 -0.125 -0.265625 -0.125q-0.15625 0 -0.28125 0.125q-0.109375 0.125 -0.109375 0.28125q0 0.140625 0.109375 0.265625q0.125 0.109375 0.28125 0.109375zm7.172241 -6.109375q-0.328125 0.859375 -1.203125 1.40625q-0.875 0.546875 -1.9375 0.546875l-0.46875 0l0 -0.515625q0.34375 -0.265625 0.546875 -0.671875q-0.3125 0 -0.53125 -0.21875q-0.234375 -0.21875 -0.234375 -0.53125q0 -0.3125 0.234375 -0.53125q0.21875 -0.21875 0.53125 -0.21875q0.375 0 0.625 0.234375q0.25 0.234375 0.25 0.671875q0 0.5 -0.53125 1.09375q1.625 -0.234375 2.1875 -1.890625l0.53125 0.625zm-3.0625 0.296875q0.109375 0 0.203125 -0.078125q0.078125 -0.078125 0.078125 -0.203125q0 -0.109375 -0.078125 -0.1875q-0.09375 -0.09375 -0.203125 -0.09375q-0.125 0 -0.203125 0.09375q-0.09375 0.078125 -0.09375 0.1875q0 0.125 0.09375 0.203125q0.078125 0.078125 0.203125 0.078125zm8.515625 9.8125l-1.046875 0l0 -4.640625q0 -0.734375 -0.390625 -1.1875q-0.375 -0.453125 -1.078125 -0.453125q-1.234375 0 -1.59375 1.25l-1.015625 -0.140625q0.484375 -2.078125 2.78125 -2.078125q2.34375 0 2.34375 2.578125l0 4.671875zm7.8151245 -1.3125q0 0.859375 -0.296875 1.09375q-0.28125 0.21875 -1.1875 0.21875l-2.734375 0q-0.90625 0 -1.1875 -0.21875q-0.28125 -0.234375 -0.28125 -1.09375l0 -1.0625q0 -0.5625 0.28125 -0.921875q0.296875 -0.359375 0.8125 -0.4375q-1.09375 -0.203125 -1.09375 -1.34375l0 -0.390625q0 -0.828125 0.375 -1.296875q0.390625 -0.484375 1.0625 -0.484375q0.453125 0 0.78125 0.328125q0.328125 0.328125 0.328125 0.78125q0 0.453125 -0.328125 0.796875q-0.328125 0.328125 -0.78125 0.328125q-0.1875 0 -0.390625 -0.0625q0 0.5 0.34375 0.78125q0.34375 0.265625 1.015625 0.265625l0 0.59375q-1.359375 0 -1.359375 1.203125l0 0.953125q0 0.390625 0.34375 0.390625l2.90625 0q0.34375 0 0.34375 -0.390625l0 -5.90625l1.046875 0l0 5.875zm-4.25 -4.4375q0.15625 0 0.265625 -0.109375q0.125 -0.125 0.125 -0.28125q0 -0.15625 -0.125 -0.265625q-0.109375 -0.125 -0.265625 -0.125q-0.15625 0 -0.28125 0.125q-0.109375 0.109375 -0.109375 0.265625q0 0.15625 0.109375 0.28125q0.125 0.109375 0.28125 0.109375z" fill-rule="nonzero"></path></g></svg>

