<?xml version="1.0" standalone="yes"?>

<svg version="1.1" viewBox="0.0 0.0 617.9632545931759 205.98687664041995" fill="none" stroke="none" stroke-linecap="square" stroke-miterlimit="10" xmlns="http://www.w3.org/2000/svg" xmlns:xlink="http://www.w3.org/1999/xlink"><clipPath id="p.0"><path d="m0 0l617.96326 0l0 205.98688l-617.96326 0l0 -205.98688z" clip-rule="nonzero"></path></clipPath><g clip-path="url(#p.0)"><path fill="#000000" fill-opacity="0.0" d="m0 0l617.96326 0l0 205.98688l-617.96326 0z" fill-rule="evenodd"></path><path fill="#000000" fill-opacity="0.0" d="m11.958005 13.6955385l593.22833 0l0 180.31496l-593.22833 0z" fill-rule="evenodd"></path><path stroke="#000000" stroke-width="1.0" stroke-linejoin="round" stroke-linecap="butt" d="m11.958005 13.6955385l593.22833 0l0 180.31496l-593.22833 0z" fill-rule="evenodd"></path><path fill="#000000" fill-opacity="0.0" d="m80.64042 98.18372l462.26773 0l0 11.338585l-462.26773 0z" fill-rule="evenodd"></path><path stroke="#000000" stroke-width="1.0" stroke-linejoin="round" stroke-linecap="butt" d="m80.64042 98.18372l462.26773 0l0 11.338585l-462.26773 0z" fill-rule="evenodd"></path><path fill="#000000" fill-opacity="0.0" d="m113.40157 32.560368l13.228348 0l0 142.58269l-13.228348 0z" fill-rule="evenodd"></path><path stroke="#000000" stroke-width="1.0" stroke-linejoin="round" stroke-linecap="butt" d="m113.40157 32.560368l13.228348 0l0 142.58269l-13.228348 0z" fill-rule="evenodd"></path><path fill="#ffffff" d="m89.79306 32.560368l60.445663 0l0 0c7.9185486 0 14.337799 5.4648056 14.337799 12.205986c0 6.7411766 -6.4192505 12.205982 -14.337799 12.205982l-60.445663 0l0 0c-7.9185486 0 -14.337799 -5.4648056 -14.337799 -12.205982c0 -6.7411804 6.4192505 -12.205986 14.337799 -12.205986z" fill-rule="evenodd"></path><path stroke="#000000" stroke-width="1.0" stroke-linejoin="round" stroke-linecap="butt" d="m89.79306 32.560368l60.445663 0l0 0c7.9185486 0 14.337799 5.4648056 14.337799 12.205986c0 6.7411766 -6.4192505 12.205982 -14.337799 12.205982l-60.445663 0l0 0c-7.9185486 0 -14.337799 -5.4648056 -14.337799 -12.205982c0 -6.7411804 6.4192505 -12.205986 14.337799 -12.205986z" fill-rule="evenodd"></path><path fill="#0000ff" d="m121.153404 49.566353l-1.140625 0l0 -7.28125q-0.421875 0.390625 -1.09375 0.796875q-0.65625 0.390625 -1.1875 0.578125l0 -1.109375q0.953125 -0.4375 1.671875 -1.078125q0.71875 -0.640625 1.015625 -1.25l0.734375 0l0 9.34375z" fill-rule="nonzero"></path><path fill="#000000" fill-opacity="0.0" d="m11.958005 85.53674l76.97637 0l0 43.685043l-76.97637 0z" fill-rule="evenodd"></path><path fill="#000000" d="m33.6937 107.33675l-1.046875 0l0 -4.84375q0 -0.609375 -0.59375 -1.015625q-0.5781231 -0.421875 -1.4218731 -0.421875q-0.875 0 -1.5 0.46875q-0.609375 0.46875 -0.609375 1.203125q0 0.59375 0.375 1.921875q0.28125 0.953125 0.28125 1.265625q0.0625 -0.109375 0.375 -0.46875q0.5 -0.578125 0.625 -0.828125q-0.359375 -0.125 -0.578125 -0.421875q-0.21875 -0.296875 -0.21875 -0.65625q0 -0.453125 0.328125 -0.78125q0.328125 -0.328125 0.78125 -0.328125q0.453125 0 0.78125 0.328125q0.34375 0.328125 0.34375 0.78125l0 0.046875q0 0.453125 -0.265625 0.953125q-0.265625 0.5 -1.1875 1.40625q-0.671875 0.640625 -0.828125 0.921875q-0.15625 0.265625 -0.15625 0.46875l-1.0625 0l0 -1.046875q0 -0.5625 -0.3125 -1.796875q-0.328125 -1.25 -0.328125 -1.828125q0 -1.015625 0.828125 -1.796875q0.84375 -0.78125 2.3125 -0.78125q1.4062481 0 2.234373 0.6875q0.84375 0.671875 0.84375 1.703125l0 4.859375zm-3.203123 -3.40625q0.15625 0 0.265625 -0.109375q0.125 -0.125 0.125 -0.28125q0 -0.15625 -0.125 -0.265625q-0.109375 -0.125 -0.265625 -0.125q-0.15625 0 -0.28125 0.125q-0.109375 0.109375 -0.109375 0.265625q0 0.15625 0.109375 0.28125q0.125 0.109375 0.28125 0.109375zm4.300276 -6.703125q-0.328125 0.859375 -1.203125 1.40625q-0.875 0.546875 -1.9374981 0.546875l-0.46875 0l0 -0.515625q0.34375 -0.265625 0.546875 -0.671875q-0.3125 0 -0.53125 -0.21875q-0.234375 -0.21875 -0.234375 -0.53125q0 -0.3125 0.234375 -0.53125q0.21875 -0.21875 0.53125 -0.21875q0.3749981 0 0.6249981 0.234375q0.25 0.234375 0.25 0.671875q0 0.5 -0.53125 1.09375q1.625 -0.234375 2.1875 -1.890625l0.53125 0.625zm-3.062498 0.296875q0.109375 0 0.203125 -0.078125q0.07812309 -0.078125 0.07812309 -0.203125q0 -0.109375 -0.07812309 -0.1875q-0.09375 -0.09375 -0.203125 -0.09375q-0.125 0 -0.203125 0.09375q-0.09375 0.078125 -0.09375 0.1875q0 0.125 0.09375 0.203125q0.078125 0.078125 0.203125 0.078125zm8.515623 9.8125l-1.046875 0l0 -4.640625q0 -0.734375 -0.390625 -1.1875q-0.375 -0.453125 -1.078125 -0.453125q-1.234375 0 -1.59375 1.25l-1.015625 -0.140625q0.484375 -2.078125 2.78125 -2.078125q2.34375 0 2.34375 2.578125l0 4.671875zm4.1432495 0l-1.109375 0l0 -5.078125q-0.1875 0.0625 -0.375 0.0625q-0.46875 0 -0.796875 -0.328125q-0.328125 -0.34375 -0.328125 -0.796875q0 -0.453125 0.328125 -0.78125q0.328125 -0.328125 0.796875 -0.328125q0.6875 0 1.0625 0.46875q0.375 0.453125 0.375 1.3125l0 4.546875q1.390625 -1.078125 2.5625 -1.53125l0 -4.734375l1.0625 0l0 4.640625q0.6875 0.109375 1.09375 0.515625q0.421875 0.40625 0.421875 0.921875q0 0.546875 -0.3125 0.859375q-0.296875 0.3125 -0.796875 0.3125q-1.46875 0 -1.46875 -1.796875q-1.15625 0.53125 -2.515625 1.734375zm-1.484375 -6.53125q-0.15625 0 -0.28125 0.125q-0.109375 0.109375 -0.109375 0.265625q0 0.15625 0.109375 0.28125q0.125 0.109375 0.28125 0.109375q0.140625 0 0.25 -0.109375q0.125 -0.125 0.125 -0.28125q0 -0.15625 -0.125 -0.265625q-0.109375 -0.125 -0.25 -0.125zm5.0625 4.703125l0 0.609375q0 0.25 0.109375 0.40625q0.125 0.15625 0.296875 0.15625q0.140625 0 0.25 -0.125q0.125 -0.140625 0.125 -0.328125q0 -0.25 -0.21875 -0.453125q-0.21875 -0.21875 -0.5625 -0.265625zm7.906769 -3.03125q-0.609375 -0.640625 -0.609375 -1.203125q0 -0.546875 0.34375 -0.859375q0.34375 -0.328125 0.859375 -0.328125q0.515625 0 0.859375 0.3125q0.34375 0.3125 0.34375 0.875q0 0.625 -0.671875 1.21875q0.328125 0.484375 0.328125 1.0625l0 3.78125l-1.046875 0l0 -3.765625q0 -0.21875 -0.078125 -0.46875q-2.171875 1.703125 -3.25 4.234375l-0.984375 0l0 -5.078125q-0.1875 0.0625 -0.375 0.0625q-0.46875 0 -0.796875 -0.328125q-0.328125 -0.34375 -0.328125 -0.796875q0 -0.453125 0.328125 -0.78125q0.328125 -0.328125 0.796875 -0.328125q0.6875 0 1.0625 0.46875q0.375 0.453125 0.375 1.3125l0 3.703125q0.890625 -1.6875 2.84375 -3.09375zm0.640625 -0.46875q0.421875 -0.3125 0.421875 -0.734375q0 -0.484375 -0.46875 -0.484375q-0.46875 0 -0.46875 0.484375q0 0.28125 0.515625 0.734375zm-4.921875 -0.421875q0.140625 0 0.25 -0.109375q0.125 -0.125 0.125 -0.28125q0 -0.15625 -0.125 -0.265625q-0.109375 -0.125 -0.25 -0.125q-0.15625 0 -0.28125 0.125q-0.109375 0.109375 -0.109375 0.265625q0 0.15625 0.109375 0.28125q0.125 0.109375 0.28125 0.109375zm10.198425 5.75l-1.109375 0l0 -5.078125q-0.1875 0.0625 -0.375 0.0625q-0.46875 0 -0.796875 -0.328125q-0.328125 -0.34375 -0.328125 -0.796875q0 -0.453125 0.328125 -0.78125q0.328125 -0.328125 0.796875 -0.328125q0.6875 0 1.0625 0.46875q0.375 0.453125 0.375 1.3125l0 4.546875q1.390625 -1.078125 2.5625038 -1.53125l0 -4.734375l1.0625 0l0 4.640625q0.6875 0.109375 1.09375 0.515625q0.421875 0.40625 0.421875 0.921875q0 0.546875 -0.3125 0.859375q-0.296875 0.3125 -0.796875 0.3125q-1.46875 0 -1.46875 -1.796875q-1.1562538 0.53125 -2.5156288 1.734375zm-1.484375 -6.53125q-0.15625 0 -0.28125 0.125q-0.109375 0.109375 -0.109375 0.265625q0 0.15625 0.109375 0.28125q0.125 0.109375 0.28125 0.109375q0.140625 0 0.25 -0.109375q0.125 -0.125 0.125 -0.28125q0 -0.15625 -0.125 -0.265625q-0.109375 -0.125 -0.25 -0.125zm5.062504 4.703125l0 0.609375q0 0.25 0.109375 0.40625q0.125 0.15625 0.296875 0.15625q0.140625 0 0.25 -0.125q0.125 -0.140625 0.125 -0.328125q0 -0.25 -0.21875 -0.453125q-0.21875 -0.21875 -0.5625 -0.265625zm2.1255188 -8.28125q-0.328125 0.859375 -1.203125 1.40625q-0.875 0.546875 -1.9375 0.546875l-0.4687538 0l0 -0.515625q0.3437538 -0.265625 0.5468788 -0.671875q-0.3125 0 -0.5312538 -0.21875q-0.234375 -0.21875 -0.234375 -0.53125q0 -0.3125 0.234375 -0.53125q0.21875381 -0.21875 0.5312538 -0.21875q0.375 0 0.625 0.234375q0.25 0.234375 0.25 0.671875q0 0.5 -0.53125 1.09375q1.625 -0.234375 2.1875 -1.890625l0.53125 0.625zm-3.0625 0.296875q0.109375 0 0.203125 -0.078125q0.078125 -0.078125 0.078125 -0.203125q0 -0.109375 -0.078125 -0.1875q-0.09375 -0.09375 -0.203125 -0.09375q-0.125 0 -0.203125 0.09375q-0.09375 0.078125 -0.09375 0.1875q0 0.125 0.09375 0.203125q0.078125 0.078125 0.203125 0.078125zm8.515625 9.8125l-1.046875 0l0 -4.640625q0 -0.734375 -0.390625 -1.1875q-0.375 -0.453125 -1.078125 -0.453125q-1.234375 0 -1.59375 1.25l-1.015625 -0.140625q0.484375 -2.078125 2.78125 -2.078125q2.34375 0 2.34375 2.578125l0 4.671875z" fill-rule="nonzero"></path><path fill="#000000" fill-opacity="0.0" d="m534.90924 76.91878l76.97632 0l0 52.850388l-76.97632 0z" fill-rule="evenodd"></path><path fill="#000000" d="m557.364 108.143974l-1.046875 0l0 -4.84375q0 -0.609375 -0.59375 -1.015625q-0.578125 -0.421875 -1.421875 -0.421875q-0.875 0 -1.5 0.46875q-0.609375 0.46875 -0.609375 1.203125q0 0.59375 0.375 1.921875q0.28125 0.953125 0.28125 1.265625q0.0625 -0.109375 0.375 -0.46875q0.5 -0.578125 0.625 -0.828125q-0.359375 -0.125 -0.578125 -0.421875q-0.21875 -0.296875 -0.21875 -0.65625q0 -0.453125 0.328125 -0.78125q0.328125 -0.328125 0.78125 -0.328125q0.453125 0 0.78125 0.328125q0.34375 0.328125 0.34375 0.78125l0 0.046875q0 0.453125 -0.265625 0.953125q-0.265625 0.5 -1.1875 1.40625q-0.671875 0.640625 -0.828125 0.921875q-0.15625 0.265625 -0.15625 0.46875l-1.0625 0l0 -1.046875q0 -0.5625 -0.3125 -1.796875q-0.328125 -1.25 -0.328125 -1.828125q0 -1.015625 0.828125 -1.796875q0.84375 -0.78125 2.3125 -0.78125q1.40625 0 2.234375 0.6875q0.84375 0.671875 0.84375 1.703125l0 4.859375zm-3.203125 -3.40625q0.15625 0 0.265625 -0.109375q0.125 -0.125 0.125 -0.28125q0 -0.15625 -0.125 -0.265625q-0.109375 -0.125 -0.265625 -0.125q-0.15625 0 -0.28125 0.125q-0.109375 0.109375 -0.109375 0.265625q0 0.15625 0.109375 0.28125q0.125 0.109375 0.28125 0.109375zm4.300293 -6.703125q-0.328125 0.859375 -1.203125 1.40625q-0.875 0.546875 -1.9375 0.546875l-0.46875 0l0 -0.515625q0.34375 -0.265625 0.546875 -0.671875q-0.3125 0 -0.53125 -0.21875q-0.234375 -0.21875 -0.234375 -0.53125q0 -0.3125 0.234375 -0.53125q0.21875 -0.21875 0.53125 -0.21875q0.375 0 0.625 0.234375q0.25 0.234375 0.25 0.671875q0 0.5 -0.53125 1.09375q1.625 -0.234375 2.1875 -1.890625l0.53125 0.625zm-3.0625 0.296875q0.109375 0 0.203125 -0.078125q0.078125 -0.078125 0.078125 -0.203125q0 -0.109375 -0.078125 -0.1875q-0.09375 -0.09375 -0.203125 -0.09375q-0.125 0 -0.203125 0.09375q-0.09375 0.078125 -0.09375 0.1875q0 0.125 0.09375 0.203125q0.078125 0.078125 0.203125 0.078125zm8.515625 9.8125l-1.046875 0l0 -4.640625q0 -0.734375 -0.390625 -1.1875q-0.375 -0.453125 -1.078125 -0.453125q-1.234375 0 -1.59375 1.25l-1.015625 -0.140625q0.484375 -2.078125 2.78125 -2.078125q2.34375 0 2.34375 2.578125l0 4.671875zm4.1432495 0l-1.109375 0l0 -5.078125q-0.1875 0.0625 -0.375 0.0625q-0.46875 0 -0.796875 -0.328125q-0.328125 -0.34375 -0.328125 -0.796875q0 -0.453125 0.328125 -0.78125q0.328125 -0.328125 0.796875 -0.328125q0.6875 0 1.0625 0.46875q0.375 0.453125 0.375 1.3125l0 4.546875q1.390625 -1.078125 2.5625 -1.53125l0 -4.734375l1.0625 0l0 4.640625q0.6875 0.109375 1.09375 0.515625q0.421875 0.40625 0.421875 0.921875q0 0.546875 -0.3125 0.859375q-0.296875 0.3125 -0.796875 0.3125q-1.46875 0 -1.46875 -1.796875q-1.15625 0.53125 -2.515625 1.734375zm-1.484375 -6.53125q-0.15625 0 -0.28125 0.125q-0.109375 0.109375 -0.109375 0.265625q0 0.15625 0.109375 0.28125q0.125 0.109375 0.28125 0.109375q0.140625 0 0.25 -0.109375q0.125 -0.125 0.125 -0.28125q0 -0.15625 -0.125 -0.265625q-0.109375 -0.125 -0.25 -0.125zm5.0625 4.703125l0 0.609375q0 0.25 0.109375 0.40625q0.125 0.15625 0.296875 0.15625q0.140625 0 0.25 -0.125q0.125 -0.140625 0.125 -0.328125q0 -0.25 -0.21875 -0.453125q-0.21875 -0.21875 -0.5625 -0.265625zm7.9067383 -3.03125q-0.609375 -0.640625 -0.609375 -1.203125q0 -0.546875 0.34375 -0.859375q0.34375 -0.328125 0.859375 -0.328125q0.515625 0 0.859375 0.3125q0.34375 0.3125 0.34375 0.875q0 0.625 -0.671875 1.21875q0.328125 0.484375 0.328125 1.0625l0 3.78125l-1.046875 0l0 -3.765625q0 -0.21875 -0.078125 -0.46875q-2.171875 1.703125 -3.25 4.234375l-0.984375 0l0 -5.078125q-0.1875 0.0625 -0.375 0.0625q-0.46875 0 -0.796875 -0.328125q-0.328125 -0.34375 -0.328125 -0.796875q0 -0.453125 0.328125 -0.78125q0.328125 -0.328125 0.796875 -0.328125q0.6875 0 1.0625 0.46875q0.375 0.453125 0.375 1.3125l0 3.703125q0.890625 -1.6875 2.84375 -3.09375zm0.640625 -0.46875q0.421875 -0.3125 0.421875 -0.734375q0 -0.484375 -0.46875 -0.484375q-0.46875 0 -0.46875 0.484375q0 0.28125 0.515625 0.734375zm-4.921875 -0.421875q0.140625 0 0.25 -0.109375q0.125 -0.125 0.125 -0.28125q0 -0.15625 -0.125 -0.265625q-0.109375 -0.125 -0.25 -0.125q-0.15625 0 -0.28125 0.125q-0.109375 0.109375 -0.109375 0.265625q0 0.15625 0.109375 0.28125q0.125 0.109375 0.28125 0.109375zm13.6828 5.75l-1.046875 0l0 -1.34375q-0.328125 -0.96875 -0.9375 -1.625q-0.609375 -0.671875 -1.3125 -0.671875q-0.609375 0 -0.921875 0.34375q-0.296875 0.328125 -0.296875 1.0l0 0.1875q0.1875 -0.0625 0.390625 -0.0625q0.453125 0 0.78125 0.328125q0.328125 0.328125 0.328125 0.796875q0 0.453125 -0.328125 0.78125q-0.328125 0.328125 -0.78125 0.328125q-0.703125 0 -1.078125 -0.453125q-0.375 -0.46875 -0.375 -1.328125l0 -0.59375q0 -1.0 0.609375 -1.609375q0.609375 -0.609375 1.6875 -0.609375q0.71875 0 1.3125 0.421875q0.609375 0.421875 0.921875 1.125l0 -1.65625q0 -0.765625 -0.40625 -1.203125q-0.40625 -0.4375 -1.453125 -0.4375q-0.828125 0 -1.328125 0.3125q-0.484375 0.3125 -0.65625 0.9375l-1.015625 -0.140625q0.21875 -1.046875 1.0 -1.5625q0.796875 -0.515625 2.171875 -0.515625q1.390625 0 2.0625 0.609375q0.671875 0.59375 0.671875 1.921875l0 4.71875zm-4.125 -0.65625q0.140625 0 0.265625 -0.109375q0.125 -0.125 0.125 -0.28125q0 -0.15625 -0.125 -0.265625q-0.125 -0.125 -0.265625 -0.125q-0.15625 0 -0.28125 0.125q-0.109375 0.109375 -0.109375 0.265625q0 0.15625 0.109375 0.28125q0.125 0.109375 0.28125 0.109375zm5.347351 -9.765625q-0.234375 1.0625 -0.96875 1.640625q-0.75 0.578125 -1.84375 0.578125q-0.90625 0 -1.46875 -0.421875q-0.578125 -0.421875 -0.578125 -1.046875q0 -0.4375 0.3125 -0.734375q0.296875 -0.3125 0.71875 -0.3125q0.421875 0 0.734375 0.3125q0.296875 0.296875 0.296875 0.71875q0 0.46875 -0.34375 0.75q0.09375 0.046875 0.328125 0.046875q1.734375 0 2.109375 -1.53125l0.703125 0zm-3.828125 1.078125q0.125 0 0.234375 -0.09375q0.09375 -0.109375 0.09375 -0.25q0 -0.140625 -0.09375 -0.234375q-0.109375 -0.109375 -0.234375 -0.109375q-0.140625 0 -0.234375 0.109375q-0.109375 0.09375 -0.109375 0.234375q0 0.140625 0.109375 0.25q0.09375 0.09375 0.234375 0.09375zm8.84375 7.671875q0 0.84375 -0.359375 1.296875q-0.359375 0.4375 -1.046875 0.4375q-0.484375 0 -0.828125 -0.296875q-0.34375 -0.3125 -0.640625 -1.078125q-0.65625 -1.65625 -0.875 -2.03125q-0.203125 -0.390625 -0.515625 -0.390625q-0.15625 0 -0.3125 0.046875l-0.234375 -0.9375q0.359375 -0.078125 0.53125 -0.078125q0.640625 0 1.03125 0.390625q0.40625 0.375 0.734375 1.25l0.5 1.328125q0.328125 0.90625 0.609375 0.90625q0.359375 0 0.359375 -0.828125l0 -3.421875q-0.203125 0.0625 -0.390625 0.0625q-0.453125 0 -0.78125 -0.328125q-0.328125 -0.34375 -0.328125 -0.796875q0 -0.453125 0.328125 -0.78125q0.328125 -0.328125 0.78125 -0.328125q0.6875 0 1.0625 0.46875q0.375 0.46875 0.375 1.3125l0 3.796875zm-1.4375 -4.078125q0.15625 0 0.265625 -0.109375q0.125 -0.125 0.125 -0.28125q0 -0.15625 -0.125 -0.265625q-0.109375 -0.125 -0.265625 -0.125q-0.15625 0 -0.28125 0.125q-0.109375 0.109375 -0.109375 0.265625q0 0.15625 0.109375 0.28125q0.125 0.109375 0.28125 0.109375z" fill-rule="nonzero"></path><path fill="#000000" fill-opacity="0.0" d="m288.57742 0.68766403l89.13385 0l0 52.850395l-89.13385 0z" fill-rule="evenodd"></path><path fill="#000000" d="m329.51456 30.60036q0 0.859375 -0.296875 1.09375q-0.28125 0.21875 -1.1875 0.21875l-3.359375 0l0 -0.890625l0.90625 0l0 -3.28125q0 -0.765625 0.59375 -1.1875q0 -0.40625 -0.359375 -0.75q-0.34375 -0.359375 -0.96875 -0.359375q-0.515625 0 -0.875 0.203125q-0.359375 0.203125 -0.453125 0.5q0.15625 -0.046875 0.46875 -0.046875q0.453125 0 0.78125 0.34375q0.34375 0.328125 0.34375 0.78125q0 0.453125 -0.34375 0.78125q-0.328125 0.328125 -0.78125 0.328125q-0.65625 0 -1.09375 -0.484375q-0.4375 -0.5 -0.4375 -1.234375q0 -0.890625 0.703125 -1.421875q0.71875 -0.53125 1.6875 -0.53125q1.015625 0 1.6875 0.53125q0.6875 0.515625 0.6875 1.359375q-0.578125 0.421875 -0.578125 1.1875l0 3.28125l1.484375 0q0.34375 0 0.34375 -0.421875l0 -5.875l1.046875 0l0 5.875zm-5.53125 -2.984375q0.15625 0 0.265625 -0.109375q0.125 -0.125 0.125 -0.28125q0 -0.15625 -0.125 -0.265625q-0.109375 -0.125 -0.265625 -0.125q-0.15625 0 -0.28125 0.125q-0.109375 0.109375 -0.109375 0.265625q0 0.15625 0.109375 0.28125q0.125 0.109375 0.28125 0.109375zm12.479706 2.578125q0 0.859375 -0.375 1.328125q-0.375 0.453125 -1.0625 0.453125q-0.453125 0 -0.78125 -0.328125q-0.328125 -0.328125 -0.328125 -0.78125q0 -0.46875 0.328125 -0.796875q0.328125 -0.328125 0.78125 -0.328125q0.1875 0 0.390625 0.0625l0 -2.53125q0 -0.765625 -0.359375 -1.203125q-0.359375 -0.4375 -1.3125 -0.4375q-1.4375 0 -1.765625 1.25l-1.03125 -0.140625q0.421875 -2.078125 2.96875 -2.078125q2.546875 0 2.546875 2.53125l0 3.0zm-1.4375 1.0625q0.15625 0 0.265625 -0.109375q0.125 -0.125 0.125 -0.28125q0 -0.15625 -0.125 -0.265625q-0.109375 -0.125 -0.265625 -0.125q-0.15625 0 -0.28125 0.125q-0.109375 0.109375 -0.109375 0.265625q0 0.15625 0.109375 0.28125q0.125 0.109375 0.28125 0.109375zm8.058502 0.65625l-1.046875 0l0 -4.640625q0 -0.734375 -0.390625 -1.1875q-0.375 -0.453125 -1.078125 -0.453125q-1.234375 0 -1.59375 1.25l-1.015625 -0.140625q0.484375 -2.078125 2.78125 -2.078125q2.34375 0 2.34375 2.578125l0 4.671875z" fill-rule="nonzero"></path><path fill="#000000" fill-opacity="0.0" d="m288.57742 158.33882l89.13385 0l0 41.29135l-89.13385 0z" fill-rule="evenodd"></path><path fill="#000000" d="m329.85013 176.25325q0 0.734375 -0.46875 1.25q-0.453125 0.5 -1.203125 0.703125q0.875 0.515625 0.875 1.328125l0 2.9375q0 0.859375 -0.296875 1.09375q-0.28125 0.21875 -1.1875 0.21875l-3.359375 0l0 -0.890625l0.921875 0l0 -3.296875q0 -0.75 0.921875 -1.296875q0 -0.25 -0.265625 -0.515625q-0.25 -0.28125 -0.578125 -0.390625l-0.828125 0.6875l-0.8125 -0.671875q-0.296875 0.09375 -0.515625 0.359375q-0.21875 0.265625 -0.21875 0.546875l0.46875 -0.03125q0.453125 0 0.78125 0.328125q0.34375 0.328125 0.34375 0.796875q0 0.453125 -0.34375 0.78125q-0.328125 0.328125 -0.78125 0.328125q-0.640625 0 -1.09375 -0.5q-0.4375 -0.5 -0.4375 -1.21875q0 -0.84375 0.46875 -1.46875q0.484375 -0.625 1.328125 -0.8125l0.8125 0.65625l0.828125 -0.671875q1.3125 0.25 1.796875 1.4375q0.828125 -0.203125 1.296875 -0.65625q0.484375 -0.453125 0.484375 -1.046875l0 -0.140625l1.0625 0l0 0.15625zm-1.859375 6.25l0 -2.875q0 -0.71875 -0.953125 -1.171875q-0.859375 0.421875 -0.859375 1.140625l0 3.296875l1.484375 0q0.328125 0 0.328125 -0.390625zm-4.6875 -2.71875q0.15625 0 0.265625 -0.109375q0.125 -0.125 0.125 -0.265625q0 -0.15625 -0.125 -0.28125q-0.109375 -0.125 -0.265625 -0.125q-0.15625 0 -0.28125 0.125q-0.109375 0.125 -0.109375 0.28125q0 0.140625 0.109375 0.265625q0.125 0.109375 0.28125 0.109375zm7.172241 -6.109375q-0.328125 0.859375 -1.203125 1.40625q-0.875 0.546875 -1.9375 0.546875l-0.46875 0l0 -0.515625q0.34375 -0.265625 0.546875 -0.671875q-0.3125 0 -0.53125 -0.21875q-0.234375 -0.21875 -0.234375 -0.53125q0 -0.3125 0.234375 -0.53125q0.21875 -0.21875 0.53125 -0.21875q0.375 0 0.625 0.234375q0.25 0.234375 0.25 0.671875q0 0.5 -0.53125 1.09375q1.625 -0.234375 2.1875 -1.890625l0.53125 0.625zm-3.0625 0.296875q0.109375 0 0.203125 -0.078125q0.078125 -0.078125 0.078125 -0.203125q0 -0.109375 -0.078125 -0.1875q-0.09375 -0.09375 -0.203125 -0.09375q-0.125 0 -0.203125 0.09375q-0.09375 0.078125 -0.09375 0.1875q0 0.125 0.09375 0.203125q0.078125 0.078125 0.203125 0.078125zm8.515625 9.8125l-1.046875 0l0 -4.640625q0 -0.734375 -0.390625 -1.1875q-0.375 -0.453125 -1.078125 -0.453125q-1.234375 0 -1.59375 1.25l-1.015625 -0.140625q0.484375 -2.078125 2.78125 -2.078125q2.34375 0 2.34375 2.578125l0 4.671875zm7.8151245 -1.3125q0 0.859375 -0.296875 1.09375q-0.28125 0.21875 -1.1875 0.21875l-2.734375 0q-0.90625 0 -1.1875 -0.21875q-0.28125 -0.234375 -0.28125 -1.09375l0 -1.0625q0 -0.5625 0.28125 -0.921875q0.296875 -0.359375 0.8125 -0.4375q-1.09375 -0.203125 -1.09375 -1.34375l0 -0.390625q0 -0.828125 0.375 -1.296875q0.390625 -0.484375 1.0625 -0.484375q0.453125 0 0.78125 0.328125q0.328125 0.328125 0.328125 0.78125q0 0.453125 -0.328125 0.796875q-0.328125 0.328125 -0.78125 0.328125q-0.1875 0 -0.390625 -0.0625q0 0.5 0.34375 0.78125q0.34375 0.265625 1.015625 0.265625l0 0.59375q-1.359375 0 -1.359375 1.203125l0 0.953125q0 0.390625 0.34375 0.390625l2.90625 0q0.34375 0 0.34375 -0.390625l0 -5.90625l1.046875 0l0 5.875zm-4.25 -4.4375q0.15625 0 0.265625 -0.109375q0.125 -0.125 0.125 -0.28125q0 -0.15625 -0.125 -0.265625q-0.109375 -0.125 -0.265625 -0.125q-0.15625 0 -0.28125 0.125q-0.109375 0.109375 -0.109375 0.265625q0 0.15625 0.109375 0.28125q0.125 0.109375 0.28125 0.109375z" fill-rule="nonzero"></path><path fill="#000000" fill-opacity="0.0" d="m473.4462 33.795277l13.2283325 0l0 142.58269l-13.2283325 0z" fill-rule="evenodd"></path><path stroke="#000000" stroke-width="1.0" stroke-linejoin="round" stroke-linecap="butt" d="m473.4462 33.795277l13.2283325 0l0 142.58269l-13.2283325 0z" fill-rule="evenodd"></path><path fill="#ffffff" d="m449.83768 31.338583l60.44568 0l0 0c7.9185486 0 14.337799 5.4648037 14.337799 12.205984c0 6.7411804 -6.4192505 12.205982 -14.337799 12.205982l-60.44568 0l0 0c-7.9185486 0 -14.337799 -5.464802 -14.337799 -12.205982c0 -6.7411804 6.4192505 -12.205984 14.337799 -12.205984z" fill-rule="evenodd"></path><path stroke="#000000" stroke-width="1.0" stroke-linejoin="round" stroke-linecap="butt" d="m449.83768 31.338583l60.44568 0l0 0c7.9185486 0 14.337799 5.4648037 14.337799 12.205984c0 6.7411804 -6.4192505 12.205982 -14.337799 12.205982l-60.44568 0l0 0c-7.9185486 0 -14.337799 -5.464802 -14.337799 -12.205982c0 -6.7411804 6.4192505 -12.205984 14.337799 -12.205984z" fill-rule="evenodd"></path><path fill="#0000ff" d="m477.07303 46.188316l1.09375 -0.09375q0.140625 0.765625 0.53125 1.125q0.390625 0.34375 1.015625 0.34375q0.515625 0 0.90625 -0.234375q0.40625 -0.25 0.65625 -0.640625q0.265625 -0.40625 0.421875 -1.09375q0.171875 -0.6875 0.171875 -1.40625q0 -0.078125 0 -0.21875q-0.34375 0.546875 -0.9375 0.890625q-0.59375 0.328125 -1.28125 0.328125q-1.15625 0 -1.953125 -0.828125q-0.796875 -0.84375 -0.796875 -2.21875q0 -1.421875 0.828125 -2.28125q0.828125 -0.859375 2.09375 -0.859375q0.90625 0 1.65625 0.5q0.75 0.484375 1.140625 1.390625q0.390625 0.890625 0.390625 2.609375q0 1.78125 -0.390625 2.84375q-0.375 1.046875 -1.140625 1.609375q-0.765625 0.546875 -1.796875 0.546875q-1.09375 0 -1.796875 -0.59375q-0.6875 -0.609375 -0.8125 -1.71875zm4.671875 -4.109375q0 -0.984375 -0.53125 -1.546875q-0.515625 -0.578125 -1.25 -0.578125q-0.765625 0 -1.328125 0.625q-0.5625 0.609375 -0.5625 1.609375q0 0.875 0.53125 1.4375q0.53125 0.546875 1.328125 0.546875q0.796875 0 1.296875 -0.546875q0.515625 -0.5625 0.515625 -1.546875z" fill-rule="nonzero"></path><path fill="#ffffff" d="m449.83768 58.207348l60.44568 0l0 0c7.9185486 0 14.337799 5.4648056 14.337799 12.205982c0 6.7411804 -6.4192505 12.205986 -14.337799 12.205986l-60.44568 0l0 0c-7.9185486 0 -14.337799 -5.4648056 -14.337799 -12.205986c0 -6.7411766 6.4192505 -12.205982 14.337799 -12.205982z" fill-rule="evenodd"></path><path stroke="#000000" stroke-width="1.0" stroke-linejoin="round" stroke-linecap="butt" d="m449.83768 58.207348l60.44568 0l0 0c7.9185486 0 14.337799 5.4648056 14.337799 12.205982c0 6.7411804 -6.4192505 12.205986 -14.337799 12.205986l-60.44568 0l0 0c-7.9185486 0 -14.337799 -5.4648056 -14.337799 -12.205986c0 -6.7411766 6.4192505 -12.205982 14.337799 -12.205982z" fill-rule="evenodd"></path><path fill="#0000ff" d="m477.4918 75.21333l-1.140625 0l0 -7.28125q-0.421875 0.390625 -1.09375 0.796875q-0.65625 0.390625 -1.1875 0.578125l0 -1.109375q0.953125 -0.4375 1.671875 -1.078125q0.71875 -0.640625 1.015625 -1.25l0.734375 0l0 9.34375zm3.1156006 -4.59375q0 -1.640625 0.328125 -2.640625q0.34375 -1.015625 1.015625 -1.5625q0.671875 -0.546875 1.6875 -0.546875q0.75 0 1.3125 0.3125q0.5625 0.296875 0.921875 0.859375q0.375 0.5625 0.578125 1.390625q0.21875 0.8125 0.21875 2.1875q0 1.640625 -0.34375 2.65625q-0.328125 1.0 -1.0 1.546875q-0.671875 0.546875 -1.6875 0.546875q-1.34375 0 -2.125 -0.96875q-0.90625 -1.15625 -0.90625 -3.78125zm1.171875 0q0 2.296875 0.53125 3.0625q0.53125 0.75 1.328125 0.75q0.78125 0 1.3125 -0.75q0.546875 -0.765625 0.546875 -3.0625q0 -2.296875 -0.546875 -3.046875q-0.53125 -0.75 -1.328125 -0.75q-0.78125 0 -1.265625 0.65625q-0.578125 0.859375 -0.578125 3.140625z" fill-rule="nonzero"></path><path fill="#ffffff" d="m449.83768 151.96588l60.44568 0l0 0c7.9185486 0 14.337799 5.464798 14.337799 12.205978c0 6.7411804 -6.4192505 12.205994 -14.337799 12.205994l-60.44568 0l0 0c-7.9185486 0 -14.337799 -5.464813 -14.337799 -12.205994c0 -6.7411804 6.4192505 -12.205978 14.337799 -12.205978z" fill-rule="evenodd"></path><path stroke="#000000" stroke-width="1.0" stroke-linejoin="round" stroke-linecap="butt" d="m449.83768 151.96588l60.44568 0l0 0c7.9185486 0 14.337799 5.464798 14.337799 12.205978c0 6.7411804 -6.4192505 12.205994 -14.337799 12.205994l-60.44568 0l0 0c-7.9185486 0 -14.337799 -5.464813 -14.337799 -12.205994c0 -6.7411804 6.4192505 -12.205978 14.337799 -12.205978z" fill-rule="evenodd"></path><path fill="#0000ff" d="m477.4918 168.97186l-1.140625 0l0 -7.28125q-0.421875 0.390625 -1.09375 0.796875q-0.65625 0.390625 -1.1875 0.578125l0 -1.109375q0.953125 -0.4375 1.671875 -1.078125q0.71875 -0.640625 1.015625 -1.25l0.734375 0l0 9.34375zm9.115601 -1.09375l0 1.09375l-6.15625 0q-0.015625 -0.40625 0.140625 -0.796875q0.234375 -0.625 0.75 -1.234375q0.515625 -0.609375 1.5 -1.40625q1.515625 -1.25 2.046875 -1.96875q0.53125 -0.734375 0.53125 -1.375q0 -0.6875 -0.484375 -1.140625q-0.484375 -0.46875 -1.265625 -0.46875q-0.828125 0 -1.328125 0.5q-0.484375 0.484375 -0.5 1.359375l-1.171875 -0.125q0.125 -1.3125 0.90625 -2.0q0.78125 -0.6875 2.109375 -0.6875q1.34375 0 2.125 0.75q0.78125 0.734375 0.78125 1.828125q0 0.5625 -0.234375 1.109375q-0.21875 0.53125 -0.75 1.140625q-0.53125 0.59375 -1.765625 1.625q-1.03125 0.859375 -1.328125 1.171875q-0.28125 0.3125 -0.46875 0.625l4.5625 0z" fill-rule="nonzero"></path><path fill="#ffffff" d="m449.83768 123.96063l60.44568 0l0 0c7.9185486 0 14.337799 5.464798 14.337799 12.205978c0 6.7411804 -6.4192505 12.205994 -14.337799 12.205994l-60.44568 0l0 0c-7.9185486 0 -14.337799 -5.464813 -14.337799 -12.205994c0 -6.7411804 6.4192505 -12.205978 14.337799 -12.205978z" fill-rule="evenodd"></path><path stroke="#000000" stroke-width="1.0" stroke-linejoin="round" stroke-linecap="butt" d="m449.83768 123.96063l60.44568 0l0 0c7.9185486 0 14.337799 5.464798 14.337799 12.205978c0 6.7411804 -6.4192505 12.205994 -14.337799 12.205994l-60.44568 0l0 0c-7.9185486 0 -14.337799 -5.464813 -14.337799 -12.205994c0 -6.7411804 6.4192505 -12.205978 14.337799 -12.205978z" fill-rule="evenodd"></path><path fill="#0000ff" d="m477.4918 140.96661l-1.140625 0l0 -7.28125q-0.421875 0.390625 -1.09375 0.796875q-0.65625 0.390625 -1.1875 0.578125l0 -1.109375q0.953125 -0.4375 1.671875 -1.078125q0.71875 -0.640625 1.015625 -1.25l0.734375 0l0 9.34375zm7.4124756 0l-1.140625 0l0 -7.28125q-0.421875 0.390625 -1.09375 0.796875q-0.65625 0.390625 -1.1875 0.578125l0 -1.109375q0.953125 -0.4375 1.671875 -1.078125q0.71875 -0.640625 1.015625 -1.25l0.734375 0l0 9.34375z" fill-rule="nonzero"></path><path fill="#000000" fill-opacity="0.0" d="m441.34647 90.99606l83.275604 0l0 7.149605l-83.275604 0z" fill-rule="evenodd"></path><path stroke="#000000" stroke-width="1.0" stroke-linejoin="round" stroke-linecap="butt" d="m441.34647 90.99606l83.275604 0l0 7.149605l-83.275604 0z" fill-rule="evenodd"></path><path fill="#000000" fill-opacity="0.0" d="m441.34647 110.58793l83.275604 0l0 7.149605l-83.275604 0z" fill-rule="evenodd"></path><path stroke="#000000" stroke-width="1.0" stroke-linejoin="round" stroke-linecap="butt" d="m441.34647 110.58793l83.275604 0l0 7.149605l-83.275604 0z" fill-rule="evenodd"></path><path fill="#000000" fill-opacity="0.0" d="m87.10236 91.03281l65.826775 0l0 7.149605l-65.826775 0z" fill-rule="evenodd"></path><path stroke="#000000" stroke-width="1.0" stroke-linejoin="round" stroke-linecap="butt" d="m87.10236 91.03281l65.826775 0l0 7.149605l-65.826775 0z" fill-rule="evenodd"></path><path fill="#000000" fill-opacity="0.0" d="m87.10236 109.521515l65.826775 0l0 7.1496124l-65.826775 0z" fill-rule="evenodd"></path><path stroke="#000000" stroke-width="1.0" stroke-linejoin="round" stroke-linecap="butt" d="m87.10236 109.521515l65.826775 0l0 7.1496124l-65.826775 0z" fill-rule="evenodd"></path><path fill="#ffffff" d="m89.79306 59.048557l60.445663 0l0 0c7.9185486 0 14.337799 5.464802 14.337799 12.205982c0 6.7411804 -6.4192505 12.205986 -14.337799 12.205986l-60.445663 0l0 0c-7.9185486 0 -14.337799 -5.4648056 -14.337799 -12.205986c0 -6.7411804 6.4192505 -12.205982 14.337799 -12.205982z" fill-rule="evenodd"></path><path stroke="#000000" stroke-width="1.0" stroke-linejoin="round" stroke-linecap="butt" d="m89.79306 59.048557l60.445663 0l0 0c7.9185486 0 14.337799 5.464802 14.337799 12.205982c0 6.7411804 -6.4192505 12.205986 -14.337799 12.205986l-60.445663 0l0 0c-7.9185486 0 -14.337799 -5.4648056 -14.337799 -12.205986c0 -6.7411804 6.4192505 -12.205982 14.337799 -12.205982z" fill-rule="evenodd"></path><path fill="#0000ff" d="m122.85653 74.96079l0 1.09375l-6.15625 0q-0.015625 -0.40625 0.140625 -0.796875q0.234375 -0.625 0.75 -1.234375q0.515625 -0.609375 1.5 -1.40625q1.515625 -1.25 2.046875 -1.96875q0.53125 -0.734375 0.53125 -1.375q0 -0.6875 -0.484375 -1.140625q-0.484375 -0.46875 -1.265625 -0.46875q-0.828125 0 -1.328125 0.5q-0.484375 0.484375 -0.5 1.359375l-1.171875 -0.125q0.125 -1.3125 0.90625 -2.0q0.78125 -0.6875 2.109375 -0.6875q1.34375 0 2.125 0.75q0.78125 0.734375 0.78125 1.828125q0 0.5625 -0.234375 1.109375q-0.21875 0.53125 -0.75 1.140625q-0.53125 0.59375 -1.765625 1.625q-1.03125 0.859375 -1.328125 1.171875q-0.28125 0.3125 -0.46875 0.625l4.5625 0z" fill-rule="nonzero"></path><path fill="#ffffff" d="m89.79306 124.24541l60.445663 0l0 0c7.9185486 0 14.337799 5.464798 14.337799 12.205978c0 6.7411804 -6.4192505 12.205994 -14.337799 12.205994l-60.445663 0l0 0c-7.9185486 0 -14.337799 -5.464813 -14.337799 -12.205994c0 -6.7411804 6.4192505 -12.205978 14.337799 -12.205978z" fill-rule="evenodd"></path><path stroke="#000000" stroke-width="1.0" stroke-linejoin="round" stroke-linecap="butt" d="m89.79306 124.24541l60.445663 0l0 0c7.9185486 0 14.337799 5.464798 14.337799 12.205978c0 6.7411804 -6.4192505 12.205994 -14.337799 12.205994l-60.445663 0l0 0c-7.9185486 0 -14.337799 -5.464813 -14.337799 -12.205994c0 -6.7411804 6.4192505 -12.205978 14.337799 -12.205978z" fill-rule="evenodd"></path><path fill="#0000ff" d="m116.85653 138.79826l1.140625 -0.15625q0.203125 0.96875 0.671875 1.40625q0.46875 0.421875 1.15625 0.421875q0.796875 0 1.34375 -0.546875q0.5625 -0.5625 0.5625 -1.390625q0 -0.796875 -0.515625 -1.296875q-0.5 -0.515625 -1.296875 -0.515625q-0.328125 0 -0.8125 0.125l0.125 -1.0q0.125 0.015625 0.1875 0.015625q0.734375 0 1.3125 -0.375q0.59375 -0.390625 0.59375 -1.1875q0 -0.625 -0.4375 -1.03125q-0.421875 -0.421875 -1.09375 -0.421875q-0.671875 0 -1.109375 0.421875q-0.4375 0.421875 -0.578125 1.25l-1.140625 -0.203125q0.21875 -1.140625 0.953125 -1.765625q0.75 -0.640625 1.84375 -0.640625q0.765625 0 1.40625 0.328125q0.640625 0.328125 0.984375 0.890625q0.34375 0.5625 0.34375 1.203125q0 0.59375 -0.328125 1.09375q-0.328125 0.5 -0.953125 0.78125q0.8125 0.203125 1.265625 0.796875q0.46875 0.59375 0.46875 1.5q0 1.21875 -0.890625 2.078125q-0.890625 0.84375 -2.25 0.84375q-1.21875 0 -2.03125 -0.734375q-0.8125 -0.734375 -0.921875 -1.890625z" fill-rule="nonzero"></path><path fill="#ffffff" d="m89.79306 150.7336l60.445663 0l0 0c7.9185486 0 14.337799 5.464798 14.337799 12.205978c0 6.7411804 -6.4192505 12.205994 -14.337799 12.205994l-60.445663 0l0 0c-7.9185486 0 -14.337799 -5.464813 -14.337799 -12.205994c0 -6.7411804 6.4192505 -12.205978 14.337799 -12.205978z" fill-rule="evenodd"></path><path stroke="#000000" stroke-width="1.0" stroke-linejoin="round" stroke-linecap="butt" d="m89.79306 150.7336l60.445663 0l0 0c7.9185486 0 14.337799 5.464798 14.337799 12.205978c0 6.7411804 -6.4192505 12.205994 -14.337799 12.205994l-60.445663 0l0 0c-7.9185486 0 -14.337799 -5.464813 -14.337799 -12.205994c0 -6.7411804 6.4192505 -12.205978 14.337799 -12.205978z" fill-rule="evenodd"></path><path fill="#0000ff" d="m120.51278 167.73958l0 -2.234375l-4.03125 0l0 -1.046875l4.234375 -6.03125l0.9375 0l0 6.03125l1.265625 0l0 1.046875l-1.265625 0l0 2.234375l-1.140625 0zm0 -3.28125l0 -4.1875l-2.921875 4.1875l2.921875 0z" fill-rule="nonzero"></path><path fill="#ffffff" d="m229.50919 103.85827l0 0c0 -20.343216 16.66771 -36.83465 37.228363 -36.83465l0 0c9.873566 0 19.342743 3.880783 26.324402 10.78862c6.981659 6.907837 10.903931 16.27687 10.903931 26.046028l0 0c0 20.343208 -16.667694 36.83465 -37.228333 36.83465l0 0c-20.560654 0 -37.228363 -16.49144 -37.228363 -36.83465z" fill-rule="evenodd"></path><path stroke="#000000" stroke-width="1.0" stroke-linejoin="round" stroke-linecap="butt" d="m229.50919 103.85827l0 0c0 -20.343216 16.66771 -36.83465 37.228363 -36.83465l0 0c9.873566 0 19.342743 3.880783 26.324402 10.78862c6.981659 6.907837 10.903931 16.27687 10.903931 26.046028l0 0c0 20.343208 -16.667694 36.83465 -37.228333 36.83465l0 0c-20.560654 0 -37.228363 -16.49144 -37.228363 -36.83465z" fill-rule="evenodd"></path><path fill="#0000ff" d="m263.5782 104.064514q0 -1.640625 0.328125 -2.640625q0.34375 -1.015625 1.015625 -1.5625q0.671875 -0.546875 1.6875 -0.546875q0.75 0 1.3125 0.3125q0.5625 0.296875 0.921875 0.859375q0.375 0.5625 0.578125 1.390625q0.21875 0.8125 0.21875 2.1875q0 1.640625 -0.34375 2.65625q-0.328125 1.0 -1.0 1.546875q-0.671875 0.546875 -1.6875 0.546875q-1.34375 0 -2.125 -0.96875q-0.90625 -1.15625 -0.90625 -3.78125zm1.171875 0q0 2.296875 0.53125 3.0625q0.53125 0.75 1.328125 0.75q0.78125 0 1.3125 -0.75q0.546875 -0.765625 0.546875 -3.0625q0 -2.296875 -0.546875 -3.046875q-0.53125 -0.75 -1.328125 -0.75q-0.78125 0 -1.265625 0.65625q-0.578125 0.859375 -0.578125 3.140625z" fill-rule="nonzero"></path><path fill="#000000" fill-opacity="0.0" d="m214.26509 140.69292l104.94487 0l0 31.842514l-104.94487 0z" fill-rule="evenodd"></path><path fill="#000000" d="m247.02757 159.91542q0 0.796875 -0.265625 1.015625q-0.265625 0.203125 -1.109375 0.203125l-2.515625 0q-0.828125 0 -1.09375 -0.203125q-0.265625 -0.21875 -0.265625 -1.015625l0 -0.984375q0 -0.5 0.265625 -0.828125q0.265625 -0.34375 0.75 -0.421875q-1.015625 -0.1875 -1.015625 -1.234375l0 -0.359375q0 -0.765625 0.34375 -1.203125q0.359375 -0.453125 0.984375 -0.453125q0.421875 0 0.71875 0.3125q0.3125 0.3125 0.3125 0.71875q0 0.421875 -0.3125 0.734375q-0.296875 0.296875 -0.71875 0.296875q-0.171875 0 -0.359375 -0.046875q0 0.453125 0.3125 0.71875q0.328125 0.25 0.953125 0.25l0 0.546875q-1.265625 0 -1.265625 1.109375l0 0.890625q0 0.34375 0.3125 0.34375l2.6875 0q0.3125 0 0.3125 -0.34375l0 -5.46875l0.96875 0l0 5.421875zm-3.921875 -4.078125q0.140625 0 0.25 -0.109375q0.109375 -0.109375 0.109375 -0.265625q0 -0.140625 -0.109375 -0.25q-0.109375 -0.109375 -0.25 -0.109375q-0.140625 0 -0.25 0.109375q-0.109375 0.109375 -0.109375 0.25q0 0.15625 0.109375 0.265625q0.109375 0.109375 0.25 0.109375zm9.8671875 5.296875l-0.96875 0l0 -4.28125q0 -0.6875 -0.359375 -1.09375q-0.34375 -0.421875 -1.0 -0.421875q-1.140625 0 -1.453125 1.15625l-0.953125 -0.140625q0.453125 -1.921875 2.578125 -1.921875q2.15625 0 2.15625 2.390625l0 4.3125zm5.6562653 -1.546875q0 0.78125 -0.34375 1.203125q-0.328125 0.40625 -0.953125 0.40625q-0.453125 0 -0.78125 -0.28125q-0.3125 -0.296875 -0.57814026 -1.0q-0.609375 -1.53125 -0.796875 -1.875q-0.1875 -0.359375 -0.5 -0.359375q-0.125 0 -0.28125 0.046875l-0.21875 -0.859375q0.34375 -0.078125 0.5 -0.078125q0.59375 0 0.953125 0.359375q0.37501526 0.34375 0.67189026 1.15625l0.46875 1.234375q0.296875 0.828125 0.5625 0.828125q0.328125 0 0.328125 -0.765625l0 -3.15625q-0.1875 0.046875 -0.359375 0.046875q-0.421875 0 -0.734375 -0.296875q-0.296875 -0.3125 -0.296875 -0.734375q0 -0.40625 0.296875 -0.71875q0.3125 -0.3125 0.734375 -0.3125q0.625 0 0.96875 0.4375q0.359375 0.4375 0.359375 1.21875l0 3.5zm-1.328125 -3.75q0.140625 0 0.25 -0.109375q0.109375 -0.109375 0.109375 -0.265625q0 -0.140625 -0.109375 -0.25q-0.109375 -0.109375 -0.25 -0.109375q-0.140625 0 -0.25 0.109375q-0.109375 0.109375 -0.109375 0.25q0 0.15625 0.109375 0.265625q0.109375 0.109375 0.25 0.109375zm8.123047 4.078125q0 0.796875 -0.265625 1.015625q-0.265625 0.203125 -1.09375 0.203125l-2.265625 0q-0.828125 0 -1.09375 -0.203125q-0.265625 -0.21875 -0.265625 -1.015625l0 -1.1875q0 -0.75 0.34375 -1.1875q0.34375 -0.453125 0.984375 -0.453125q0.421875 0 0.71875 0.3125q0.3125 0.296875 0.3125 0.71875q0 0.421875 -0.3125 0.734375q-0.296875 0.296875 -0.71875 0.296875q-0.171875 0 -0.359375 -0.0625l0 0.875q0 0.34375 0.3125 0.34375l2.421875 0q0.3125 0 0.3125 -0.34375l0 -3.09375q0 -0.71875 -0.375 -1.125q-0.375 -0.40625 -1.34375 -0.40625q-1.515625 0 -1.8125 1.15625l-0.953125 -0.140625q0.40625 -1.921875 2.921875 -1.921875q1.296875 0 1.90625 0.5625q0.625 0.5625 0.625 1.78125l0 3.140625zm-3.65625 -1.4375q0.140625 0 0.25 -0.109375q0.109375 -0.109375 0.109375 -0.25q0 -0.140625 -0.109375 -0.25q-0.109375 -0.109375 -0.25 -0.109375q-0.140625 0 -0.25 0.109375q-0.109375 0.109375 -0.109375 0.25q0 0.140625 0.109375 0.25q0.109375 0.109375 0.25 0.109375zm9.572266 -3.203125q-0.21875 0.984375 -0.90625 1.53125q-0.671875 0.53125 -1.6875 0.53125q-0.828125 0 -1.359375 -0.390625q-0.53125 -0.40625 -0.53125 -0.96875q0 -0.40625 0.265625 -0.6875q0.28125 -0.28125 0.6875 -0.28125q0.375 0 0.65625 0.28125q0.28125 0.28125 0.28125 0.671875q0 0.421875 -0.296875 0.6875q0.078125 0.046875 0.296875 0.046875q0.796875 0 1.28125 -0.34375q0.5 -0.359375 0.65625 -1.078125l0.65625 0zm-3.53125 1.0q0.109375 0 0.203125 -0.09375q0.09375 -0.09375 0.09375 -0.21875q0 -0.125 -0.09375 -0.21875q-0.09375 -0.09375 -0.203125 -0.09375q-0.125 0 -0.21875 0.09375q-0.09375 0.09375 -0.09375 0.21875q0 0.125 0.09375 0.21875q0.09375 0.09375 0.21875 0.09375zm3.53125 2.21875q-0.21875 0.984375 -0.90625 1.515625q-0.671875 0.53125 -1.6875 0.53125q-0.828125 0 -1.359375 -0.390625q-0.53125 -0.390625 -0.53125 -0.96875q0 -0.390625 0.265625 -0.671875q0.28125 -0.28125 0.6875 -0.28125q0.375 0 0.65625 0.28125q0.28125 0.28125 0.28125 0.671875q0 0.421875 -0.296875 0.6875q0.078125 0.046875 0.296875 0.046875q0.796875 0 1.28125 -0.359375q0.5 -0.359375 0.65625 -1.0625l0.65625 0zm-3.53125 1.0q0.109375 0 0.203125 -0.09375q0.09375 -0.09375 0.09375 -0.21875q0 -0.125 -0.09375 -0.21875q-0.09375 -0.09375 -0.203125 -0.09375q-0.125 0 -0.21875 0.09375q-0.09375 0.09375 -0.09375 0.21875q0 0.125 0.09375 0.21875q0.09375 0.09375 0.21875 0.09375zm9.097656 0.671875q0 -0.140625 -0.109375 -0.25q-0.109375 -0.109375 -0.265625 -0.109375q-0.140625 0 -0.25 0.109375q-0.09375 0.109375 -0.09375 0.25q0 0.140625 0.09375 0.25q0.109375 0.109375 0.25 0.109375q0.15625 0 0.265625 -0.109375q0.109375 -0.109375 0.109375 -0.25zm0.65625 0q0 0.421875 -0.3125 0.734375q-0.296875 0.296875 -0.71875 0.296875q-0.640625 0 -0.984375 -0.421875q-0.34375 -0.4375 -0.34375 -1.21875l0 -6.46875q0 -1.0625 -0.40625 -1.0625q-0.46875 0 -0.953125 1.671875l-0.5 0q-0.46875 -1.671875 -0.9375 -1.671875q-0.15625 0 -0.328125 0.046875l-0.203125 -0.84375q0.1875 -0.03125 0.28125 -0.03125q1.078125 0 1.4375 1.328125q0.375 -1.328125 1.4375 -1.328125q1.15625 0 1.15625 1.890625l0 6.09375q0.171875 -0.046875 0.34375 -0.046875q0.421875 0 0.71875 0.3125q0.3125 0.296875 0.3125 0.71875zm5.7128906 -3.515625q-0.5625 -0.59375 -0.5625 -1.125q0 -0.5 0.3125 -0.796875q0.328125 -0.296875 0.796875 -0.296875q0.484375 0 0.796875 0.296875q0.328125 0.296875 0.328125 0.796875q0 0.59375 -0.625 1.140625q0.3125 0.4375 0.3125 0.96875l0 3.5l-0.984375 0l0 -3.46875q0 -0.21875 -0.0625 -0.4375q-2.0 1.578125 -3.0 3.90625l-0.90625 0l0 -4.6875q-0.171875 0.046875 -0.359375 0.046875q-0.421875 0 -0.734375 -0.296875q-0.296875 -0.3125 -0.296875 -0.734375q0 -0.421875 0.296875 -0.71875q0.3125 -0.3125 0.734375 -0.3125q0.640625 0 0.984375 0.4375q0.34375 0.421875 0.34375 1.21875l0 3.40625q0.828125 -1.546875 2.625 -2.84375zm0.59375 -0.4375q0.390625 -0.28125 0.390625 -0.6875q0 -0.4375 -0.4375 -0.4375q-0.421875 0 -0.421875 0.4375q0 0.28125 0.46875 0.6875zm-4.546875 -0.375q0.140625 0 0.25 -0.109375q0.109375 -0.109375 0.109375 -0.265625q0 -0.140625 -0.109375 -0.25q-0.109375 -0.109375 -0.25 -0.109375q-0.140625 0 -0.25 0.109375q-0.109375 0.109375 -0.109375 0.25q0 0.15625 0.109375 0.265625q0.109375 0.109375 0.25 0.109375zm12.439453 5.296875l-0.96875 0l0 -1.234375q-0.296875 -0.90625 -0.859375 -1.515625q-0.5625 -0.609375 -1.21875 -0.609375q-0.5625 0 -0.84375 0.3125q-0.28125 0.3125 -0.28125 0.921875l0 0.171875q0.1875 -0.046875 0.359375 -0.046875q0.421875 0 0.71875 0.3125q0.3125 0.296875 0.3125 0.71875q0 0.421875 -0.3125 0.734375q-0.296875 0.296875 -0.71875 0.296875q-0.640625 0 -0.984375 -0.421875q-0.34375 -0.4375 -0.34375 -1.21875l0 -0.5625q0 -0.921875 0.546875 -1.484375q0.5625 -0.5625 1.5625 -0.5625q0.65625 0 1.21875 0.390625q0.5625 0.390625 0.84375 1.046875l0 -1.53125q0 -0.703125 -0.375 -1.109375q-0.375 -0.40625 -1.34375 -0.40625q-0.75 0 -1.21875 0.296875q-0.453125 0.28125 -0.59375 0.859375l-0.953125 -0.140625q0.203125 -0.953125 0.9375 -1.4375q0.734375 -0.484375 1.984375 -0.484375q1.296875 0 1.90625 0.5625q0.625 0.5625 0.625 1.78125l0 4.359375zm-3.8125 -0.609375q0.140625 0 0.25 -0.109375q0.109375 -0.109375 0.109375 -0.25q0 -0.140625 -0.109375 -0.25q-0.109375 -0.109375 -0.25 -0.109375q-0.140625 0 -0.25 0.109375q-0.109375 0.109375 -0.109375 0.25q0 0.140625 0.109375 0.25q0.109375 0.109375 0.25 0.109375zm3.3417969 -6.6875l-0.6875 0l0 -2.078125l0.6875 0l0 2.078125z" fill-rule="nonzero"></path></g></svg>

