<?xml version="1.0" standalone="yes"?>

<svg version="1.1" viewBox="0.0 0.0 962.4330708661417 585.8136482939633" fill="none" stroke="none" stroke-linecap="square" stroke-miterlimit="10" xmlns="http://www.w3.org/2000/svg" xmlns:xlink="http://www.w3.org/1999/xlink"><clipPath id="p.0">
  <path d="m0 0l962.43304 0l0 585.81366l-962.43304 0l0 -585.81366z" clip-rule="nonzero"></path></clipPath><g clip-path="url(#p.0)">
  <path fill="#000000" fill-opacity="0.0" d="m0 0l962.43304 0l0 585.81366l-962.43304 0z" fill-rule="evenodd"></path>
  <path fill="#000000" fill-opacity="0.0" d="m295.6483 49.139107l359.14963 0l0 238.83466l-359.14963 0z" fill-rule="evenodd"></path>
  <path stroke="#000000" stroke-width="1.0" stroke-linejoin="round" stroke-linecap="butt" d="m295.6483 49.139107l359.14963 0l0 238.83466l-359.14963 0z" fill-rule="evenodd"></path>
  <path fill="#cccccc" d="m609.7782 66.79002l10.393738 0l0 185.13387l-10.393738 0z" fill-rule="evenodd"></path>
  <path stroke="#000000" stroke-width="1.0" stroke-linejoin="round" stroke-linecap="butt" d="m609.7782 66.79002l10.393738 0l0 185.13387l-10.393738 0z" fill-rule="evenodd"></path>
  <path fill="#cccccc" d="m369.69028 74.94496l10.141754 0l0 174.3307l-10.141754 0z" fill-rule="evenodd"></path>
  <path stroke="#000000" stroke-width="1.0" stroke-linejoin="round" stroke-linecap="butt" d="m369.69028 74.94496l10.141754 0l0 174.3307l-10.141754 0z" fill-rule="evenodd"></path>
  <path fill="#000000" fill-opacity="0.0" d="m654.43677 286.86356l299.748 256.94492" fill-rule="evenodd"></path>
  <path stroke="#000000" stroke-width="1.0" stroke-linejoin="round" stroke-linecap="butt" d="m654.43677 286.86356l299.748 256.94492" fill-rule="evenodd"></path>
  <path fill="#000000" fill-opacity="0.0" d="m295.2861 287.97375l359.14957 0l0 16.661407l-359.14957 0z" fill-rule="evenodd"></path>
  <path stroke="#000000" stroke-width="1.0" stroke-linejoin="round" stroke-linecap="butt" d="m295.2861 287.97375l359.14957 0l0 16.661407l-359.14957 0z" fill-rule="evenodd"></path>
  <path fill="#000000" fill-opacity="0.0" d="m652.9249 305.4051l302.77167 262.07874" fill-rule="evenodd"></path>
  <path stroke="#000000" stroke-width="1.0" stroke-linejoin="round" stroke-linecap="butt" d="m652.9249 305.4051l302.77167 262.07874" fill-rule="evenodd"></path>
  <path fill="#000000" fill-opacity="0.0" d="m295.2861 32.47769l359.14957 0l0 16.661415l-359.14957 0z" fill-rule="evenodd"></path>
  <path stroke="#000000" stroke-width="1.0" stroke-linejoin="round" stroke-linecap="butt" d="m295.2861 32.47769l359.14957 0l0 16.661415l-359.14957 0z" fill-rule="evenodd"></path>
  <path fill="#cccccc" d="m683.64307 62.389763l10.141724 8.664795l0 267.74466l-10.141724 -8.664795z" fill-rule="evenodd"></path>
  <path stroke="#000000" stroke-width="1.0" stroke-linejoin="round" stroke-linecap="butt" d="m683.64307 62.389763l10.141724 8.664795l0 267.74466l-10.141724 -8.664795z" fill-rule="evenodd"></path>
  <path class="shelf" fill="#cfe2f3" d="m679.8023 320.04373l43.31848 -13.466339l76.26581 63.197815l-43.31842 13.466339z" fill-rule="evenodd"></path>
  <path stroke="#000000" stroke-width="1.0" stroke-linejoin="round" stroke-linecap="butt" d="m679.8023 320.04373l43.31848 -13.466339l76.26581 63.197815l-43.31842 13.466339z" fill-rule="evenodd"></path>
  <path class="shelf" fill="#cfe2f3" d="m679.8023 256.51093l43.31848 -13.466339l76.26581 63.197815l-43.31842 13.466339z" fill-rule="evenodd"></path>
  <path stroke="#000000" stroke-width="1.0" stroke-linejoin="round" stroke-linecap="butt" d="m679.8023 256.51093l43.31848 -13.466339l76.26581 63.197815l-43.31842 13.466339z" fill-rule="evenodd"></path>
  <path class="shelf" fill="#cfe2f3" d="m679.8023 189.65659l43.31848 -13.466324l76.26581 63.197815l-43.31842 13.466324z" fill-rule="evenodd"></path>
  <path stroke="#000000" stroke-width="1.0" stroke-linejoin="round" stroke-linecap="butt" d="m679.8023 189.65659l43.31848 -13.466324l76.26581 63.197815l-43.31842 13.466324z" fill-rule="evenodd"></path>
  <path class="shelf" fill="#cfe2f3" d="m679.0792 124.63428l43.31842 -13.4663315l76.26587 63.197807l-43.31842 13.466339z" fill-rule="evenodd"></path>
  <path stroke="#000000" stroke-width="1.0" stroke-linejoin="round" stroke-linecap="butt" d="m679.0792 124.63428l43.31842 -13.4663315l76.26587 63.197807l-43.31842 13.466339z" fill-rule="evenodd"></path>
  <path fill="#cccccc" d="m773.76904 107.52493l10.393677 8.880066l0 290.80496l-10.393677 -8.880066z" fill-rule="evenodd"></path>
  <path stroke="#000000" stroke-width="1.0" stroke-linejoin="round" stroke-linecap="butt" d="m773.76904 107.52493l10.393677 8.880066l0 290.80496l-10.393677 -8.880066z" fill-rule="evenodd"></path>
  <path class="shelf" fill="#cfe2f3" d="m757.347 255.30618l43.31842 -13.466324l76.26581 63.19783l-43.31842 13.466309z" fill-rule="evenodd"></path>
  <path stroke="#000000" stroke-width="1.0" stroke-linejoin="round" stroke-linecap="butt" d="m757.347 255.30618l43.31842 -13.466324l76.26581 63.19783l-43.31842 13.466309z" fill-rule="evenodd"></path>
  <path class="shelf" fill="#cfe2f3" d="m758.5491 321.8521l43.31842 -13.466309l76.26587 63.197815l-43.31848 13.466309z" fill-rule="evenodd"></path>
  <path stroke="#000000" stroke-width="1.0" stroke-linejoin="round" stroke-linecap="butt" d="m758.5491 321.8521l43.31842 -13.466309l76.26587 63.197815l-43.31848 13.466309z" fill-rule="evenodd"></path>
  <path class="shelf" fill="#cfe2f3" d="m758.5491 385.97812l43.31842 -13.466339l76.26587 63.197815l-43.31848 13.466309z" fill-rule="evenodd"></path>
  <path stroke="#000000" stroke-width="1.0" stroke-linejoin="round" stroke-linecap="butt" d="m758.5491 385.97812l43.31842 -13.466339l76.26587 63.197815l-43.31848 13.466309z" fill-rule="evenodd"></path>
  <path class="shelf" fill="#cfe2f3" d="m757.1042 190.57391l43.31842 -13.466339l76.26587 63.197815l-43.31848 13.466324z" fill-rule="evenodd"></path>
  <path stroke="#000000" stroke-width="1.0" stroke-linejoin="round" stroke-linecap="butt" d="m757.1042 190.57391l43.31842 -13.466339l76.26587 63.197815l-43.31848 13.466324z" fill-rule="evenodd"></path>
  <path fill="#cccccc" d="m850.1155 156.42783l10.393738 8.880066l0 306.80496l-10.393738 -8.880066z" fill-rule="evenodd"></path>
  <path stroke="#000000" stroke-width="1.0" stroke-linejoin="round" stroke-linecap="butt" d="m850.1155 156.42783l10.393738 8.880066l0 306.80496l-10.393738 -8.880066z" fill-rule="evenodd"></path>
  <path class="shelf" fill="#cfe2f3" d="m837.29706 320.6487l43.31848 -13.466339l76.26581 63.197815l-43.31842 13.466339z" fill-rule="evenodd"></path>
  <path stroke="#000000" stroke-width="1.0" stroke-linejoin="round" stroke-linecap="butt" d="m837.29706 320.6487l43.31848 -13.466339l76.26581 63.197815l-43.31842 13.466339z" fill-rule="evenodd"></path>
  <path class="shelf" fill="#cfe2f3" d="m837.29706 391.02667l43.31848 -13.466339l76.26581 63.197815l-43.31842 13.466339z" fill-rule="evenodd"></path>
  <path stroke="#000000" stroke-width="1.0" stroke-linejoin="round" stroke-linecap="butt" d="m837.29706 391.02667l43.31848 -13.466339l76.26581 63.197815l-43.31842 13.466339z" fill-rule="evenodd"></path>
  <path class="shelf" fill="#cfe2f3" d="m837.29706 453.13034l43.31848 -13.466339l76.26581 63.197815l-43.31842 13.466309z" fill-rule="evenodd"></path>
  <path stroke="#000000" stroke-width="1.0" stroke-linejoin="round" stroke-linecap="butt" d="m837.29706 453.13034l43.31848 -13.466339l76.26581 63.197815l-43.31842 13.466309z" fill-rule="evenodd"></path>
  <path class="shelf" fill="#cfe2f3" d="m836.574 256.51093l43.31842 -13.466339l76.26587 63.197815l-43.31842 13.466339z" fill-rule="evenodd"></path>
  <path stroke="#000000" stroke-width="1.0" stroke-linejoin="round" stroke-linecap="butt" d="m836.574 256.51093l43.31842 -13.466339l76.26587 63.197815l-43.31842 13.466339z" fill-rule="evenodd"></path>
  <path fill="#cccccc" d="m912.4304 223.73228l10.393738 8.880066l0 300.94672l-10.393738 -8.880066z" fill-rule="evenodd"></path>
  <path stroke="#000000" stroke-width="1.0" stroke-linejoin="round" stroke-linecap="butt" d="m912.4304 223.73228l10.393738 8.880066l0 300.94672l-10.393738 -8.880066z" fill-rule="evenodd"></path>
  <path class="shelf" fill="#cfe2f3" d="m679.8023 61.10409l43.31848 -13.466328l76.26581 63.197815l-43.31842 13.466324z" fill-rule="evenodd"></path>
  <path stroke="#000000" stroke-width="1.0" stroke-linejoin="round" stroke-linecap="butt" d="m679.8023 61.10409l43.31848 -13.466328l76.26581 63.197815l-43.31842 13.466324z" fill-rule="evenodd"></path>
  <path class="shelf" fill="#cfe2f3" d="m758.5491 127.043724l43.31842 -13.466324l76.26587 63.197807l-43.31848 13.466324z" fill-rule="evenodd"></path>
  <path stroke="#000000" stroke-width="1.0" stroke-linejoin="round" stroke-linecap="butt" d="m758.5491 127.043724l43.31842 -13.466324l76.26587 63.197807l-43.31848 13.466324z" fill-rule="evenodd"></path>
  <path class="shelf" fill="#cfe2f3" d="m836.574 192.98073l43.31842 -13.466324l76.26587 63.197815l-43.31842 13.466309z" fill-rule="evenodd"></path>
  <path stroke="#000000" stroke-width="1.0" stroke-linejoin="round" stroke-linecap="butt" d="m836.574 192.98073l43.31842 -13.466324l76.26587 63.197815l-43.31842 13.466309z" fill-rule="evenodd"></path>
  <path fill="#000000" fill-opacity="0.0" d="m295.08664 288.62167l-289.88974 242.04727" fill-rule="evenodd"></path>
  <path stroke="#000000" stroke-width="1.0" stroke-linejoin="round" stroke-linecap="butt" d="m295.08664 288.62167l-289.88974 242.04727" fill-rule="evenodd"></path>
  <path fill="#000000" fill-opacity="0.0" d="m296.59842 306.71915l-293.48032 248.91336" fill-rule="evenodd"></path>
  <path stroke="#000000" stroke-width="1.0" stroke-linejoin="round" stroke-linecap="butt" d="m296.59842 306.71915l-293.48032 248.91336" fill-rule="evenodd"></path>
  <path fill="#cccccc" d="m266.958 57.140404l-9.259857 7.911331l0 264.0257l9.259857 -7.9113464z" fill-rule="evenodd"></path>
  <path stroke="#000000" stroke-width="1.0" stroke-linejoin="round" stroke-linecap="butt" d="m266.958 57.140404l-9.259857 7.911331l0 264.0257l9.259857 -7.9113464z" fill-rule="evenodd"></path>
  <path class="shelf" fill="#cfe2f3" d="m282.06937 311.27573l-43.317352 -13.46637l-76.26395 63.197968l43.317352 13.46637z" fill-rule="evenodd"></path>
  <path stroke="#000000" stroke-width="1.0" stroke-linejoin="round" stroke-linecap="butt" d="m282.06937 311.27573l-43.317352 -13.46637l-76.26395 63.197968l43.317352 13.46637z" fill-rule="evenodd"></path>
  <path class="shelf" fill="#cfe2f3" d="m282.26886 231.74011l-43.317368 -13.466354l-76.26395 63.197983l43.317352 13.466339z" fill-rule="evenodd"></path>
  <path stroke="#000000" stroke-width="1.0" stroke-linejoin="round" stroke-linecap="butt" d="m282.26886 231.74011l-43.317368 -13.466354l-76.26395 63.197983l43.317352 13.466339z" fill-rule="evenodd"></path>
  <path class="shelf" fill="#cfe2f3" d="m282.99326 143.00372l-43.317352 -13.466354l-76.26395 63.197968l43.317352 13.46637z" fill-rule="evenodd"></path>
  <path stroke="#000000" stroke-width="1.0" stroke-linejoin="round" stroke-linecap="butt" d="m282.99326 143.00372l-43.317352 -13.466354l-76.26395 63.197968l43.317352 13.46637z" fill-rule="evenodd"></path>
  <path fill="#cccccc" d="m188.10529 98.75637l-10.393707 8.880066l0 290.80496l10.393707 -8.880066z" fill-rule="evenodd"></path>
  <path stroke="#000000" stroke-width="1.0" stroke-linejoin="round" stroke-linecap="butt" d="m188.10529 98.75637l-10.393707 8.880066l0 290.80496l10.393707 -8.880066z" fill-rule="evenodd"></path>
  <path class="shelf" fill="#cfe2f3" d="m205.45056 208.6535l-43.317352 -13.46637l-76.26395 63.197968l43.317352 13.46637z" fill-rule="evenodd"></path>
  <path stroke="#000000" stroke-width="1.0" stroke-linejoin="round" stroke-linecap="butt" d="m205.45056 208.6535l-43.317352 -13.46637l-76.26395 63.197968l43.317352 13.46637z" fill-rule="evenodd"></path>
  <path class="shelf" fill="#cfe2f3" d="m203.5241 297.08148l-43.317368 -13.466339l-76.26395 63.197968l43.31736 13.46637z" fill-rule="evenodd"></path>
  <path stroke="#000000" stroke-width="1.0" stroke-linejoin="round" stroke-linecap="butt" d="m203.5241 297.08148l-43.317368 -13.466339l-76.26395 63.197968l43.31736 13.46637z" fill-rule="evenodd"></path>
  <path class="shelf" fill="#cfe2f3" d="m204.76945 377.21027l-43.317352 -13.46637l-76.26395 63.197998l43.317352 13.466339z" fill-rule="evenodd"></path>
  <path stroke="#000000" stroke-width="1.0" stroke-linejoin="round" stroke-linecap="butt" d="m204.76945 377.21027l-43.317352 -13.46637l-76.26395 63.197998l43.317352 13.466339z" fill-rule="evenodd"></path>
  <path fill="#cccccc" d="m111.761154 154.09975l-10.3937 8.880066l0 300.37976l10.3937 -8.880066z" fill-rule="evenodd"></path>
  <path stroke="#000000" stroke-width="1.0" stroke-linejoin="round" stroke-linecap="butt" d="m111.761154 154.09975l-10.3937 8.880066l0 300.37976l10.3937 -8.880066z" fill-rule="evenodd"></path>
  <path class="shelf" fill="#cfe2f3" d="m125.502426 273.9962l-43.317352 -13.46637l-76.263954 63.197998l43.317356 13.466339z" fill-rule="evenodd"></path>
  <path stroke="#000000" stroke-width="1.0" stroke-linejoin="round" stroke-linecap="butt" d="m125.502426 273.9962l-43.317352 -13.46637l-76.263954 63.197998l43.317356 13.466339z" fill-rule="evenodd"></path>
  <path class="shelf" fill="#cfe2f3" d="m124.778015 366.25623l-43.317352 -13.46637l-76.263954 63.197968l43.317356 13.46637z" fill-rule="evenodd"></path>
  <path stroke="#000000" stroke-width="1.0" stroke-linejoin="round" stroke-linecap="butt" d="m124.778015 366.25623l-43.317352 -13.46637l-76.263954 63.197968l43.317356 13.46637z" fill-rule="evenodd"></path>
  <path class="shelf" fill="#cfe2f3" d="m125.50241 443.64877l-43.31736 -13.46637l-76.26395 63.197968l43.31736 13.46637z" fill-rule="evenodd"></path>
  <path stroke="#000000" stroke-width="1.0" stroke-linejoin="round" stroke-linecap="butt" d="m125.50241 443.64877l-43.31736 -13.46637l-76.26395 63.197968l43.31736 13.46637z" fill-rule="evenodd"></path>
  <path fill="#cccccc" d="m41.59989 223.73306l-10.3937 8.880066l0 300.9467l10.3937 -8.880066z" fill-rule="evenodd"></path>
  <path stroke="#000000" stroke-width="1.0" stroke-linejoin="round" stroke-linecap="butt" d="m41.59989 223.73306l-10.3937 8.880066l0 300.9467l10.3937 -8.880066z" fill-rule="evenodd"></path>
  <path class="shelf" fill="#cfe2f3" d="m282.99326 54.461395l-43.317352 -13.466362l-76.26395 63.197975l43.317352 13.466362z" fill-rule="evenodd"></path>
  <path stroke="#000000" stroke-width="1.0" stroke-linejoin="round" stroke-linecap="butt" d="m282.99326 54.461395l-43.317352 -13.466362l-76.26395 63.197975l43.317352 13.466362z" fill-rule="evenodd"></path>
  <path class="shelf" fill="#cfe2f3" d="m204.7695 122.22534l-43.317368 -13.466354l-76.26395 63.197968l43.317352 13.46637z" fill-rule="evenodd"></path>
  <path stroke="#000000" stroke-width="1.0" stroke-linejoin="round" stroke-linecap="butt" d="m204.7695 122.22534l-43.317368 -13.466354l-76.26395 63.197968l43.317352 13.46637z" fill-rule="evenodd"></path>
  <path class="shelf" fill="#cfe2f3" d="m125.50241 189.65596l-43.31736 -13.466354l-76.26395 63.197968l43.31736 13.46637z" fill-rule="evenodd"></path>
  <path stroke="#000000" stroke-width="1.0" stroke-linejoin="round" stroke-linecap="butt" d="m125.50241 189.65596l-43.31736 -13.466354l-76.26395 63.197968l43.31736 13.46637z" fill-rule="evenodd"></path>
  <path fill="#cccccc" d="m420.99875 361.0681l9.133881 0l0 206.42517l-9.133881 0z" fill-rule="evenodd"></path>
  <path stroke="#000000" stroke-width="1.0" stroke-linejoin="round" stroke-linecap="butt" d="m420.99875 361.0681l9.133881 0l0 206.42517l-9.133881 0z" fill-rule="evenodd"></path>
  <path fill="#cccccc" d="m530.82336 361.068l10.047241 0l0 206.42517l-10.047241 0z" fill-rule="evenodd"></path>
  <path stroke="#000000" stroke-width="1.0" stroke-linejoin="round" stroke-linecap="butt" d="m530.82336 361.068l10.047241 0l0 206.42517l-10.047241 0z" fill-rule="evenodd"></path>
  <path fill="#cccccc" d="m442.657 281.9724l9.133881 0l0 178.61417l-9.133881 0z" fill-rule="evenodd"></path>
  <path stroke="#000000" stroke-width="1.0" stroke-linejoin="round" stroke-linecap="butt" d="m442.657 281.9724l9.133881 0l0 178.61417l-9.133881 0z" fill-rule="evenodd"></path>
  <path fill="#cccccc" d="m506.1945 281.97238l10.047211 0l0 178.6142l-10.047211 0z" fill-rule="evenodd"></path>
  <path stroke="#000000" stroke-width="1.0" stroke-linejoin="round" stroke-linecap="butt" d="m506.1945 281.97238l10.047211 0l0 178.6142l-10.047211 0z" fill-rule="evenodd"></path>
  <path class="shelf" fill="#cfe2f3" d="m422.6275 556.8375l27.811035 -111.24411l62.33069 0l27.811035 111.24411z" fill-rule="evenodd"></path>
  <path stroke="#000000" stroke-width="1.0" stroke-linejoin="round" stroke-linecap="butt" d="m422.6275 556.8375l27.811035 -111.24411l62.33069 0l27.811035 111.24411z" fill-rule="evenodd"></path>
  <path class="shelf" fill="#cfe2f3" d="m421.52963 505.18442l27.811005 -111.24411l62.33072 0l27.811005 111.24411z" fill-rule="evenodd"></path>
  <path stroke="#000000" stroke-width="1.0" stroke-linejoin="round" stroke-linecap="butt" d="m421.52963 505.18442l27.811005 -111.24411l62.33072 0l27.811005 111.24411z" fill-rule="evenodd"></path>
  <path class="shelf" fill="#cfe2f3" d="m421.52963 445.59378l27.811005 -111.24411l62.33072 0l27.811005 111.24411z" fill-rule="evenodd"></path>
  <path stroke="#000000" stroke-width="1.0" stroke-linejoin="round" stroke-linecap="butt" d="m421.52963 445.59378l27.811005 -111.24411l62.33072 0l27.811005 111.24411z" fill-rule="evenodd"></path>
  <path class="shelf" fill="#cfe2f3" d="m421.52963 387.02887l27.811005 -111.24408l62.33072 0l27.811005 111.24408z" fill-rule="evenodd"></path>
  <path stroke="#000000" stroke-width="1.0" stroke-linejoin="round" stroke-linecap="butt" d="m421.52963 387.02887l27.811005 -111.24408l62.33072 0l27.811005 111.24408z" fill-rule="evenodd"></path>
  <path class="shelf" fill="#cfe2f3" d="m333.479 92.78084l37.12967 -28.0l64.256165 0l-37.1297 28.0z" fill-rule="evenodd"></path>
  <path stroke="#000000" stroke-width="1.0" stroke-linejoin="round" stroke-linecap="butt" d="m333.479 92.78084l37.12967 -28.0l64.256165 0l-37.1297 28.0z" fill-rule="evenodd"></path>
  <path class="shelf" fill="#cfe2f3" d="m395.06268 92.779526l37.1297 -28.0l64.256134 0l-37.12967 28.0z" fill-rule="evenodd"></path>
  <path stroke="#000000" stroke-width="1.0" stroke-linejoin="round" stroke-linecap="butt" d="m395.06268 92.779526l37.1297 -28.0l64.256134 0l-37.12967 28.0z" fill-rule="evenodd"></path>
  <path class="shelf" fill="#cfe2f3" d="m456.42322 92.78084l37.1297 -28.0l64.256165 0l-37.1297 28.0z" fill-rule="evenodd"></path>
  <path stroke="#000000" stroke-width="1.0" stroke-linejoin="round" stroke-linecap="butt" d="m456.42322 92.78084l37.1297 -28.0l64.256165 0l-37.1297 28.0z" fill-rule="evenodd"></path>
  <path class="shelf" fill="#cfe2f3" d="m515.736 92.78084l37.1297 -28.0l64.2561 0l-37.12964 28.0z" fill-rule="evenodd"></path>
  <path stroke="#000000" stroke-width="1.0" stroke-linejoin="round" stroke-linecap="butt" d="m515.736 92.78084l37.1297 -28.0l64.2561 0l-37.12964 28.0z" fill-rule="evenodd"></path>
  <path class="shelf" fill="#cfe2f3" d="m333.48032 133.06955l37.12967 -28.0l64.256165 0l-37.1297 28.0z" fill-rule="evenodd"></path>
  <path stroke="#000000" stroke-width="1.0" stroke-linejoin="round" stroke-linecap="butt" d="m333.48032 133.06955l37.12967 -28.0l64.256165 0l-37.1297 28.0z" fill-rule="evenodd"></path>
  <path class="shelf" fill="#cfe2f3" d="m395.064 133.06824l37.1297 -27.999992l64.256134 0l-37.12967 27.999992z" fill-rule="evenodd"></path>
  <path stroke="#000000" stroke-width="1.0" stroke-linejoin="round" stroke-linecap="butt" d="m395.064 133.06824l37.1297 -27.999992l64.256134 0l-37.12967 27.999992z" fill-rule="evenodd"></path>
  <path class="shelf" fill="#cfe2f3" d="m456.42453 133.06955l37.1297 -28.0l64.256134 0l-37.1297 28.0z" fill-rule="evenodd"></path>
  <path stroke="#000000" stroke-width="1.0" stroke-linejoin="round" stroke-linecap="butt" d="m456.42453 133.06955l37.1297 -28.0l64.256134 0l-37.1297 28.0z" fill-rule="evenodd"></path>
  <path class="shelf" fill="#cfe2f3" d="m515.7373 133.06955l37.1297 -28.0l64.256165 0l-37.1297 28.0z" fill-rule="evenodd"></path>
  <path stroke="#000000" stroke-width="1.0" stroke-linejoin="round" stroke-linecap="butt" d="m515.7373 133.06955l37.1297 -28.0l64.256165 0l-37.1297 28.0z" fill-rule="evenodd"></path>
  <path class="shelf" fill="#cfe2f3" d="m333.479 173.35695l37.12967 -28.0l64.256165 0l-37.1297 28.0z" fill-rule="evenodd"></path>
  <path stroke="#000000" stroke-width="1.0" stroke-linejoin="round" stroke-linecap="butt" d="m333.479 173.35695l37.12967 -28.0l64.256165 0l-37.1297 28.0z" fill-rule="evenodd"></path>
  <path class="shelf" fill="#cfe2f3" d="m395.06268 173.35564l37.1297 -28.0l64.256134 0l-37.12967 28.0z" fill-rule="evenodd"></path>
  <path stroke="#000000" stroke-width="1.0" stroke-linejoin="round" stroke-linecap="butt" d="m395.06268 173.35564l37.1297 -28.0l64.256134 0l-37.12967 28.0z" fill-rule="evenodd"></path>
  <path class="shelf" fill="#cfe2f3" d="m456.42322 173.35695l37.1297 -28.0l64.256165 0l-37.1297 28.0z" fill-rule="evenodd"></path>
  <path stroke="#000000" stroke-width="1.0" stroke-linejoin="round" stroke-linecap="butt" d="m456.42322 173.35695l37.1297 -28.0l64.256165 0l-37.1297 28.0z" fill-rule="evenodd"></path>
  <path class="shelf" fill="#cfe2f3" d="m515.736 173.35695l37.1297 -28.0l64.2561 0l-37.12964 28.0z" fill-rule="evenodd"></path>
  <path stroke="#000000" stroke-width="1.0" stroke-linejoin="round" stroke-linecap="butt" d="m515.736 173.35695l37.1297 -28.0l64.2561 0l-37.12964 28.0z" fill-rule="evenodd"></path>
  <path class="shelf" fill="#cfe2f3" d="m333.479 218.42783l37.12967 -28.0l64.256165 0l-37.1297 28.0z" fill-rule="evenodd"></path>
  <path stroke="#000000" stroke-width="1.0" stroke-linejoin="round" stroke-linecap="butt" d="m333.479 218.42783l37.12967 -28.0l64.256165 0l-37.1297 28.0z" fill-rule="evenodd"></path>
  <path class="shelf" fill="#cfe2f3" d="m395.06268 218.42651l37.1297 -28.0l64.256134 0l-37.12967 28.0z" fill-rule="evenodd"></path>
  <path stroke="#000000" stroke-width="1.0" stroke-linejoin="round" stroke-linecap="butt" d="m395.06268 218.42651l37.1297 -28.0l64.256134 0l-37.12967 28.0z" fill-rule="evenodd"></path>
  <path class="shelf" fill="#cfe2f3" d="m456.42322 218.42783l37.1297 -28.0l64.256165 0l-37.1297 28.0z" fill-rule="evenodd"></path>
  <path stroke="#000000" stroke-width="1.0" stroke-linejoin="round" stroke-linecap="butt" d="m456.42322 218.42783l37.1297 -28.0l64.256165 0l-37.1297 28.0z" fill-rule="evenodd"></path>
  <path class="shelf" fill="#cfe2f3" d="m515.736 218.42783l37.1297 -28.0l64.2561 0l-37.12964 28.0z" fill-rule="evenodd"></path>
  <path stroke="#000000" stroke-width="1.0" stroke-linejoin="round" stroke-linecap="butt" d="m515.736 218.42783l37.1297 -28.0l64.2561 0l-37.12964 28.0z" fill-rule="evenodd"></path>
  <path class="shelf" fill="#cfe2f3" d="m333.479 261.1076l37.12967 -28.0l64.256165 0l-37.1297 28.0z" fill-rule="evenodd"></path>
  <path stroke="#000000" stroke-width="1.0" stroke-linejoin="round" stroke-linecap="butt" d="m333.479 261.1076l37.12967 -28.0l64.256165 0l-37.1297 28.0z" fill-rule="evenodd"></path>
  <path class="shelf" fill="#cfe2f3" d="m395.06268 261.1063l37.1297 -28.0l64.256134 0l-37.12967 28.0z" fill-rule="evenodd"></path>
  <path stroke="#000000" stroke-width="1.0" stroke-linejoin="round" stroke-linecap="butt" d="m395.06268 261.1063l37.1297 -28.0l64.256134 0l-37.12967 28.0z" fill-rule="evenodd"></path>
  <path class="shelf" fill="#cfe2f3" d="m456.42322 261.1076l37.1297 -28.0l64.256165 0l-37.1297 28.0z" fill-rule="evenodd"></path>
  <path stroke="#000000" stroke-width="1.0" stroke-linejoin="round" stroke-linecap="butt" d="m456.42322 261.1076l37.1297 -28.0l64.256165 0l-37.1297 28.0z" fill-rule="evenodd"></path>
  <path class="shelf" fill="#cfe2f3" d="m515.736 261.1076l37.1297 -28.0l64.2561 0l-37.12964 28.0z" fill-rule="evenodd"></path>
  <path stroke="#000000" stroke-width="1.0" stroke-linejoin="round" stroke-linecap="butt" d="m515.736 261.1076l37.1297 -28.0l64.2561 0l-37.12964 28.0z" fill-rule="evenodd"></path>
  <path fill="#cccccc" d="m571.605 92.960625l10.393677 0l0 185.13385l-10.393677 0z" fill-rule="evenodd"></path>
  <path stroke="#000000" stroke-width="1.0" stroke-linejoin="round" stroke-linecap="butt" d="m571.605 92.960625l10.393677 0l0 185.13385l-10.393677 0z" fill-rule="evenodd"></path>
  <path fill="#cccccc" d="m333.46982 92.960625l10.393707 0l0 185.13385l-10.393707 0z" fill-rule="evenodd"></path>
  <path stroke="#000000" stroke-width="1.0" stroke-linejoin="round" stroke-linecap="butt" d="m333.46982 92.960625l10.393707 0l0 185.13385l-10.393707 0z" fill-rule="evenodd"></path></g></svg>
