<?xml version="1.0" standalone="yes"?>

<svg version="1.1" viewBox="0.0 0.0 959.9238845144357 596.7349081364829" fill="none" stroke="none" stroke-linecap="square" stroke-miterlimit="10" xmlns="http://www.w3.org/2000/svg" xmlns:xlink="http://www.w3.org/1999/xlink"><clipPath id="p.0"><path d="m0 0l959.9239 0l0 596.7349l-959.9239 0l0 -596.7349z" clip-rule="nonzero"></path></clipPath><g clip-path="url(#p.0)"><path fill="#000000" fill-opacity="0.0" d="m0 0l959.9239 0l0 596.7349l-959.9239 0z" fill-rule="evenodd"></path><path fill="#000000" fill-opacity="0.0" d="m295.6483 49.139107l359.14963 0l0 238.83466l-359.14963 0z" fill-rule="evenodd"></path><path stroke="#000000" stroke-width="1.0" stroke-linejoin="round" stroke-linecap="butt" d="m295.6483 49.139107l359.14963 0l0 238.83466l-359.14963 0z" fill-rule="evenodd"></path><path fill="#cccccc" d="m609.7782 66.79002l10.393738 0l0 185.13387l-10.393738 0z" fill-rule="evenodd"></path><path stroke="#000000" stroke-width="1.0" stroke-linejoin="round" stroke-linecap="butt" d="m609.7782 66.79002l10.393738 0l0 185.13387l-10.393738 0z" fill-rule="evenodd"></path><path fill="#cccccc" d="m369.69028 74.94496l10.141754 0l0 174.3307l-10.141754 0z" fill-rule="evenodd"></path><path stroke="#000000" stroke-width="1.0" stroke-linejoin="round" stroke-linecap="butt" d="m369.69028 74.94496l10.141754 0l0 174.3307l-10.141754 0z" fill-rule="evenodd"></path><path fill="#000000" fill-opacity="0.0" d="m654.80286 286.86618l299.74805 256.94492" fill-rule="evenodd"></path><path stroke="#000000" stroke-width="1.0" stroke-linejoin="round" stroke-linecap="butt" d="m654.80286 286.86618l299.74805 256.94492" fill-rule="evenodd"></path><path fill="#000000" fill-opacity="0.0" d="m295.2861 287.97375l359.14957 0l0 16.661407l-359.14957 0z" fill-rule="evenodd"></path><path stroke="#000000" stroke-width="1.0" stroke-linejoin="round" stroke-linecap="butt" d="m295.2861 287.97375l359.14957 0l0 16.661407l-359.14957 0z" fill-rule="evenodd"></path><path fill="#000000" fill-opacity="0.0" d="m653.2911 305.4077l302.77167 262.07874" fill-rule="evenodd"></path><path stroke="#000000" stroke-width="1.0" stroke-linejoin="round" stroke-linecap="butt" d="m653.2911 305.4077l302.77167 262.07874" fill-rule="evenodd"></path><path fill="#cccccc" d="m683.64307 62.389763l10.141724 8.664795l0 267.74466l-10.141724 -8.664795z" fill-rule="evenodd"></path><path stroke="#000000" stroke-width="1.0" stroke-linejoin="round" stroke-linecap="butt" d="m683.64307 62.389763l10.141724 8.664795l0 267.74466l-10.141724 -8.664795z" fill-rule="evenodd"></path><path fill="#cfe2f3" d="m679.8023 320.04373l43.31848 -13.466339l76.26581 63.197815l-43.31842 13.466339z" fill-rule="evenodd"></path><path stroke="#000000" stroke-width="1.0" stroke-linejoin="round" stroke-linecap="butt" d="m679.8023 320.04373l43.31848 -13.466339l76.26581 63.197815l-43.31842 13.466339z" fill-rule="evenodd"></path><path fill="#cfe2f3" d="m679.8023 256.51093l43.31848 -13.466339l76.26581 63.197815l-43.31842 13.466339z" fill-rule="evenodd"></path><path stroke="#000000" stroke-width="1.0" stroke-linejoin="round" stroke-linecap="butt" d="m679.8023 256.51093l43.31848 -13.466339l76.26581 63.197815l-43.31842 13.466339z" fill-rule="evenodd"></path><path fill="#cfe2f3" d="m679.8023 189.65659l43.31848 -13.466324l76.26581 63.197815l-43.31842 13.466324z" fill-rule="evenodd"></path><path stroke="#000000" stroke-width="1.0" stroke-linejoin="round" stroke-linecap="butt" d="m679.8023 189.65659l43.31848 -13.466324l76.26581 63.197815l-43.31842 13.466324z" fill-rule="evenodd"></path><path fill="#cfe2f3" d="m679.0792 124.63428l43.31842 -13.4663315l76.26587 63.197807l-43.31842 13.466339z" fill-rule="evenodd"></path><path stroke="#000000" stroke-width="1.0" stroke-linejoin="round" stroke-linecap="butt" d="m679.0792 124.63428l43.31842 -13.4663315l76.26587 63.197807l-43.31842 13.466339z" fill-rule="evenodd"></path><path fill="#cccccc" d="m773.76904 107.52493l10.393677 8.880066l0 290.80496l-10.393677 -8.880066z" fill-rule="evenodd"></path><path stroke="#000000" stroke-width="1.0" stroke-linejoin="round" stroke-linecap="butt" d="m773.76904 107.52493l10.393677 8.880066l0 290.80496l-10.393677 -8.880066z" fill-rule="evenodd"></path><path fill="#cfe2f3" d="m757.347 255.30618l43.31842 -13.466324l76.26581 63.19783l-43.31842 13.466309z" fill-rule="evenodd"></path><path stroke="#000000" stroke-width="1.0" stroke-linejoin="round" stroke-linecap="butt" d="m757.347 255.30618l43.31842 -13.466324l76.26581 63.19783l-43.31842 13.466309z" fill-rule="evenodd"></path><path fill="#cfe2f3" d="m758.5491 321.8521l43.31842 -13.466309l76.26587 63.197815l-43.31848 13.466309z" fill-rule="evenodd"></path><path stroke="#000000" stroke-width="1.0" stroke-linejoin="round" stroke-linecap="butt" d="m758.5491 321.8521l43.31842 -13.466309l76.26587 63.197815l-43.31848 13.466309z" fill-rule="evenodd"></path><path fill="#cfe2f3" d="m758.5491 385.97812l43.31842 -13.466339l76.26587 63.197815l-43.31848 13.466309z" fill-rule="evenodd"></path><path stroke="#000000" stroke-width="1.0" stroke-linejoin="round" stroke-linecap="butt" d="m758.5491 385.97812l43.31842 -13.466339l76.26587 63.197815l-43.31848 13.466309z" fill-rule="evenodd"></path><path fill="#cfe2f3" d="m757.1042 190.57391l43.31842 -13.466339l76.26587 63.197815l-43.31848 13.466324z" fill-rule="evenodd"></path><path stroke="#000000" stroke-width="1.0" stroke-linejoin="round" stroke-linecap="butt" d="m757.1042 190.57391l43.31842 -13.466339l76.26587 63.197815l-43.31848 13.466324z" fill-rule="evenodd"></path><path fill="#cccccc" d="m850.1155 156.42783l10.393738 8.880066l0 306.80496l-10.393738 -8.880066z" fill-rule="evenodd"></path><path stroke="#000000" stroke-width="1.0" stroke-linejoin="round" stroke-linecap="butt" d="m850.1155 156.42783l10.393738 8.880066l0 306.80496l-10.393738 -8.880066z" fill-rule="evenodd"></path><path fill="#cfe2f3" d="m837.29706 320.6487l43.31848 -13.466339l76.26581 63.197815l-43.31842 13.466339z" fill-rule="evenodd"></path><path stroke="#000000" stroke-width="1.0" stroke-linejoin="round" stroke-linecap="butt" d="m837.29706 320.6487l43.31848 -13.466339l76.26581 63.197815l-43.31842 13.466339z" fill-rule="evenodd"></path><path fill="#cfe2f3" d="m837.29706 391.02667l43.31848 -13.466339l76.26581 63.197815l-43.31842 13.466339z" fill-rule="evenodd"></path><path stroke="#000000" stroke-width="1.0" stroke-linejoin="round" stroke-linecap="butt" d="m837.29706 391.02667l43.31848 -13.466339l76.26581 63.197815l-43.31842 13.466339z" fill-rule="evenodd"></path><path fill="#cfe2f3" d="m837.29706 453.13034l43.31848 -13.466339l76.26581 63.197815l-43.31842 13.466309z" fill-rule="evenodd"></path><path stroke="#000000" stroke-width="1.0" stroke-linejoin="round" stroke-linecap="butt" d="m837.29706 453.13034l43.31848 -13.466339l76.26581 63.197815l-43.31842 13.466309z" fill-rule="evenodd"></path><path fill="#cfe2f3" d="m836.574 256.51093l43.31842 -13.466339l76.26587 63.197815l-43.31842 13.466339z" fill-rule="evenodd"></path><path stroke="#000000" stroke-width="1.0" stroke-linejoin="round" stroke-linecap="butt" d="m836.574 256.51093l43.31842 -13.466339l76.26587 63.197815l-43.31842 13.466339z" fill-rule="evenodd"></path><path fill="#cccccc" d="m912.4304 223.73228l10.393738 8.880066l0 300.94672l-10.393738 -8.880066z" fill-rule="evenodd"></path><path stroke="#000000" stroke-width="1.0" stroke-linejoin="round" stroke-linecap="butt" d="m912.4304 223.73228l10.393738 8.880066l0 300.94672l-10.393738 -8.880066z" fill-rule="evenodd"></path><path fill="#cfe2f3" d="m679.8023 61.10409l43.31848 -13.466328l76.26581 63.197815l-43.31842 13.466324z" fill-rule="evenodd"></path><path stroke="#000000" stroke-width="1.0" stroke-linejoin="round" stroke-linecap="butt" d="m679.8023 61.10409l43.31848 -13.466328l76.26581 63.197815l-43.31842 13.466324z" fill-rule="evenodd"></path><path fill="#cfe2f3" d="m758.5491 127.043724l43.31842 -13.466324l76.26587 63.197807l-43.31848 13.466324z" fill-rule="evenodd"></path><path stroke="#000000" stroke-width="1.0" stroke-linejoin="round" stroke-linecap="butt" d="m758.5491 127.043724l43.31842 -13.466324l76.26587 63.197807l-43.31848 13.466324z" fill-rule="evenodd"></path><path fill="#cfe2f3" d="m836.574 192.98073l43.31842 -13.466324l76.26587 63.197815l-43.31842 13.466309z" fill-rule="evenodd"></path><path stroke="#000000" stroke-width="1.0" stroke-linejoin="round" stroke-linecap="butt" d="m836.574 192.98073l43.31842 -13.466324l76.26587 63.197815l-43.31842 13.466309z" fill-rule="evenodd"></path><path fill="#000000" fill-opacity="0.0" d="m295.08664 288.62167l-289.88974 242.04727" fill-rule="evenodd"></path><path stroke="#000000" stroke-width="1.0" stroke-linejoin="round" stroke-linecap="butt" d="m295.08664 288.62167l-289.88974 242.04727" fill-rule="evenodd"></path><path fill="#000000" fill-opacity="0.0" d="m296.59842 306.71915l-293.48032 248.91336" fill-rule="evenodd"></path><path stroke="#000000" stroke-width="1.0" stroke-linejoin="round" stroke-linecap="butt" d="m296.59842 306.71915l-293.48032 248.91336" fill-rule="evenodd"></path><path fill="#cccccc" d="m266.958 57.140404l-9.259857 7.911331l0 264.0257l9.259857 -7.9113464z" fill-rule="evenodd"></path><path stroke="#000000" stroke-width="1.0" stroke-linejoin="round" stroke-linecap="butt" d="m266.958 57.140404l-9.259857 7.911331l0 264.0257l9.259857 -7.9113464z" fill-rule="evenodd"></path><path fill="#cfe2f3" d="m282.06937 311.27573l-43.317352 -13.46637l-76.26395 63.197968l43.317352 13.46637z" fill-rule="evenodd"></path><path stroke="#000000" stroke-width="1.0" stroke-linejoin="round" stroke-linecap="butt" d="m282.06937 311.27573l-43.317352 -13.46637l-76.26395 63.197968l43.317352 13.46637z" fill-rule="evenodd"></path><path fill="#cfe2f3" d="m282.26886 231.74011l-43.317368 -13.466354l-76.26395 63.197983l43.317352 13.466339z" fill-rule="evenodd"></path><path stroke="#000000" stroke-width="1.0" stroke-linejoin="round" stroke-linecap="butt" d="m282.26886 231.74011l-43.317368 -13.466354l-76.26395 63.197983l43.317352 13.466339z" fill-rule="evenodd"></path><path fill="#cfe2f3" d="m282.99326 143.00372l-43.317352 -13.466354l-76.26395 63.197968l43.317352 13.46637z" fill-rule="evenodd"></path><path stroke="#000000" stroke-width="1.0" stroke-linejoin="round" stroke-linecap="butt" d="m282.99326 143.00372l-43.317352 -13.466354l-76.26395 63.197968l43.317352 13.46637z" fill-rule="evenodd"></path><path fill="#cccccc" d="m188.10529 98.75637l-10.393707 8.880066l0 290.80496l10.393707 -8.880066z" fill-rule="evenodd"></path><path stroke="#000000" stroke-width="1.0" stroke-linejoin="round" stroke-linecap="butt" d="m188.10529 98.75637l-10.393707 8.880066l0 290.80496l10.393707 -8.880066z" fill-rule="evenodd"></path><path fill="#cfe2f3" d="m205.45056 208.6535l-43.317352 -13.46637l-76.26395 63.197968l43.317352 13.46637z" fill-rule="evenodd"></path><path stroke="#000000" stroke-width="1.0" stroke-linejoin="round" stroke-linecap="butt" d="m205.45056 208.6535l-43.317352 -13.46637l-76.26395 63.197968l43.317352 13.46637z" fill-rule="evenodd"></path><path fill="#cfe2f3" d="m203.5241 297.08148l-43.317368 -13.466339l-76.26395 63.197968l43.31736 13.46637z" fill-rule="evenodd"></path><path stroke="#000000" stroke-width="1.0" stroke-linejoin="round" stroke-linecap="butt" d="m203.5241 297.08148l-43.317368 -13.466339l-76.26395 63.197968l43.31736 13.46637z" fill-rule="evenodd"></path><path fill="#cfe2f3" d="m204.76945 377.21027l-43.317352 -13.46637l-76.26395 63.197998l43.317352 13.466339z" fill-rule="evenodd"></path><path stroke="#000000" stroke-width="1.0" stroke-linejoin="round" stroke-linecap="butt" d="m204.76945 377.21027l-43.317352 -13.46637l-76.26395 63.197998l43.317352 13.466339z" fill-rule="evenodd"></path><path fill="#cccccc" d="m111.761154 154.09975l-10.3937 8.880066l0 300.37976l10.3937 -8.880066z" fill-rule="evenodd"></path><path stroke="#000000" stroke-width="1.0" stroke-linejoin="round" stroke-linecap="butt" d="m111.761154 154.09975l-10.3937 8.880066l0 300.37976l10.3937 -8.880066z" fill-rule="evenodd"></path><path fill="#cfe2f3" d="m125.502426 273.9962l-43.317352 -13.46637l-76.263954 63.197998l43.317356 13.466339z" fill-rule="evenodd"></path><path stroke="#000000" stroke-width="1.0" stroke-linejoin="round" stroke-linecap="butt" d="m125.502426 273.9962l-43.317352 -13.46637l-76.263954 63.197998l43.317356 13.466339z" fill-rule="evenodd"></path><path fill="#cfe2f3" d="m124.778015 366.25623l-43.317352 -13.46637l-76.263954 63.197968l43.317356 13.46637z" fill-rule="evenodd"></path><path stroke="#000000" stroke-width="1.0" stroke-linejoin="round" stroke-linecap="butt" d="m124.778015 366.25623l-43.317352 -13.46637l-76.263954 63.197968l43.317356 13.46637z" fill-rule="evenodd"></path><path fill="#cfe2f3" d="m125.50241 443.64877l-43.31736 -13.46637l-76.26395 63.197968l43.31736 13.46637z" fill-rule="evenodd"></path><path stroke="#000000" stroke-width="1.0" stroke-linejoin="round" stroke-linecap="butt" d="m125.50241 443.64877l-43.31736 -13.46637l-76.26395 63.197968l43.31736 13.46637z" fill-rule="evenodd"></path><path fill="#cccccc" d="m41.59989 223.73306l-10.3937 8.880066l0 300.9467l10.3937 -8.880066z" fill-rule="evenodd"></path><path stroke="#000000" stroke-width="1.0" stroke-linejoin="round" stroke-linecap="butt" d="m41.59989 223.73306l-10.3937 8.880066l0 300.9467l10.3937 -8.880066z" fill-rule="evenodd"></path><path fill="#cfe2f3" d="m282.99326 54.461395l-43.317352 -13.466362l-76.26395 63.197975l43.317352 13.466362z" fill-rule="evenodd"></path><path stroke="#000000" stroke-width="1.0" stroke-linejoin="round" stroke-linecap="butt" d="m282.99326 54.461395l-43.317352 -13.466362l-76.26395 63.197975l43.317352 13.466362z" fill-rule="evenodd"></path><path fill="#cfe2f3" d="m204.7695 122.22534l-43.317368 -13.466354l-76.26395 63.197968l43.317352 13.46637z" fill-rule="evenodd"></path><path stroke="#000000" stroke-width="1.0" stroke-linejoin="round" stroke-linecap="butt" d="m204.7695 122.22534l-43.317368 -13.466354l-76.26395 63.197968l43.317352 13.46637z" fill-rule="evenodd"></path><path fill="#cfe2f3" d="m125.50241 189.65596l-43.31736 -13.466354l-76.26395 63.197968l43.31736 13.46637z" fill-rule="evenodd"></path><path stroke="#000000" stroke-width="1.0" stroke-linejoin="round" stroke-linecap="butt" d="m125.50241 189.65596l-43.31736 -13.466354l-76.26395 63.197968l43.31736 13.46637z" fill-rule="evenodd"></path><path fill="#cccccc" d="m421.09982 356.28857l9.13385 0l0 206.42523l-9.13385 0z" fill-rule="evenodd"></path><path stroke="#000000" stroke-width="1.0" stroke-linejoin="round" stroke-linecap="butt" d="m421.09982 356.28857l9.13385 0l0 206.42523l-9.13385 0z" fill-rule="evenodd"></path><path fill="#cccccc" d="m530.9244 356.28845l10.047241 0l0 206.42523l-10.047241 0z" fill-rule="evenodd"></path><path stroke="#000000" stroke-width="1.0" stroke-linejoin="round" stroke-linecap="butt" d="m530.9244 356.28845l10.047241 0l0 206.42523l-10.047241 0z" fill-rule="evenodd"></path><path fill="#cccccc" d="m442.7581 277.19287l9.13385 0l0 178.61417l-9.13385 0z" fill-rule="evenodd"></path><path stroke="#000000" stroke-width="1.0" stroke-linejoin="round" stroke-linecap="butt" d="m442.7581 277.19287l9.13385 0l0 178.61417l-9.13385 0z" fill-rule="evenodd"></path><path fill="#cccccc" d="m506.29553 277.19287l10.047241 0l0 178.61417l-10.047241 0z" fill-rule="evenodd"></path><path stroke="#000000" stroke-width="1.0" stroke-linejoin="round" stroke-linecap="butt" d="m506.29553 277.19287l10.047241 0l0 178.61417l-10.047241 0z" fill-rule="evenodd"></path><path fill="#cfe2f3" d="m422.72855 552.058l27.811035 -111.24408l62.33072 0l27.811035 111.24408z" fill-rule="evenodd"></path><path stroke="#000000" stroke-width="1.0" stroke-linejoin="round" stroke-linecap="butt" d="m422.72855 552.058l27.811035 -111.24408l62.33072 0l27.811035 111.24408z" fill-rule="evenodd"></path><path fill="#cfe2f3" d="m422.7829 496.73822l27.811035 -111.24411l62.33069 0l27.811035 111.24411z" fill-rule="evenodd"></path><path stroke="#000000" stroke-width="1.0" stroke-linejoin="round" stroke-linecap="butt" d="m422.7829 496.73822l27.811035 -111.24411l62.33069 0l27.811035 111.24411z" fill-rule="evenodd"></path><path fill="#cfe2f3" d="m421.63068 440.81424l27.811035 -111.24408l62.33069 0l27.811035 111.24408z" fill-rule="evenodd"></path><path stroke="#000000" stroke-width="1.0" stroke-linejoin="round" stroke-linecap="butt" d="m421.63068 440.81424l27.811035 -111.24408l62.33069 0l27.811035 111.24408z" fill-rule="evenodd"></path><path fill="#cfe2f3" d="m421.63068 382.24933l27.811035 -111.24408l62.33069 0l27.811035 111.24408z" fill-rule="evenodd"></path><path stroke="#000000" stroke-width="1.0" stroke-linejoin="round" stroke-linecap="butt" d="m421.63068 382.24933l27.811035 -111.24408l62.33069 0l27.811035 111.24408z" fill-rule="evenodd"></path><path fill="#cfe2f3" d="m333.479 92.78084l37.12967 -28.0l64.256165 0l-37.1297 28.0z" fill-rule="evenodd"></path><path stroke="#000000" stroke-width="1.0" stroke-linejoin="round" stroke-linecap="butt" d="m333.479 92.78084l37.12967 -28.0l64.256165 0l-37.1297 28.0z" fill-rule="evenodd"></path><path fill="#cfe2f3" d="m395.06268 92.779526l37.1297 -28.0l64.256134 0l-37.12967 28.0z" fill-rule="evenodd"></path><path stroke="#000000" stroke-width="1.0" stroke-linejoin="round" stroke-linecap="butt" d="m395.06268 92.779526l37.1297 -28.0l64.256134 0l-37.12967 28.0z" fill-rule="evenodd"></path><path fill="#cfe2f3" d="m456.42322 92.78084l37.1297 -28.0l64.256165 0l-37.1297 28.0z" fill-rule="evenodd"></path><path stroke="#000000" stroke-width="1.0" stroke-linejoin="round" stroke-linecap="butt" d="m456.42322 92.78084l37.1297 -28.0l64.256165 0l-37.1297 28.0z" fill-rule="evenodd"></path><path fill="#cfe2f3" d="m515.736 92.78084l37.1297 -28.0l64.2561 0l-37.12964 28.0z" fill-rule="evenodd"></path><path stroke="#000000" stroke-width="1.0" stroke-linejoin="round" stroke-linecap="butt" d="m515.736 92.78084l37.1297 -28.0l64.2561 0l-37.12964 28.0z" fill-rule="evenodd"></path><path fill="#cfe2f3" d="m333.48032 133.06955l37.12967 -28.0l64.256165 0l-37.1297 28.0z" fill-rule="evenodd"></path><path stroke="#000000" stroke-width="1.0" stroke-linejoin="round" stroke-linecap="butt" d="m333.48032 133.06955l37.12967 -28.0l64.256165 0l-37.1297 28.0z" fill-rule="evenodd"></path><path fill="#cfe2f3" d="m395.064 133.06824l37.1297 -27.999992l64.256134 0l-37.12967 27.999992z" fill-rule="evenodd"></path><path stroke="#000000" stroke-width="1.0" stroke-linejoin="round" stroke-linecap="butt" d="m395.064 133.06824l37.1297 -27.999992l64.256134 0l-37.12967 27.999992z" fill-rule="evenodd"></path><path fill="#cfe2f3" d="m456.42453 133.06955l37.1297 -28.0l64.256134 0l-37.1297 28.0z" fill-rule="evenodd"></path><path stroke="#000000" stroke-width="1.0" stroke-linejoin="round" stroke-linecap="butt" d="m456.42453 133.06955l37.1297 -28.0l64.256134 0l-37.1297 28.0z" fill-rule="evenodd"></path><path fill="#cfe2f3" d="m515.7373 133.06955l37.1297 -28.0l64.256165 0l-37.1297 28.0z" fill-rule="evenodd"></path><path stroke="#000000" stroke-width="1.0" stroke-linejoin="round" stroke-linecap="butt" d="m515.7373 133.06955l37.1297 -28.0l64.256165 0l-37.1297 28.0z" fill-rule="evenodd"></path><path fill="#cfe2f3" d="m333.479 173.35695l37.12967 -28.0l64.256165 0l-37.1297 28.0z" fill-rule="evenodd"></path><path stroke="#000000" stroke-width="1.0" stroke-linejoin="round" stroke-linecap="butt" d="m333.479 173.35695l37.12967 -28.0l64.256165 0l-37.1297 28.0z" fill-rule="evenodd"></path><path fill="#cfe2f3" d="m395.06268 173.35564l37.1297 -28.0l64.256134 0l-37.12967 28.0z" fill-rule="evenodd"></path><path stroke="#000000" stroke-width="1.0" stroke-linejoin="round" stroke-linecap="butt" d="m395.06268 173.35564l37.1297 -28.0l64.256134 0l-37.12967 28.0z" fill-rule="evenodd"></path><path fill="#cfe2f3" d="m456.42322 173.35695l37.1297 -28.0l64.256165 0l-37.1297 28.0z" fill-rule="evenodd"></path><path stroke="#000000" stroke-width="1.0" stroke-linejoin="round" stroke-linecap="butt" d="m456.42322 173.35695l37.1297 -28.0l64.256165 0l-37.1297 28.0z" fill-rule="evenodd"></path><path fill="#cfe2f3" d="m515.736 173.35695l37.1297 -28.0l64.2561 0l-37.12964 28.0z" fill-rule="evenodd"></path><path stroke="#000000" stroke-width="1.0" stroke-linejoin="round" stroke-linecap="butt" d="m515.736 173.35695l37.1297 -28.0l64.2561 0l-37.12964 28.0z" fill-rule="evenodd"></path><path fill="#cfe2f3" d="m333.479 218.42783l37.12967 -28.0l64.256165 0l-37.1297 28.0z" fill-rule="evenodd"></path><path stroke="#000000" stroke-width="1.0" stroke-linejoin="round" stroke-linecap="butt" d="m333.479 218.42783l37.12967 -28.0l64.256165 0l-37.1297 28.0z" fill-rule="evenodd"></path><path fill="#cfe2f3" d="m395.06268 218.42651l37.1297 -28.0l64.256134 0l-37.12967 28.0z" fill-rule="evenodd"></path><path stroke="#000000" stroke-width="1.0" stroke-linejoin="round" stroke-linecap="butt" d="m395.06268 218.42651l37.1297 -28.0l64.256134 0l-37.12967 28.0z" fill-rule="evenodd"></path><path fill="#cfe2f3" d="m456.42322 218.42783l37.1297 -28.0l64.256165 0l-37.1297 28.0z" fill-rule="evenodd"></path><path stroke="#000000" stroke-width="1.0" stroke-linejoin="round" stroke-linecap="butt" d="m456.42322 218.42783l37.1297 -28.0l64.256165 0l-37.1297 28.0z" fill-rule="evenodd"></path><path fill="#cfe2f3" d="m515.736 218.42783l37.1297 -28.0l64.2561 0l-37.12964 28.0z" fill-rule="evenodd"></path><path stroke="#000000" stroke-width="1.0" stroke-linejoin="round" stroke-linecap="butt" d="m515.736 218.42783l37.1297 -28.0l64.2561 0l-37.12964 28.0z" fill-rule="evenodd"></path><path fill="#cfe2f3" d="m333.479 261.1076l37.12967 -28.0l64.256165 0l-37.1297 28.0z" fill-rule="evenodd"></path><path stroke="#000000" stroke-width="1.0" stroke-linejoin="round" stroke-linecap="butt" d="m333.479 261.1076l37.12967 -28.0l64.256165 0l-37.1297 28.0z" fill-rule="evenodd"></path><path fill="#cfe2f3" d="m395.06268 261.1063l37.1297 -28.0l64.256134 0l-37.12967 28.0z" fill-rule="evenodd"></path><path stroke="#000000" stroke-width="1.0" stroke-linejoin="round" stroke-linecap="butt" d="m395.06268 261.1063l37.1297 -28.0l64.256134 0l-37.12967 28.0z" fill-rule="evenodd"></path><path fill="#cfe2f3" d="m456.42322 261.1076l37.1297 -28.0l64.256165 0l-37.1297 28.0z" fill-rule="evenodd"></path><path stroke="#000000" stroke-width="1.0" stroke-linejoin="round" stroke-linecap="butt" d="m456.42322 261.1076l37.1297 -28.0l64.256165 0l-37.1297 28.0z" fill-rule="evenodd"></path><path fill="#cfe2f3" d="m515.736 261.1076l37.1297 -28.0l64.2561 0l-37.12964 28.0z" fill-rule="evenodd"></path><path stroke="#000000" stroke-width="1.0" stroke-linejoin="round" stroke-linecap="butt" d="m515.736 261.1076l37.1297 -28.0l64.2561 0l-37.12964 28.0z" fill-rule="evenodd"></path><path fill="#cccccc" d="m333.46982 92.960625l10.393707 0l0 185.13385l-10.393707 0z" fill-rule="evenodd"></path><path stroke="#000000" stroke-width="1.0" stroke-linejoin="round" stroke-linecap="butt" d="m333.46982 92.960625l10.393707 0l0 185.13385l-10.393707 0z" fill-rule="evenodd"></path><path fill="#000000" fill-opacity="0.0" d="m39.312336 122.28845l85.98425 -71.149605l30.204727 36.472443l-85.98425 71.149605z" fill-rule="evenodd"></path><path fill="#000000" d="m80.99952 135.982q-0.23918152 -0.28881836 -0.6473007 -0.3161621q-0.40603638 -0.049346924 -0.7069855 0.19967651q-0.28891754 0.2390747 -0.32828522 0.6569824q-0.03730011 0.39590454 0.20188904 0.6847229q0.24914551 0.30085754 0.6551895 0.35020447q0.40811157 0.02734375 0.6970291 -0.2117157q0.3009491 -0.2490387 0.3382492 -0.64494324q0.039367676 -0.4179077 -0.20978546 -0.71876526zm1.3843765 -1.1455383q0.7175598 0.8664551 0.6098099 2.0102081q-0.10774231 1.143753 -0.9865265 1.8709259q-1.3001099 1.0758057 -2.749916 0.7949829q-1.437767 -0.29077148 -2.7732162 -1.9033356l-7.8233414 -9.446747q-1.5048676 -1.8171463 -2.5390625 -1.914566q-1.034195 -0.09742737 -2.1417007 0.81900024q-1.3362274 1.1056976 -2.7017555 3.2293854q-0.6643677 -0.6062622 -1.082943 -1.1116791q-1.6543617 -1.9976654 -1.4197235 -4.017082q0.2346344 -2.0194168 2.4135284 -3.8223877l4.2225113 -3.230362q1.2880707 -1.0658417 1.901123 -1.9179001l1.6019669 1.4934311q-0.54496765 0.8362808 -2.0738068 2.1013489l-4.2125397 3.2423935q-1.1676941 0.9662399 -1.4610443 1.9593658q-0.29335403 0.9931259 0.24234772 1.7869644q0.56529236 -0.93421936 1.4681511 -1.6813049q2.2029686 -1.8228989 3.8549538 -1.567421q1.6540604 0.23348999 3.9263153 2.9772568l7.2054443 8.70063q0.27352142 -0.42913818 0.63466644 -0.7279663q0.86673737 -0.71720886 2.0109558 -0.6094208q1.15625 0.0978241 1.8738022 0.9642792zm6.6157303 -26.160637q1.1460953 1.3839188 1.0866013 3.075882q-0.06945801 1.6799316 -1.1809998 3.2284088q2.4664307 -0.37789154 3.7321167 1.1504364l4.614273 5.5717773q1.3553848 1.6366272 1.1724472 2.5181122q-0.19290161 0.8694458 -1.9143524 2.293892l-6.3801804 5.279434l-1.4052124 -1.6968079l1.7455215 -1.4443817l-5.162407 -6.2336426q-1.1959229 -1.4440842 -0.2734375 -3.9312744q-0.3986435 -0.4813614 -1.3327789 -0.5804596q-0.9221039 -0.109054565 -1.7075424 0.21638489l-0.48654175 2.5726318l-2.59935 0.02141571q-0.4262619 0.6366577 -0.41698456 1.4807663q0.009277344 0.8441086 0.44778442 1.3736115l0.85095215 -0.78526306q0.866745 -0.71720886 2.0109558 -0.6094208q1.1442184 0.107795715 1.8617706 0.97424316q0.7175522 0.8664551 0.6098099 2.0102081q-0.10774994 1.143753 -0.97449493 1.8609619q-1.2278824 1.016037 -2.8578644 0.76262665q-1.629982 -0.2534027 -2.7461777 -1.6012192q-1.3254852 -1.6005325 -1.4092636 -3.5389938q-0.071746826 -1.9484253 1.2182999 -3.624321l2.59935 -0.02141571l0.48654175 -2.5726395q2.8805618 -1.5926361 5.669075 -0.08728027q1.2580719 -1.6900024 1.4433746 -3.3035507q0.19734192 -1.623497 -0.73947144 -2.7546997l-0.21925354 -0.26474762l1.9983215 -1.6535568l0.25911713 0.31288147zm6.313469 14.752258l-4.524582 -5.463463q-1.1261597 -1.359848 -3.6614685 -0.72216797q-0.94744873 2.1630783 0.17871094 3.5229263l5.162407 6.23365l2.8048782 -2.3209534q0.63801575 -0.5279465 0.04005432 -1.2499924zm-13.161606 2.2107391q0.3009491 -0.24903107 0.3382492 -0.64494324q0.039367676 -0.41791534 -0.19982147 -0.7067337q-0.24914551 -0.3008499 -0.6572647 -0.3282013q-0.40603638 -0.049346924 -0.7069855 0.19968414q-0.28891754 0.23906708 -0.32828522 0.6569824q-0.03730011 0.39591217 0.21185303 0.6967621q0.23918152 0.28881836 0.6452255 0.33816528q0.40811157 0.02735138 0.6970291 -0.2117157zm25.108238 -8.019829l-2.0946274 1.7332458l-7.9827957 -9.639282q-0.27352142 0.42913818 -0.63466644 0.72797394q-0.86673737 0.71720123 -2.022995 0.6193695q-1.1442108 -0.107788086 -1.8617706 -0.97424316q-0.7175522 -0.86644745 -0.60980225 -2.0102005q0.10774231 -1.143753 0.9865265 -1.8709183q1.3001099 -1.0758133 2.747841 -0.7730026q1.4498062 0.28082275 2.7852554 1.8933868l7.145653 8.628426q0.9520798 -4.2152557 2.4636383 -6.9465256l-7.434662 -8.977417l1.9983215 -1.6535492l7.2951355 8.808937q1.481575 -0.88119507 2.8898392 -0.7485275q1.4103394 0.110672 2.2375183 1.1094971q0.85707855 1.0349274 0.77962494 2.0927734q-0.07745361 1.0578461 -1.0405045 1.854744q-2.768753 2.291069 -5.579178 -1.1025391q-1.397789 2.8196487 -2.0683517 7.227852zm-13.074036 -10.030144q-0.30095673 0.24903107 -0.3403244 0.6669464q-0.03730011 0.39591217 0.20188904 0.6847305q0.24915314 0.3008499 0.6551895 0.35019684q0.40811157 0.02735138 0.7090683 -0.22167969q0.2889099 -0.23906708 0.32621002 -0.63497925q0.039367676 -0.41791534 -0.20978546 -0.71876526q-0.23918152 -0.28881836 -0.6472931 -0.31616974q-0.406044 -0.049346924 -0.6949539 0.18972015zm16.971283 0.94416046l0.95674133 1.1552658q0.40860748 0.49340057 0.86447906 0.6029129q0.45587158 0.10951996 0.79293823 -0.16939545q0.27687073 -0.22910309 0.28427124 -0.6611252q0.0074005127 -0.43201447 -0.27165222 -0.7689667q-0.39863586 -0.4813614 -1.1368103 -0.5398102q-0.73817444 -0.058441162 -1.4899673 0.38111877z" fill-rule="nonzero"></path><path fill="#000000" d="m126.38824 101.79067l-14.610214 -17.641945l6.0792313 -5.0303955q2.0585175 -1.7033615 3.3512268 -2.3471527q1.8058167 -0.9061203 3.6346283 -0.87807465q2.373085 0.023841858 4.5840607 1.2972641q2.2130432 1.2514267 4.166397 3.6101074q1.6643219 2.0096893 2.4804535 3.9505692q0.8161316 1.9408798 0.92892456 3.5714111q0.10282898 1.6184921 -0.28762817 2.9353256q-0.3883667 1.2948456 -1.3791351 2.6216965q-0.97872925 1.3168945 -2.5798035 2.6417313l-6.368141 5.2694626zm0.61125946 -4.0143585l3.767929 -3.1178513q1.7455139 -1.4443741 2.463562 -2.586113q0.730072 -1.1516953 0.831604 -2.2294617q0.14297485 -1.5176773 -0.5556488 -3.2921524q-0.6965332 -1.7964706 -2.350891 -3.7941284q-2.2921906 -2.76783 -4.4329147 -3.4909744q-2.1386414 -0.74513245 -3.8573303 -0.17475891q-1.2379532 0.4159546 -3.3205414 2.1392365l-3.7077255 3.0680466l11.161957 13.478157z" fill-rule="nonzero"></path><path fill="#000000" fill-opacity="0.0" d="m795.13934 25.196455l149.57477 121.70079l-34.834656 42.803146l-149.57477 -121.70079z" fill-rule="evenodd"></path><path fill="#000000" d="m822.2785 94.616714q0.23669434 -0.2908554 0.18395996 -0.6963577q-0.030761719 -0.40776825 -0.33374023 -0.6542969q-0.29089355 -0.23667908 -0.7085571 -0.19378662q-0.39569092 0.040641785 -0.63238525 0.33148956q-0.24658203 0.3029709 -0.21582031 0.71073914q0.052734375 0.40550232 0.34362793 0.64217377q0.30297852 0.24653625 0.69866943 0.2059021q0.41766357 -0.042892456 0.6642456 -0.34586334zm1.3937988 1.1340561q-0.710083 0.8725586 -1.8532104 0.98994446q-1.1431274 0.11739349 -2.027832 -0.60248566q-1.30896 -1.0650253 -1.3162231 -2.5413895q0.0049438477 -1.4664993 1.3265381 -3.0904236l7.7422485 -9.513313q1.4892578 -1.8299484 1.3831787 -2.8630219q-0.1060791 -1.0330658 -1.2211304 -1.9403152q-1.3453369 -1.0946121 -3.6950684 -2.019432q0.46520996 -0.7696686 0.87945557 -1.2786636q1.637207 -2.011734 3.6641235 -2.1754608q2.0269165 -0.1637268 4.220642 1.6211777l3.9926147 3.5104141q1.296814 1.0551605 2.2522583 1.4901276l-1.15271 1.86203q-0.9267578 -0.37128448 -2.4660034 -1.6236801l-4.0024414 -3.498291q-1.1755981 -0.9565506 -2.2071533 -1.0505295q-1.0314941 -0.09397888 -1.7058716 0.58610535q1.0267944 0.3721161 1.935791 1.1117172q2.2179565 1.8046341 2.2894287 3.4742966q0.09350586 1.6674118 -2.1552124 4.4305115l-7.1307373 8.76194q0.4743042 0.1845169 0.83795166 0.4803543q0.8726196 0.710022 0.98999023 1.8529968q0.1295166 1.152832 -0.58062744 2.0253906zm26.955261 1.385498q-1.1342163 1.3936691 -2.805725 1.6652832q-1.6616821 0.25949097 -3.397583 -0.5284653q0.8516846 2.3447495 -0.4008789 3.88385l-4.5664062 5.6110306q-1.3413696 1.6481705 -2.2418213 1.640686q-0.89056396 -0.019599915 -2.6237183 -1.429779l-6.423645 -5.2265244l1.390686 -1.7087555l1.7573853 1.4298935l5.1088867 -6.2775726q1.1835327 -1.4542618 3.8035278 -1.0347443q0.3944702 -0.48475647 0.3095703 -1.420044q-0.07281494 -0.9254303 -0.5452881 -1.6321182l-2.6187744 0.024597168l-0.52789307 -2.5445938q-0.70770264 -0.29382324 -1.5340576 -0.12011719q-0.82629395 0.17370605 -1.2602539 0.7069397l0.93634033 0.6812668q0.8726196 0.71001434 0.98999023 1.8529892q0.117370605 1.1429749 -0.5927124 2.0155334q-0.71014404 0.8725586 -1.8532104 0.98994446q-1.1431274 0.11739349 -2.015747 -0.5926285q-1.2362671 -1.0058594 -1.305481 -2.6535416q-0.0692749 -1.6476898 1.0354004 -3.005005q1.3117065 -1.6118088 3.1971436 -2.0719757q1.897522 -0.45030212 3.793213 0.48783112l0.52789307 2.5446014l2.6188354 -0.024604797q2.1241455 2.513939 1.1911011 5.541748q1.9033203 0.9040375 3.5224 0.77108q1.6312866 -0.12309265 2.5583496 -1.2622681l0.21697998 -0.26661682l2.0119019 1.6369934l-0.2564087 0.31508636zm-13.241699 9.067429l4.477661 -5.5019684q1.114502 -1.3694305 -0.005493164 -3.7310562q-2.3068848 -0.50720215 -3.4213867 0.8622284l-5.1088867 6.2775726l2.8239746 2.297699q0.642334 0.5226517 1.2341309 -0.2044754zm-4.7354126 -12.474426q0.30297852 0.24653625 0.69866943 0.2059021q0.41766357 -0.042892456 0.6543579 -0.33374786q0.24658203 -0.3029709 0.19384766 -0.70848083q-0.030761719 -0.40776062 -0.33380127 -0.6542969q-0.29083252 -0.23667145 -0.7084961 -0.19377899q-0.39569092 0.040634155 -0.64227295 0.34360504q-0.23669434 0.2908554 -0.20593262 0.698616q0.052734375 0.40550995 0.34362793 0.6421814zm12.764099 23.055809l-2.1088867 -1.7158813l7.9000854 -9.707214q-0.47436523 -0.18450928 -0.83795166 -0.4803543q-0.87268066 -0.71001434 -1.0021362 -1.8628464q-0.117370605 -1.1429749 0.5927124 -2.0155334q0.71014404 -0.8725586 1.8532104 -0.9899521q1.1431274 -0.117385864 2.027893 0.6024933q1.30896 1.0650253 1.2941895 2.5436401q0.0072021484 1.4763641 -1.3143921 3.1002884l-7.071594 8.689232q4.321106 0.11154938 7.29541 1.0610886l7.357605 -9.04068l2.0119019 1.6369858l-7.2195435 8.871017q1.1534424 1.2809067 1.2979126 2.687645q0.16644287 1.4044724 -0.65216064 2.4103394q-0.84820557 1.0422211 -1.901123 1.1725616q-1.0529175 0.13034058 -2.022522 -0.65856934q-2.7875977 -2.2681122 -0.006286621 -5.685631q-3.0388184 -0.8207474 -7.4943237 -0.61862946zm7.2907104 -14.7756195q-0.30297852 -0.24653625 -0.7207031 -0.2036438q-0.39569092 0.040634155 -0.63238525 0.33148956q-0.24658203 0.3029709 -0.21575928 0.7107315q0.052734375 0.40550995 0.3557129 0.6520462q0.29089355 0.23667145 0.6865845 0.19603729q0.41766357 -0.042892456 0.6642456 -0.34586334q0.23669434 -0.2908554 0.18395996 -0.6963577q-0.030761719 -0.40776825 -0.32165527 -0.6444397zm2.3831787 16.82521l-0.9468384 1.163414q-0.4043579 0.49687195 -0.4229126 0.96523285q-0.018554688 0.46835327 0.32080078 0.7444763q0.27874756 0.22680664 0.7040405 0.14981842q0.42529297 -0.07699585 0.70147705 -0.4163208q0.3944702 -0.48475647 0.30786133 -1.2199631q-0.08660889 -0.7352066 -0.6644287 -1.3866577z" fill-rule="nonzero"></path><path fill="#000000" d="m864.57623 132.3759l14.458801 -17.766266l6.6659546 5.423752q2.0361938 1.6567078 2.8164673 3.1980515q0.8023071 1.539093 0.5758667 3.2282486q-0.20440674 1.6868896 -1.2005005 2.910904q-0.927124 1.1391602 -2.3638306 1.6421051q-1.4367676 0.5029297 -3.1881104 0.105270386q1.2272949 1.7842102 1.1607666 3.6235352q-0.054504395 1.8491974 -1.3168945 3.400406q-1.0158691 1.2482452 -2.426941 1.8929291q-1.3890991 0.6424103 -2.6381836 0.59298706q-1.2490845 -0.049423218 -2.6712646 -0.7030029q-1.4002686 -0.655838 -3.097046 -2.0364227l-6.7750854 -5.512497zm10.734619 -8.387932l3.842041 3.1260452q1.5634766 1.27211 2.409851 1.6183319q1.1138916 0.4631195 2.0653076 0.20993042q0.963562 -0.24333191 1.7229614 -1.1764755q0.72003174 -0.8846817 0.83825684 -1.8963699q0.1281128 -1.0238037 -0.46240234 -1.9071655q-0.5806885 -0.8954849 -2.4956665 -2.4535828l-3.5511475 -2.8893738l-4.3692017 5.36866zm-6.677063 8.204475l4.423767 3.5993958q1.1392822 0.9269562 1.6688843 1.2168579q0.9304199 0.5152893 1.7519531 0.61972046q0.8215332 0.10443115 1.6957397 -0.2518921q0.88409424 -0.36843872 1.5744629 -1.2167511q0.80877686 -0.9937439 0.8914795 -2.1350555q0.09259033 -1.1534271 -0.5797119 -2.1838837q-0.65026855 -1.0327148 -2.347107 -2.4133148l-4.1086426 -3.3429947l-4.970825 6.107918z" fill-rule="nonzero"></path><path fill="#000000" fill-opacity="0.0" d="m339.56955 4.7795277l270.58267 0l0 42.92913l-270.58267 0z" fill-rule="evenodd"></path><path fill="#000000" d="m442.4312 35.370342q0 -0.375 -0.296875 -0.65625q-0.28125 -0.296875 -0.671875 -0.296875q-0.375 0 -0.671875 0.296875q-0.28125 0.28125 -0.28125 0.65625q0 0.390625 0.28125 0.6875q0.296875 0.28125 0.671875 0.28125q0.390625 0 0.671875 -0.28125q0.296875 -0.296875 0.296875 -0.6875zm1.796875 0q0 1.125 -0.8125 1.9375q-0.8125 0.8125 -1.953125 0.8125q-1.6875 0 -2.625 -1.140625q-0.921875 -1.140625 -0.921875 -3.234375l0 -12.265623q0 -2.359375 -0.734375 -3.09375q-0.734375 -0.734375 -2.171875 -0.734375q-1.734375 0 -4.140625 0.765625q-0.125 -0.890625 -0.125 -1.546875q0 -2.59375 1.46875 -4.0q1.46875 -1.40625 4.296875 -1.40625l5.3125 0.203125q1.671875 0 2.6875 -0.265625l0.28125 2.171875q-0.953125 0.296875 -2.9375 0.296875l-5.3125 -0.1875q-1.515625 0 -2.375 0.578125q-0.859375 0.578125 -0.953125 1.53125q1.03125 -0.359375 2.203125 -0.359375q2.859375 0 3.96875 1.25q1.125 1.234375 1.125 4.796875l0 11.296873q0.484375 -0.15625 0.953125 -0.15625q1.125 0 1.9375 0.8125q0.828125 0.8125 0.828125 1.9375zm21.78125 -15.937498q0 1.796875 -1.125 3.0625q-1.125 1.25 -2.96875 1.734375q2.140625 1.28125 2.140625 3.265625l0 7.234373q0 2.125 -0.703125 2.6875q-0.703125 0.546875 -2.9375 0.546875l-8.28125 0l0 -2.203125l2.265625 0l0 -8.093748q0 -1.875 2.296875 -3.203125q0 -0.625 -0.65625 -1.296875q-0.640625 -0.671875 -1.453125 -0.921875l-2.015625 1.671875l-2.015625 -1.640625q-0.734375 0.21875 -1.265625 0.875q-0.53125 0.65625 -0.53125 1.34375l1.15625 -0.0625q1.125 0 1.9375 0.8125q0.8125 0.8125 0.8125 1.9375q0 1.125 -0.8125 1.9375q-0.8125 0.8125 -1.9375 0.8125q-1.59375 0 -2.6875 -1.234375q-1.09375 -1.234375 -1.09375 -2.984375q0 -2.078125 1.171875 -3.625q1.1875 -1.546875 3.25 -2.015625l2.015625 1.640625l2.015625 -1.671875q3.234375 0.609375 4.421875 3.546875q2.046875 -0.5 3.21875 -1.625q1.1875 -1.125 1.1875 -2.59375l0 -0.34375l2.59375 0l0 0.40625zm-4.546875 15.390623l0 -7.093748q0 -1.765625 -2.359375 -2.890625q-2.109375 1.0625 -2.109375 2.828125l0 8.093748l3.640625 0q0.828125 0 0.828125 -0.9375zm-11.546875 -6.687498q0.390625 0 0.671875 -0.28125q0.296875 -0.296875 0.296875 -0.671875q0 -0.390625 -0.296875 -0.671875q-0.28125 -0.296875 -0.671875 -0.296875q-0.375 0 -0.671875 0.296875q-0.28125 0.28125 -0.28125 0.671875q0 0.375 0.28125 0.671875q0.296875 0.28125 0.671875 0.28125zm24.453125 9.828123l-2.71875 0l0 -12.515623q-0.484375 0.15625 -0.953125 0.15625q-1.125 0 -1.953125 -0.8125q-0.8125 -0.8125 -0.8125 -1.9375q0 -1.125 0.8125 -1.9375q0.8125 -0.8125 1.953125 -0.8125q1.6875 0 2.609375 1.15625q0.9375 1.140625 0.9375 3.234375l0 11.203123q3.421875 -2.640625 6.328125 -3.781248l0 -11.65625l2.59375 0l0 11.4375q1.703125 0.265625 2.703125 1.2656231q1.015625 0.984375 1.015625 2.28125q0 1.34375 -0.734375 2.109375q-0.734375 0.765625 -1.984375 0.765625q-3.59375 0 -3.59375 -4.40625q-2.875 1.28125 -6.203125 4.25zm-3.671875 -16.062498q-0.390625 0 -0.6875 0.296875q-0.28125 0.28125 -0.28125 0.65625q0 0.390625 0.28125 0.6875q0.296875 0.28125 0.6875 0.28125q0.375 0 0.65625 -0.28125q0.296875 -0.296875 0.296875 -0.6875q0 -0.375 -0.296875 -0.65625q-0.28125 -0.296875 -0.65625 -0.296875zm12.46875 11.546873l0 1.5q0 0.640625 0.28125 1.015625q0.28125 0.375 0.71875 0.375q0.359375 0 0.640625 -0.328125q0.28125 -0.328125 0.28125 -0.765625q0 -0.625 -0.53125 -1.140625q-0.53125 -0.515625 -1.390625 -0.65625z" fill-rule="nonzero"></path><path fill="#000000" d="m515.5406 29.932844l3.03125 0.765625q-0.953125 3.734373 -3.4375 5.703123q-2.46875 1.953125 -6.046875 1.953125q-3.703125 0 -6.03125 -1.5q-2.3125 -1.515625 -3.53125 -4.375q-1.203125 -2.859373 -1.203125 -6.140623q0 -3.578125 1.359375 -6.234375q1.375 -2.671875 3.890625 -4.046875q2.53125 -1.390625 5.5625 -1.390625q3.4375 0 5.78125 1.75q2.34375 1.75 3.265625 4.921875l-2.984375 0.703125q-0.796875 -2.5 -2.3125 -3.640625q-1.515625 -1.140625 -3.8125 -1.140625q-2.640625 0 -4.421875 1.265625q-1.765625 1.265625 -2.484375 3.40625q-0.71875 2.125 -0.71875 4.390625q0 2.921875 0.84375 5.109375q0.859375 2.171873 2.65625 3.249998q1.796875 1.078125 3.890625 1.078125q2.546875 0 4.3125 -1.46875q1.765625 -1.46875 2.390625 -4.359373z" fill-rule="nonzero"></path><path fill="#000000" fill-opacity="0.0" d="m335.01706 549.5827l289.88974 0l0 59.527527l-289.88974 0z" fill-rule="evenodd"></path><path fill="#000000" d="m448.41507 588.4727q0 -0.375 -0.296875 -0.65625q-0.28125 -0.296875 -0.671875 -0.296875q-0.375 0 -0.671875 0.296875q-0.28125 0.28125 -0.28125 0.65625q0 0.390625 0.28125 0.6875q0.296875 0.28125 0.671875 0.28125q0.390625 0 0.671875 -0.28125q0.296875 -0.296875 0.296875 -0.6875zm1.796875 0q0 1.125 -0.8125 1.9375q-0.8125 0.8125 -1.953125 0.8125q-1.6875 0 -2.625 -1.140625q-0.921875 -1.140625 -0.921875 -3.234375l0 -12.265625q0 -2.359375 -0.734375 -3.09375q-0.734375 -0.734375 -2.171875 -0.734375q-1.734375 0 -4.140625 0.765625q-0.125 -0.890625 -0.125 -1.546875q0 -2.59375 1.46875 -4.0q1.46875 -1.40625 4.296875 -1.40625l5.3125 0.203125q1.671875 0 2.6875 -0.265625l0.28125 2.171875q-0.953125 0.296875 -2.9375 0.296875l-5.3125 -0.1875q-1.515625 0 -2.375 0.578125q-0.859375 0.578125 -0.953125 1.53125q1.03125 -0.359375 2.203125 -0.359375q2.859375 0 3.96875 1.25q1.125 1.234375 1.125 4.796875l0 11.296875q0.484375 -0.15625 0.953125 -0.15625q1.125 0 1.9375 0.8125q0.828125 0.8125 0.828125 1.9375zm21.78125 -15.9375q0 1.796875 -1.125 3.0625q-1.125 1.25 -2.96875 1.734375q2.140625 1.28125 2.140625 3.265625l0 7.234375q0 2.125 -0.703125 2.6875q-0.703125 0.546875 -2.9375 0.546875l-8.28125 0l0 -2.203125l2.265625 0l0 -8.09375q0 -1.875 2.296875 -3.203125q0 -0.625 -0.65625 -1.296875q-0.640625 -0.671875 -1.453125 -0.921875l-2.015625 1.671875l-2.015625 -1.640625q-0.734375 0.21875 -1.265625 0.875q-0.53125 0.65625 -0.53125 1.34375l1.15625 -0.0625q1.125 0 1.9375 0.8125q0.8125 0.8125 0.8125 1.9375q0 1.125 -0.8125 1.9375q-0.8125 0.8125 -1.9375 0.8125q-1.59375 0 -2.6875 -1.234375q-1.09375 -1.234375 -1.09375 -2.984375q0 -2.078125 1.171875 -3.625q1.1875 -1.546875 3.25 -2.015625l2.015625 1.640625l2.015625 -1.671875q3.234375 0.609375 4.421875 3.546875q2.046875 -0.5 3.21875 -1.625q1.1875 -1.125 1.1875 -2.59375l0 -0.34375l2.59375 0l0 0.40625zm-4.546875 15.390625l0 -7.09375q0 -1.765625 -2.359375 -2.890625q-2.109375 1.0625 -2.109375 2.828125l0 8.09375l3.640625 0q0.828125 0 0.828125 -0.9375zm-11.546875 -6.6875q0.390625 0 0.671875 -0.28125q0.296875 -0.296875 0.296875 -0.671875q0 -0.390625 -0.296875 -0.671875q-0.28125 -0.296875 -0.671875 -0.296875q-0.375 0 -0.671875 0.296875q-0.28125 0.28125 -0.28125 0.671875q0 0.375 0.28125 0.671875q0.296875 0.28125 0.671875 0.28125zm24.453125 9.828125l-2.71875 0l0 -12.515625q-0.484375 0.15625 -0.953125 0.15625q-1.125 0 -1.953125 -0.8125q-0.8125 -0.8125 -0.8125 -1.9375q0 -1.125 0.8125 -1.9375q0.8125 -0.8125 1.953125 -0.8125q1.6875 0 2.609375 1.15625q0.9375 1.140625 0.9375 3.234375l0 11.203125q3.421875 -2.640625 6.328125 -3.78125l0 -11.65625l2.59375 0l0 11.4375q1.703125 0.265625 2.703125 1.265625q1.015625 0.984375 1.015625 2.28125q0 1.34375 -0.734375 2.109375q-0.734375 0.765625 -1.984375 0.765625q-3.59375 0 -3.59375 -4.40625q-2.875 1.28125 -6.203125 4.25zm-3.671875 -16.0625q-0.390625 0 -0.6875 0.296875q-0.28125 0.28125 -0.28125 0.65625q0 0.390625 0.28125 0.6875q0.296875 0.28125 0.6875 0.28125q0.375 0 0.65625 -0.28125q0.296875 -0.296875 0.296875 -0.6875q0 -0.375 -0.296875 -0.65625q-0.28125 -0.296875 -0.65625 -0.296875zm12.46875 11.546875l0 1.5q0 0.640625 0.28125 1.015625q0.28125 0.375 0.71875 0.375q0.359375 0 0.640625 -0.328125q0.28125 -0.328125 0.28125 -0.765625q0 -0.625 -0.53125 -1.140625q-0.53125 -0.515625 -1.390625 -0.65625z" fill-rule="nonzero"></path><path fill="#000000" d="m502.66507 591.06647l8.796875 -22.90625l3.2656555 0l9.375 22.90625l-3.453125 0l-2.671875 -6.9375l-9.5781555 0l-2.515625 6.9375l-3.21875 0zm6.609375 -9.40625l7.7656555 0l-2.390625 -6.34375q-1.09375 -2.890625 -1.625 -4.75q-0.4375 2.203125 -1.2344055 4.375l-2.515625 6.71875z" fill-rule="nonzero"></path></g></svg>

